<svg id="svg" version="1.1" xmlns="http://www.w3.org/2000/svg" xmlns:xlink="http://www.w3.org/1999/xlink" width="400" height="400" viewBox="0, 0, 400,400"><g id="svgg"><path id="path0" d="M182.400 4.800 C 182.400 5.039,180.867 5.200,178.600 5.200 C 176.333 5.200,174.800 5.361,174.800 5.600 C 174.800 5.829,173.600 6.000,172.000 6.000 C 170.400 6.000,169.200 6.171,169.200 6.400 C 169.200 6.622,168.133 6.800,166.800 6.800 C 165.467 6.800,164.400 6.978,164.400 7.200 C 164.400 7.420,163.678 7.600,162.795 7.600 C 161.912 7.600,160.877 7.764,160.495 7.964 C 160.113 8.164,158.450 8.530,156.800 8.777 C 155.150 9.024,153.124 9.330,152.297 9.456 C 151.471 9.582,150.695 9.845,150.574 10.042 C 150.452 10.239,149.744 10.400,149.000 10.400 C 148.256 10.400,147.536 10.580,147.400 10.800 C 147.264 11.020,146.634 11.200,146.000 11.200 C 145.366 11.200,144.736 11.380,144.600 11.600 C 144.464 11.820,143.823 12.000,143.176 12.000 C 142.529 12.000,142.000 12.180,142.000 12.400 C 142.000 12.620,141.460 12.800,140.800 12.800 C 140.140 12.800,139.600 12.980,139.600 13.200 C 139.600 13.420,139.060 13.600,138.400 13.600 C 137.740 13.600,137.200 13.780,137.200 14.000 C 137.200 14.220,136.660 14.400,136.000 14.400 C 135.340 14.400,134.800 14.580,134.800 14.800 C 134.800 15.020,134.438 15.200,133.995 15.200 C 133.552 15.200,132.832 15.380,132.395 15.600 C 131.958 15.820,131.242 16.180,130.805 16.400 C 130.368 16.620,129.648 16.800,129.205 16.800 C 128.762 16.800,128.400 16.980,128.400 17.200 C 128.400 17.420,127.950 17.600,127.400 17.600 C 126.850 17.600,126.400 17.780,126.400 18.000 C 126.400 18.220,126.040 18.400,125.600 18.400 C 125.160 18.400,124.800 18.580,124.800 18.800 C 124.800 19.020,124.451 19.200,124.024 19.200 C 123.597 19.200,123.136 19.380,123.000 19.600 C 122.864 19.820,122.313 20.000,121.776 20.000 C 121.239 20.000,120.800 20.180,120.800 20.400 C 120.800 20.620,120.440 20.800,120.000 20.800 C 119.560 20.800,119.200 20.980,119.200 21.200 C 119.200 21.420,118.840 21.600,118.400 21.600 C 117.960 21.600,117.600 21.780,117.600 22.000 C 117.600 22.220,117.240 22.400,116.800 22.400 C 116.360 22.400,116.000 22.580,116.000 22.800 C 116.000 23.020,115.766 23.200,115.480 23.200 C 114.744 23.200,112.807 24.141,112.803 24.500 C 112.801 24.665,112.536 24.800,112.214 24.800 C 111.490 24.800,108.649 26.089,108.467 26.500 C 108.393 26.665,107.988 26.800,107.567 26.800 C 107.145 26.800,106.800 26.980,106.800 27.200 C 106.800 27.420,106.440 27.600,106.000 27.600 C 105.560 27.600,105.200 27.780,105.200 28.000 C 105.200 28.220,104.964 28.400,104.675 28.400 C 104.387 28.400,103.764 28.760,103.292 29.200 C 102.820 29.640,102.156 30.000,101.817 30.000 C 101.478 30.000,101.200 30.180,101.200 30.400 C 101.200 30.620,100.840 30.800,100.400 30.800 C 99.960 30.800,99.600 30.980,99.600 31.200 C 99.600 31.420,99.364 31.600,99.075 31.600 C 98.787 31.600,98.202 31.915,97.775 32.300 C 97.349 32.685,96.505 33.255,95.900 33.568 C 95.295 33.880,94.800 34.285,94.800 34.468 C 94.800 34.650,94.564 34.800,94.275 34.800 C 93.987 34.800,93.364 35.160,92.892 35.600 C 92.420 36.040,91.846 36.400,91.617 36.400 C 91.388 36.400,91.200 36.580,91.200 36.800 C 91.200 37.020,90.912 37.200,90.560 37.200 C 90.209 37.200,89.417 37.740,88.800 38.400 C 88.183 39.060,87.457 39.600,87.186 39.600 C 86.916 39.600,86.403 39.917,86.047 40.306 C 85.691 40.694,84.725 41.364,83.900 41.796 C 83.075 42.228,82.400 42.709,82.400 42.864 C 82.400 43.019,82.077 43.249,81.683 43.374 C 81.288 43.499,80.298 44.231,79.482 45.001 C 78.666 45.770,77.864 46.409,77.699 46.420 C 77.535 46.430,76.680 47.149,75.800 48.017 C 74.920 48.884,74.055 49.596,73.878 49.597 C 73.701 49.599,72.496 50.680,71.200 52.000 C 69.904 53.320,68.652 54.400,68.416 54.400 C 67.855 54.400,54.400 67.859,54.400 68.420 C 54.400 68.658,53.539 69.695,52.486 70.726 C 51.433 71.757,50.288 73.009,49.942 73.509 C 49.596 74.008,48.657 75.125,47.856 75.991 C 47.055 76.857,46.400 77.663,46.400 77.782 C 46.400 77.901,45.770 78.666,45.000 79.482 C 44.230 80.299,43.600 81.082,43.600 81.222 C 43.600 81.446,43.106 82.106,41.607 83.883 C 41.383 84.149,41.200 84.604,41.200 84.895 C 41.200 85.186,40.840 85.683,40.400 86.000 C 39.960 86.317,39.600 86.825,39.600 87.128 C 39.600 87.431,39.060 88.183,38.400 88.800 C 37.740 89.417,37.200 90.126,37.200 90.377 C 37.200 90.628,36.869 91.189,36.464 91.623 C 36.059 92.058,35.475 92.905,35.167 93.507 C 34.858 94.108,34.289 94.891,33.903 95.247 C 33.516 95.603,33.200 96.105,33.200 96.364 C 33.200 96.622,32.840 97.220,32.400 97.692 C 31.960 98.164,31.600 98.787,31.600 99.075 C 31.600 99.364,31.420 99.600,31.200 99.600 C 30.980 99.600,30.800 99.960,30.800 100.400 C 30.800 100.840,30.620 101.200,30.400 101.200 C 30.180 101.200,30.000 101.478,30.000 101.817 C 30.000 102.156,29.640 102.820,29.200 103.292 C 28.760 103.764,28.400 104.387,28.400 104.675 C 28.400 104.964,28.220 105.200,28.000 105.200 C 27.780 105.200,27.600 105.560,27.600 106.000 C 27.600 106.440,27.420 106.800,27.200 106.800 C 26.980 106.800,26.800 107.145,26.800 107.567 C 26.800 107.988,26.665 108.393,26.500 108.467 C 26.089 108.649,24.800 111.490,24.800 112.214 C 24.800 112.536,24.665 112.801,24.500 112.803 C 24.141 112.807,23.200 114.744,23.200 115.480 C 23.200 115.766,23.020 116.000,22.800 116.000 C 22.580 116.000,22.400 116.360,22.400 116.800 C 22.400 117.240,22.220 117.600,22.000 117.600 C 21.780 117.600,21.600 117.960,21.600 118.400 C 21.600 118.840,21.420 119.200,21.200 119.200 C 20.980 119.200,20.800 119.560,20.800 120.000 C 20.800 120.440,20.620 120.800,20.400 120.800 C 20.180 120.800,20.000 121.239,20.000 121.776 C 20.000 122.313,19.820 122.864,19.600 123.000 C 19.380 123.136,19.200 123.597,19.200 124.024 C 19.200 124.451,19.020 124.800,18.800 124.800 C 18.580 124.800,18.400 125.160,18.400 125.600 C 18.400 126.040,18.220 126.400,18.000 126.400 C 17.780 126.400,17.600 126.850,17.600 127.400 C 17.600 127.950,17.420 128.400,17.200 128.400 C 16.980 128.400,16.800 128.940,16.800 129.600 C 16.800 130.260,16.620 130.800,16.400 130.800 C 16.180 130.800,16.000 131.160,16.000 131.600 C 16.000 132.040,15.820 132.400,15.600 132.400 C 15.380 132.400,15.200 132.940,15.200 133.600 C 15.200 134.260,15.020 134.800,14.800 134.800 C 14.580 134.800,14.400 135.340,14.400 136.000 C 14.400 136.660,14.220 137.200,14.000 137.200 C 13.780 137.200,13.600 137.740,13.600 138.400 C 13.600 139.060,13.420 139.600,13.200 139.600 C 12.980 139.600,12.800 140.140,12.800 140.800 C 12.800 141.460,12.620 142.000,12.400 142.000 C 12.180 142.000,12.000 142.529,12.000 143.176 C 12.000 143.823,11.820 144.464,11.600 144.600 C 11.380 144.736,11.200 145.366,11.200 146.000 C 11.200 146.634,11.020 147.264,10.800 147.400 C 10.580 147.536,10.400 148.256,10.400 149.000 C 10.400 149.744,10.220 150.464,10.000 150.600 C 9.780 150.736,9.600 151.388,9.600 152.050 C 9.600 152.711,9.423 153.584,9.206 153.988 C 8.990 154.393,8.694 156.001,8.549 157.562 C 8.404 159.123,8.131 160.400,7.943 160.400 C 7.754 160.400,7.600 161.300,7.600 162.400 C 7.600 163.500,7.420 164.400,7.200 164.400 C 6.978 164.400,6.800 165.467,6.800 166.800 C 6.800 168.133,6.622 169.200,6.400 169.200 C 6.171 169.200,6.000 170.400,6.000 172.000 C 6.000 173.600,5.829 174.800,5.600 174.800 C 5.363 174.800,5.200 176.259,5.200 178.376 C 5.200 180.343,5.020 182.064,4.800 182.200 C 4.543 182.359,4.400 188.730,4.400 200.000 C 4.400 211.270,4.543 217.641,4.800 217.800 C 5.020 217.936,5.200 219.657,5.200 221.624 C 5.200 223.741,5.363 225.200,5.600 225.200 C 5.829 225.200,6.000 226.400,6.000 228.000 C 6.000 229.600,6.171 230.800,6.400 230.800 C 6.622 230.800,6.800 231.867,6.800 233.200 C 6.800 234.533,6.978 235.600,7.200 235.600 C 7.420 235.600,7.600 236.500,7.600 237.600 C 7.600 238.700,7.754 239.600,7.943 239.600 C 8.131 239.600,8.404 240.877,8.549 242.438 C 8.694 243.999,8.990 245.607,9.206 246.012 C 9.423 246.416,9.600 247.289,9.600 247.950 C 9.600 248.612,9.780 249.264,10.000 249.400 C 10.220 249.536,10.400 250.256,10.400 251.000 C 10.400 251.744,10.580 252.464,10.800 252.600 C 11.020 252.736,11.200 253.276,11.200 253.800 C 11.200 254.324,11.380 254.864,11.600 255.000 C 11.820 255.136,12.000 255.867,12.000 256.624 C 12.000 257.381,12.180 258.000,12.400 258.000 C 12.620 258.000,12.800 258.540,12.800 259.200 C 12.800 259.860,12.980 260.400,13.200 260.400 C 13.420 260.400,13.600 260.940,13.600 261.600 C 13.600 262.260,13.780 262.800,14.000 262.800 C 14.220 262.800,14.400 263.340,14.400 264.000 C 14.400 264.660,14.580 265.200,14.800 265.200 C 15.020 265.200,15.200 265.639,15.200 266.176 C 15.200 266.713,15.380 267.264,15.600 267.400 C 15.820 267.536,16.000 267.997,16.000 268.424 C 16.000 268.851,16.180 269.200,16.400 269.200 C 16.620 269.200,16.800 269.740,16.800 270.400 C 16.800 271.060,16.980 271.600,17.200 271.600 C 17.420 271.600,17.600 272.050,17.600 272.600 C 17.600 273.150,17.780 273.600,18.000 273.600 C 18.220 273.600,18.400 273.960,18.400 274.400 C 18.400 274.840,18.580 275.200,18.800 275.200 C 19.020 275.200,19.200 275.549,19.200 275.976 C 19.200 276.403,19.380 276.864,19.600 277.000 C 19.820 277.136,20.000 277.687,20.000 278.224 C 20.000 278.761,20.180 279.200,20.400 279.200 C 20.620 279.200,20.800 279.560,20.800 280.000 C 20.800 280.440,20.980 280.800,21.200 280.800 C 21.420 280.800,21.600 281.160,21.600 281.600 C 21.600 282.040,21.780 282.400,22.000 282.400 C 22.220 282.400,22.400 282.760,22.400 283.200 C 22.400 283.640,22.580 284.000,22.800 284.000 C 23.020 284.000,23.200 284.360,23.200 284.800 C 23.200 285.240,23.380 285.600,23.600 285.600 C 23.820 285.600,24.000 285.960,24.000 286.400 C 24.000 286.840,24.180 287.200,24.400 287.200 C 24.620 287.200,24.800 287.464,24.800 287.786 C 24.800 288.510,26.089 291.351,26.500 291.533 C 26.665 291.607,26.800 292.012,26.800 292.433 C 26.800 292.855,26.980 293.200,27.200 293.200 C 27.420 293.200,27.600 293.560,27.600 294.000 C 27.600 294.440,27.780 294.800,28.000 294.800 C 28.220 294.800,28.400 295.036,28.400 295.325 C 28.400 295.613,28.760 296.236,29.200 296.708 C 29.640 297.180,30.000 297.844,30.000 298.183 C 30.000 298.522,30.180 298.800,30.400 298.800 C 30.620 298.800,30.800 299.160,30.800 299.600 C 30.800 300.040,30.980 300.400,31.200 300.400 C 31.420 300.400,31.600 300.636,31.600 300.925 C 31.600 301.213,31.960 301.836,32.400 302.308 C 32.840 302.780,33.200 303.320,33.200 303.508 C 33.200 303.696,33.515 304.198,33.900 304.625 C 34.285 305.051,34.854 305.892,35.164 306.493 C 35.474 307.095,36.059 307.942,36.464 308.377 C 36.869 308.811,37.200 309.372,37.200 309.623 C 37.200 309.874,37.740 310.583,38.400 311.200 C 39.060 311.817,39.600 312.543,39.600 312.814 C 39.600 313.084,39.917 313.597,40.306 313.953 C 40.694 314.309,41.364 315.275,41.796 316.100 C 42.228 316.925,42.709 317.600,42.864 317.600 C 43.019 317.600,43.249 317.923,43.374 318.317 C 43.499 318.712,44.231 319.702,45.001 320.518 C 45.770 321.334,46.400 322.099,46.400 322.218 C 46.400 322.337,47.055 323.143,47.856 324.009 C 48.657 324.875,49.596 325.992,49.942 326.491 C 50.288 326.991,51.433 328.243,52.486 329.274 C 53.539 330.305,54.400 331.342,54.400 331.580 C 54.400 332.144,67.856 345.600,68.420 345.600 C 68.658 345.600,69.695 346.461,70.726 347.514 C 71.757 348.567,73.009 349.712,73.509 350.058 C 74.008 350.404,75.125 351.343,75.991 352.144 C 76.857 352.945,77.663 353.600,77.782 353.600 C 77.901 353.600,78.666 354.230,79.482 354.999 C 80.298 355.769,81.288 356.501,81.683 356.626 C 82.077 356.751,82.400 356.981,82.400 357.136 C 82.400 357.291,83.075 357.772,83.900 358.204 C 84.725 358.636,85.691 359.306,86.047 359.694 C 86.403 360.083,86.916 360.400,87.186 360.400 C 87.457 360.400,88.183 360.940,88.800 361.600 C 89.417 362.260,90.209 362.800,90.560 362.800 C 90.912 362.800,91.200 362.980,91.200 363.200 C 91.200 363.420,91.470 363.600,91.800 363.600 C 92.130 363.600,92.400 363.750,92.400 363.932 C 92.400 364.115,92.895 364.520,93.500 364.832 C 94.105 365.145,94.949 365.715,95.375 366.100 C 95.802 366.485,96.304 366.800,96.492 366.800 C 96.680 366.800,97.220 367.160,97.692 367.600 C 98.164 368.040,98.787 368.400,99.075 368.400 C 99.364 368.400,99.600 368.580,99.600 368.800 C 99.600 369.020,99.960 369.200,100.400 369.200 C 100.840 369.200,101.200 369.380,101.200 369.600 C 101.200 369.820,101.478 370.000,101.817 370.000 C 102.156 370.000,102.820 370.360,103.292 370.800 C 103.764 371.240,104.387 371.600,104.675 371.600 C 104.964 371.600,105.200 371.780,105.200 372.000 C 105.200 372.220,105.560 372.400,106.000 372.400 C 106.440 372.400,106.800 372.580,106.800 372.800 C 106.800 373.020,107.160 373.200,107.600 373.200 C 108.040 373.200,108.400 373.366,108.400 373.568 C 108.400 373.771,108.938 374.055,109.595 374.199 C 110.253 374.343,110.894 374.628,111.019 374.831 C 111.145 375.034,111.597 375.200,112.024 375.200 C 112.451 375.200,112.800 375.380,112.800 375.600 C 112.800 375.820,113.160 376.000,113.600 376.000 C 114.040 376.000,114.400 376.180,114.400 376.400 C 114.400 376.620,114.760 376.800,115.200 376.800 C 115.640 376.800,116.000 376.980,116.000 377.200 C 116.000 377.420,116.360 377.600,116.800 377.600 C 117.240 377.600,117.600 377.780,117.600 378.000 C 117.600 378.220,117.960 378.400,118.400 378.400 C 118.840 378.400,119.200 378.580,119.200 378.800 C 119.200 379.020,119.560 379.200,120.000 379.200 C 120.440 379.200,120.800 379.380,120.800 379.600 C 120.800 379.820,121.239 380.000,121.776 380.000 C 122.313 380.000,122.864 380.180,123.000 380.400 C 123.136 380.620,123.597 380.800,124.024 380.800 C 124.451 380.800,124.800 380.980,124.800 381.200 C 124.800 381.420,125.160 381.600,125.600 381.600 C 126.040 381.600,126.400 381.780,126.400 382.000 C 126.400 382.220,126.850 382.400,127.400 382.400 C 127.950 382.400,128.400 382.580,128.400 382.800 C 128.400 383.020,128.940 383.200,129.600 383.200 C 130.260 383.200,130.800 383.380,130.800 383.600 C 130.800 383.820,131.149 384.000,131.576 384.000 C 132.003 384.000,132.464 384.180,132.600 384.400 C 132.736 384.620,133.287 384.800,133.824 384.800 C 134.361 384.800,134.800 384.980,134.800 385.200 C 134.800 385.420,135.340 385.600,136.000 385.600 C 136.660 385.600,137.200 385.780,137.200 386.000 C 137.200 386.220,137.740 386.400,138.400 386.400 C 139.060 386.400,139.600 386.580,139.600 386.800 C 139.600 387.020,140.129 387.200,140.776 387.200 C 141.423 387.200,142.064 387.380,142.200 387.600 C 142.336 387.820,142.889 388.000,143.429 388.000 C 143.969 388.000,144.723 388.158,145.105 388.351 C 146.261 388.935,148.604 389.600,149.505 389.600 C 149.971 389.600,150.452 389.761,150.574 389.958 C 150.695 390.155,151.471 390.418,152.297 390.544 C 153.124 390.670,155.150 390.976,156.800 391.223 C 158.450 391.470,160.113 391.836,160.495 392.036 C 160.877 392.236,161.912 392.400,162.795 392.400 C 163.678 392.400,164.400 392.580,164.400 392.800 C 164.400 393.022,165.467 393.200,166.800 393.200 C 168.133 393.200,169.200 393.378,169.200 393.600 C 169.200 393.829,170.400 394.000,172.000 394.000 C 173.600 394.000,174.800 394.171,174.800 394.400 C 174.800 394.639,176.333 394.800,178.600 394.800 C 180.867 394.800,182.400 394.961,182.400 395.200 C 182.400 395.461,188.533 395.600,200.000 395.600 C 211.467 395.600,217.600 395.461,217.600 395.200 C 217.600 394.961,219.133 394.800,221.400 394.800 C 223.667 394.800,225.200 394.639,225.200 394.400 C 225.200 394.171,226.400 394.000,228.000 394.000 C 229.600 394.000,230.800 393.829,230.800 393.600 C 230.800 393.378,231.867 393.200,233.200 393.200 C 234.533 393.200,235.600 393.022,235.600 392.800 C 235.600 392.580,236.500 392.400,237.600 392.400 C 238.700 392.400,239.600 392.246,239.600 392.057 C 239.600 391.869,240.877 391.596,242.438 391.451 C 243.999 391.306,245.607 391.010,246.012 390.794 C 246.416 390.577,247.289 390.400,247.950 390.400 C 248.612 390.400,249.264 390.220,249.400 390.000 C 249.536 389.780,250.256 389.600,251.000 389.600 C 251.744 389.600,252.464 389.420,252.600 389.200 C 252.736 388.980,253.276 388.800,253.800 388.800 C 254.324 388.800,254.864 388.620,255.000 388.400 C 255.136 388.180,255.867 388.000,256.624 388.000 C 257.381 388.000,258.000 387.820,258.000 387.600 C 258.000 387.380,258.540 387.200,259.200 387.200 C 259.860 387.200,260.400 387.020,260.400 386.800 C 260.400 386.580,260.940 386.400,261.600 386.400 C 262.260 386.400,262.800 386.220,262.800 386.000 C 262.800 385.780,263.340 385.600,264.000 385.600 C 264.660 385.600,265.200 385.420,265.200 385.200 C 265.200 384.980,265.639 384.800,266.176 384.800 C 266.713 384.800,267.264 384.620,267.400 384.400 C 267.536 384.180,267.997 384.000,268.424 384.000 C 268.851 384.000,269.200 383.820,269.200 383.600 C 269.200 383.380,269.740 383.200,270.400 383.200 C 271.060 383.200,271.600 383.020,271.600 382.800 C 271.600 382.580,271.949 382.400,272.376 382.400 C 272.803 382.400,273.264 382.220,273.400 382.000 C 273.536 381.780,273.997 381.600,274.424 381.600 C 274.851 381.600,275.200 381.420,275.200 381.200 C 275.200 380.980,275.549 380.800,275.976 380.800 C 276.403 380.800,276.864 380.620,277.000 380.400 C 277.136 380.180,277.687 380.000,278.224 380.000 C 278.761 380.000,279.200 379.820,279.200 379.600 C 279.200 379.380,279.560 379.200,280.000 379.200 C 280.440 379.200,280.800 379.020,280.800 378.800 C 280.800 378.580,281.160 378.400,281.600 378.400 C 282.040 378.400,282.400 378.220,282.400 378.000 C 282.400 377.780,282.760 377.600,283.200 377.600 C 283.640 377.600,284.000 377.420,284.000 377.200 C 284.000 376.980,284.360 376.800,284.800 376.800 C 285.240 376.800,285.600 376.620,285.600 376.400 C 285.600 376.180,285.960 376.000,286.400 376.000 C 286.840 376.000,287.200 375.820,287.200 375.600 C 287.200 375.380,287.464 375.200,287.786 375.200 C 288.510 375.200,291.351 373.911,291.533 373.500 C 291.607 373.335,292.012 373.200,292.433 373.200 C 292.855 373.200,293.200 373.020,293.200 372.800 C 293.200 372.580,293.560 372.400,294.000 372.400 C 294.440 372.400,294.800 372.220,294.800 372.000 C 294.800 371.780,295.036 371.600,295.325 371.600 C 295.613 371.600,296.236 371.240,296.708 370.800 C 297.180 370.360,297.844 370.000,298.183 370.000 C 298.522 370.000,298.800 369.820,298.800 369.600 C 298.800 369.380,299.160 369.200,299.600 369.200 C 300.040 369.200,300.400 369.020,300.400 368.800 C 300.400 368.580,300.636 368.400,300.925 368.400 C 301.213 368.400,301.836 368.040,302.308 367.600 C 302.780 367.160,303.378 366.800,303.636 366.800 C 303.895 366.800,304.397 366.484,304.753 366.097 C 305.109 365.711,305.892 365.142,306.493 364.833 C 307.095 364.525,307.942 363.941,308.377 363.536 C 308.811 363.131,309.327 362.800,309.524 362.800 C 309.721 362.800,310.446 362.260,311.137 361.600 C 311.828 360.940,312.625 360.400,312.908 360.400 C 313.191 360.400,313.683 360.040,314.000 359.600 C 314.317 359.160,314.814 358.800,315.105 358.800 C 315.396 358.800,315.851 358.617,316.117 358.393 C 317.894 356.894,318.554 356.400,318.778 356.400 C 318.918 356.400,319.701 355.770,320.518 355.000 C 321.334 354.230,322.120 353.600,322.263 353.600 C 322.407 353.600,323.231 352.880,324.093 352.000 C 324.956 351.120,325.812 350.400,325.996 350.400 C 326.180 350.400,327.427 349.320,328.768 348.000 C 330.108 346.680,331.292 345.600,331.398 345.600 C 332.216 345.600,345.600 332.193,345.600 331.373 C 345.600 331.254,346.680 330.096,348.000 328.800 C 349.320 327.504,350.400 326.268,350.400 326.053 C 350.400 325.838,351.120 324.956,352.000 324.093 C 352.880 323.231,353.600 322.407,353.600 322.263 C 353.600 322.120,354.230 321.334,355.000 320.518 C 355.770 319.701,356.400 318.918,356.400 318.778 C 356.400 318.554,356.894 317.894,358.393 316.117 C 358.617 315.851,358.800 315.396,358.800 315.105 C 358.800 314.814,359.160 314.317,359.600 314.000 C 360.040 313.683,360.400 313.191,360.400 312.908 C 360.400 312.625,360.940 311.828,361.600 311.137 C 362.260 310.446,362.800 309.638,362.800 309.341 C 362.800 309.043,362.980 308.800,363.200 308.800 C 363.420 308.800,363.600 308.530,363.600 308.200 C 363.600 307.870,363.750 307.600,363.932 307.600 C 364.115 307.600,364.520 307.105,364.832 306.500 C 365.145 305.895,365.715 305.051,366.100 304.625 C 366.485 304.198,366.800 303.696,366.800 303.508 C 366.800 303.320,367.160 302.780,367.600 302.308 C 368.040 301.836,368.400 301.213,368.400 300.925 C 368.400 300.636,368.580 300.400,368.800 300.400 C 369.020 300.400,369.200 300.040,369.200 299.600 C 369.200 299.160,369.380 298.800,369.600 298.800 C 369.820 298.800,370.000 298.522,370.000 298.183 C 370.000 297.844,370.360 297.180,370.800 296.708 C 371.240 296.236,371.600 295.613,371.600 295.325 C 371.600 295.036,371.780 294.800,372.000 294.800 C 372.220 294.800,372.400 294.440,372.400 294.000 C 372.400 293.560,372.580 293.200,372.800 293.200 C 373.020 293.200,373.200 292.855,373.200 292.433 C 373.200 292.012,373.335 291.607,373.500 291.533 C 373.911 291.351,375.200 288.510,375.200 287.786 C 375.200 287.464,375.380 287.200,375.600 287.200 C 375.820 287.200,376.000 286.840,376.000 286.400 C 376.000 285.960,376.180 285.600,376.400 285.600 C 376.620 285.600,376.800 285.240,376.800 284.800 C 376.800 284.360,376.980 284.000,377.200 284.000 C 377.420 284.000,377.600 283.640,377.600 283.200 C 377.600 282.760,377.780 282.400,378.000 282.400 C 378.220 282.400,378.400 282.040,378.400 281.600 C 378.400 281.160,378.580 280.800,378.800 280.800 C 379.020 280.800,379.200 280.440,379.200 280.000 C 379.200 279.560,379.380 279.200,379.600 279.200 C 379.820 279.200,380.000 278.761,380.000 278.224 C 380.000 277.687,380.180 277.136,380.400 277.000 C 380.620 276.864,380.800 276.403,380.800 275.976 C 380.800 275.549,380.980 275.200,381.200 275.200 C 381.420 275.200,381.600 274.840,381.600 274.400 C 381.600 273.960,381.780 273.600,382.000 273.600 C 382.220 273.600,382.400 273.150,382.400 272.600 C 382.400 272.050,382.580 271.600,382.800 271.600 C 383.020 271.600,383.200 271.060,383.200 270.400 C 383.200 269.740,383.380 269.200,383.600 269.200 C 383.820 269.200,384.000 268.851,384.000 268.424 C 384.000 267.997,384.180 267.536,384.400 267.400 C 384.620 267.264,384.800 266.713,384.800 266.176 C 384.800 265.639,384.980 265.200,385.200 265.200 C 385.420 265.200,385.600 264.660,385.600 264.000 C 385.600 263.340,385.780 262.800,386.000 262.800 C 386.220 262.800,386.400 262.260,386.400 261.600 C 386.400 260.940,386.580 260.400,386.800 260.400 C 387.020 260.400,387.200 259.860,387.200 259.200 C 387.200 258.540,387.380 258.000,387.600 258.000 C 387.820 258.000,388.000 257.381,388.000 256.624 C 388.000 255.867,388.180 255.136,388.400 255.000 C 388.620 254.864,388.800 254.324,388.800 253.800 C 388.800 253.276,388.980 252.736,389.200 252.600 C 389.420 252.464,389.600 251.744,389.600 251.000 C 389.600 250.256,389.780 249.536,390.000 249.400 C 390.220 249.264,390.400 248.612,390.400 247.950 C 390.400 247.289,390.577 246.416,390.794 246.012 C 391.010 245.607,391.306 243.999,391.451 242.438 C 391.596 240.877,391.869 239.600,392.057 239.600 C 392.246 239.600,392.400 238.700,392.400 237.600 C 392.400 236.500,392.580 235.600,392.800 235.600 C 393.022 235.600,393.200 234.533,393.200 233.200 C 393.200 231.867,393.378 230.800,393.600 230.800 C 393.829 230.800,394.000 229.600,394.000 228.000 C 394.000 226.400,394.171 225.200,394.400 225.200 C 394.637 225.200,394.800 223.741,394.800 221.624 C 394.800 219.657,394.980 217.936,395.200 217.800 C 395.457 217.641,395.600 211.270,395.600 200.000 C 395.600 188.730,395.457 182.359,395.200 182.200 C 394.980 182.064,394.800 180.343,394.800 178.376 C 394.800 176.259,394.637 174.800,394.400 174.800 C 394.171 174.800,394.000 173.600,394.000 172.000 C 394.000 170.400,393.829 169.200,393.600 169.200 C 393.378 169.200,393.200 168.133,393.200 166.800 C 393.200 165.467,393.022 164.400,392.800 164.400 C 392.580 164.400,392.400 163.500,392.400 162.400 C 392.400 161.300,392.246 160.400,392.057 160.400 C 391.869 160.400,391.596 159.123,391.451 157.562 C 391.306 156.001,391.010 154.393,390.794 153.988 C 390.577 153.584,390.400 152.711,390.400 152.050 C 390.400 151.388,390.220 150.736,390.000 150.600 C 389.780 150.464,389.600 149.744,389.600 149.000 C 389.600 148.256,389.420 147.536,389.200 147.400 C 388.980 147.264,388.800 146.724,388.800 146.200 C 388.800 145.676,388.620 145.136,388.400 145.000 C 388.180 144.864,388.000 144.133,388.000 143.376 C 388.000 142.619,387.820 142.000,387.600 142.000 C 387.380 142.000,387.200 141.460,387.200 140.800 C 387.200 140.140,387.020 139.600,386.800 139.600 C 386.580 139.600,386.400 139.060,386.400 138.400 C 386.400 137.740,386.220 137.200,386.000 137.200 C 385.780 137.200,385.600 136.660,385.600 136.000 C 385.600 135.340,385.420 134.800,385.200 134.800 C 384.980 134.800,384.800 134.361,384.800 133.824 C 384.800 133.287,384.620 132.736,384.400 132.600 C 384.180 132.464,384.000 132.003,384.000 131.576 C 384.000 131.149,383.820 130.800,383.600 130.800 C 383.380 130.800,383.200 130.260,383.200 129.600 C 383.200 128.940,383.020 128.400,382.800 128.400 C 382.580 128.400,382.400 127.950,382.400 127.400 C 382.400 126.850,382.220 126.400,382.000 126.400 C 381.780 126.400,381.600 126.040,381.600 125.600 C 381.600 125.160,381.420 124.800,381.200 124.800 C 380.980 124.800,380.800 124.451,380.800 124.024 C 380.800 123.597,380.620 123.136,380.400 123.000 C 380.180 122.864,380.000 122.313,380.000 121.776 C 380.000 121.239,379.820 120.800,379.600 120.800 C 379.380 120.800,379.200 120.440,379.200 120.000 C 379.200 119.560,379.020 119.200,378.800 119.200 C 378.580 119.200,378.400 118.840,378.400 118.400 C 378.400 117.960,378.220 117.600,378.000 117.600 C 377.780 117.600,377.600 117.240,377.600 116.800 C 377.600 116.360,377.420 116.000,377.200 116.000 C 376.980 116.000,376.800 115.640,376.800 115.200 C 376.800 114.760,376.620 114.400,376.400 114.400 C 376.180 114.400,376.000 114.040,376.000 113.600 C 376.000 113.160,375.820 112.800,375.600 112.800 C 375.380 112.800,375.200 112.536,375.200 112.214 C 375.200 111.490,373.911 108.649,373.500 108.467 C 373.335 108.393,373.200 107.988,373.200 107.567 C 373.200 107.145,373.020 106.800,372.800 106.800 C 372.580 106.800,372.400 106.440,372.400 106.000 C 372.400 105.560,372.220 105.200,372.000 105.200 C 371.780 105.200,371.600 104.964,371.600 104.675 C 371.600 104.387,371.240 103.764,370.800 103.292 C 370.360 102.820,370.000 102.156,370.000 101.817 C 370.000 101.478,369.820 101.200,369.600 101.200 C 369.380 101.200,369.200 100.840,369.200 100.400 C 369.200 99.960,369.020 99.600,368.800 99.600 C 368.580 99.600,368.400 99.364,368.400 99.075 C 368.400 98.787,368.085 98.202,367.700 97.775 C 367.315 97.349,366.745 96.505,366.432 95.900 C 366.120 95.295,365.715 94.800,365.532 94.800 C 365.350 94.800,365.200 94.564,365.200 94.275 C 365.200 93.987,364.840 93.364,364.400 92.892 C 363.960 92.420,363.600 91.846,363.600 91.617 C 363.600 91.388,363.420 91.200,363.200 91.200 C 362.980 91.200,362.800 90.912,362.800 90.560 C 362.800 90.209,362.260 89.417,361.600 88.800 C 360.940 88.183,360.400 87.431,360.400 87.128 C 360.400 86.825,360.040 86.317,359.600 86.000 C 359.160 85.683,358.800 85.186,358.800 84.895 C 358.800 84.604,358.617 84.149,358.393 83.883 C 356.894 82.106,356.400 81.446,356.400 81.222 C 356.400 81.082,355.770 80.299,355.000 79.482 C 354.230 78.666,353.600 77.855,353.600 77.680 C 353.600 77.505,352.880 76.659,352.000 75.800 C 351.120 74.941,350.400 74.084,350.400 73.897 C 350.400 73.709,349.320 72.496,348.000 71.200 C 346.680 69.904,345.600 68.746,345.600 68.627 C 345.600 67.920,332.259 54.400,331.561 54.400 C 331.338 54.400,330.096 53.320,328.800 52.000 C 327.504 50.680,326.318 49.600,326.164 49.600 C 326.009 49.600,325.047 48.835,324.025 47.900 C 322.007 46.053,319.471 44.020,318.446 43.426 C 318.091 43.220,317.581 42.860,317.314 42.626 C 315.954 41.434,315.591 41.200,315.105 41.200 C 314.814 41.200,314.317 40.840,314.000 40.400 C 313.683 39.960,313.175 39.600,312.872 39.600 C 312.569 39.600,311.817 39.060,311.200 38.400 C 310.583 37.740,309.874 37.200,309.623 37.200 C 309.372 37.200,308.811 36.869,308.377 36.464 C 307.942 36.059,307.095 35.475,306.493 35.167 C 305.892 34.858,305.109 34.289,304.753 33.903 C 304.397 33.516,303.895 33.200,303.636 33.200 C 303.378 33.200,302.780 32.840,302.308 32.400 C 301.836 31.960,301.213 31.600,300.925 31.600 C 300.636 31.600,300.400 31.420,300.400 31.200 C 300.400 30.980,300.040 30.800,299.600 30.800 C 299.160 30.800,298.800 30.620,298.800 30.400 C 298.800 30.180,298.522 30.000,298.183 30.000 C 297.844 30.000,297.180 29.640,296.708 29.200 C 296.236 28.760,295.613 28.400,295.325 28.400 C 295.036 28.400,294.800 28.220,294.800 28.000 C 294.800 27.780,294.440 27.600,294.000 27.600 C 293.560 27.600,293.200 27.420,293.200 27.200 C 293.200 26.980,292.855 26.800,292.433 26.800 C 292.012 26.800,291.607 26.665,291.533 26.500 C 291.351 26.089,288.510 24.800,287.786 24.800 C 287.464 24.800,287.200 24.620,287.200 24.400 C 287.200 24.180,286.840 24.000,286.400 24.000 C 285.960 24.000,285.600 23.820,285.600 23.600 C 285.600 23.380,285.240 23.200,284.800 23.200 C 284.360 23.200,284.000 23.020,284.000 22.800 C 284.000 22.580,283.640 22.400,283.200 22.400 C 282.760 22.400,282.400 22.220,282.400 22.000 C 282.400 21.780,282.040 21.600,281.600 21.600 C 281.160 21.600,280.800 21.420,280.800 21.200 C 280.800 20.980,280.440 20.800,280.000 20.800 C 279.560 20.800,279.200 20.620,279.200 20.400 C 279.200 20.180,278.761 20.000,278.224 20.000 C 277.687 20.000,277.136 19.820,277.000 19.600 C 276.864 19.380,276.403 19.200,275.976 19.200 C 275.549 19.200,275.200 19.020,275.200 18.800 C 275.200 18.580,274.840 18.400,274.400 18.400 C 273.960 18.400,273.600 18.220,273.600 18.000 C 273.600 17.780,273.150 17.600,272.600 17.600 C 272.050 17.600,271.600 17.420,271.600 17.200 C 271.600 16.980,271.060 16.800,270.400 16.800 C 269.740 16.800,269.200 16.620,269.200 16.400 C 269.200 16.180,268.840 16.000,268.400 16.000 C 267.960 16.000,267.600 15.820,267.600 15.600 C 267.600 15.380,267.060 15.200,266.400 15.200 C 265.740 15.200,265.200 15.020,265.200 14.800 C 265.200 14.580,264.660 14.400,264.000 14.400 C 263.340 14.400,262.800 14.220,262.800 14.000 C 262.800 13.780,262.260 13.600,261.600 13.600 C 260.940 13.600,260.400 13.420,260.400 13.200 C 260.400 12.980,259.860 12.800,259.200 12.800 C 258.540 12.800,258.000 12.620,258.000 12.400 C 258.000 12.180,257.471 12.000,256.824 12.000 C 256.177 12.000,255.536 11.820,255.400 11.600 C 255.264 11.380,254.634 11.200,254.000 11.200 C 253.366 11.200,252.736 11.020,252.600 10.800 C 252.464 10.580,251.744 10.400,251.000 10.400 C 250.256 10.400,249.536 10.220,249.400 10.000 C 249.264 9.780,248.612 9.600,247.950 9.600 C 247.289 9.600,246.416 9.423,246.012 9.206 C 245.607 8.990,243.999 8.694,242.438 8.549 C 240.877 8.404,239.600 8.131,239.600 7.943 C 239.600 7.754,238.700 7.600,237.600 7.600 C 236.500 7.600,235.600 7.420,235.600 7.200 C 235.600 6.978,234.533 6.800,233.200 6.800 C 231.867 6.800,230.800 6.622,230.800 6.400 C 230.800 6.171,229.600 6.000,228.000 6.000 C 226.400 6.000,225.200 5.829,225.200 5.600 C 225.200 5.361,223.667 5.200,221.400 5.200 C 219.133 5.200,217.600 5.039,217.600 4.800 C 217.600 4.539,211.467 4.400,200.000 4.400 C 188.533 4.400,182.400 4.539,182.400 4.800 M217.600 98.400 C 217.600 98.637,219.067 98.800,221.200 98.800 C 223.333 98.800,224.800 98.963,224.800 99.200 C 224.800 99.420,225.599 99.600,226.576 99.600 C 227.553 99.600,228.464 99.780,228.600 100.000 C 228.736 100.220,229.456 100.400,230.200 100.400 C 230.944 100.400,231.664 100.580,231.800 100.800 C 231.936 101.020,232.667 101.200,233.424 101.200 C 234.181 101.200,234.800 101.380,234.800 101.600 C 234.800 101.820,235.340 102.000,236.000 102.000 C 236.660 102.000,237.200 102.180,237.200 102.400 C 237.200 102.620,237.740 102.800,238.400 102.800 C 239.060 102.800,239.600 102.980,239.600 103.200 C 239.600 103.420,239.960 103.600,240.400 103.600 C 240.840 103.600,241.200 103.780,241.200 104.000 C 241.200 104.220,241.543 104.400,241.962 104.400 C 242.629 104.400,245.853 105.853,246.400 106.400 C 246.510 106.510,247.635 107.125,248.900 107.767 C 250.165 108.408,251.200 109.083,251.200 109.267 C 251.200 109.450,251.520 109.600,251.912 109.600 C 252.303 109.600,252.883 109.960,253.200 110.400 C 253.517 110.840,254.015 111.200,254.305 111.200 C 254.975 111.200,264.400 120.760,264.400 121.439 C 264.400 121.559,264.625 121.894,264.900 122.184 C 266.040 123.385,266.800 124.433,266.800 124.805 C 266.800 125.022,266.980 125.200,267.200 125.200 C 267.420 125.200,267.600 125.560,267.600 126.000 C 267.600 126.440,267.780 126.800,268.000 126.800 C 268.220 126.800,268.404 127.025,268.409 127.300 C 268.414 127.575,268.770 128.250,269.200 128.800 C 269.630 129.350,269.986 130.205,269.991 130.700 C 269.996 131.195,270.180 131.600,270.400 131.600 C 270.620 131.600,270.800 131.960,270.800 132.400 C 270.800 132.840,270.980 133.200,271.200 133.200 C 271.420 133.200,271.600 133.740,271.600 134.400 C 271.600 135.060,271.780 135.600,272.000 135.600 C 272.220 135.600,272.400 136.129,272.400 136.776 C 272.400 137.423,272.580 138.064,272.800 138.200 C 273.020 138.336,273.200 139.157,273.200 140.024 C 273.200 140.891,273.380 141.600,273.600 141.600 C 273.854 141.600,274.000 144.667,274.000 150.000 C 274.000 155.333,273.854 158.400,273.600 158.400 C 273.380 158.400,273.200 159.019,273.200 159.776 C 273.200 160.533,273.020 161.264,272.800 161.400 C 272.580 161.536,272.400 162.267,272.400 163.024 C 272.400 163.781,272.220 164.400,272.000 164.400 C 271.780 164.400,271.600 164.940,271.600 165.600 C 271.600 166.260,271.420 166.800,271.200 166.800 C 270.980 166.800,270.800 167.160,270.800 167.600 C 270.800 168.040,270.620 168.400,270.400 168.400 C 270.180 168.400,270.000 168.760,270.000 169.200 C 270.000 169.640,269.820 170.000,269.600 170.000 C 269.380 170.000,269.200 170.234,269.200 170.520 C 269.200 171.256,268.259 173.193,267.900 173.197 C 267.735 173.199,267.600 173.560,267.600 174.000 C 267.600 174.440,267.420 174.800,267.200 174.800 C 266.980 174.800,266.800 175.070,266.800 175.400 C 266.800 175.730,266.650 176.000,266.468 176.000 C 266.285 176.000,265.880 176.492,265.568 177.093 C 265.255 177.694,264.505 178.711,263.900 179.352 C 263.295 179.994,262.800 180.677,262.800 180.870 C 262.800 181.063,262.035 182.005,261.100 182.963 C 260.165 183.921,258.590 185.620,257.600 186.739 C 256.610 187.858,255.613 188.780,255.384 188.787 C 255.155 188.794,254.172 189.520,253.200 190.400 C 252.228 191.280,251.214 192.000,250.947 192.000 C 250.680 192.000,249.913 192.461,249.243 193.025 C 247.919 194.139,248.176 195.600,249.696 195.600 C 250.083 195.600,250.400 195.780,250.400 196.000 C 250.400 196.220,250.760 196.400,251.200 196.400 C 251.640 196.400,252.000 196.580,252.000 196.800 C 252.000 197.020,252.320 197.200,252.712 197.200 C 253.103 197.200,253.683 197.560,254.000 198.000 C 254.317 198.440,254.857 198.800,255.200 198.800 C 255.543 198.800,256.083 199.160,256.400 199.600 C 256.717 200.040,257.225 200.400,257.528 200.400 C 257.831 200.400,258.583 200.940,259.200 201.600 C 259.817 202.260,260.424 202.800,260.551 202.800 C 260.677 202.800,261.979 203.970,263.445 205.400 C 264.911 206.830,266.253 208.000,266.428 208.000 C 266.603 208.000,266.863 208.369,267.006 208.820 C 267.149 209.271,267.882 210.255,268.633 211.007 C 269.385 211.758,270.000 212.610,270.000 212.898 C 270.000 213.187,270.360 213.683,270.800 214.000 C 271.240 214.317,271.600 214.897,271.600 215.288 C 271.600 215.680,271.780 216.000,272.000 216.000 C 272.220 216.000,272.400 216.236,272.400 216.525 C 272.400 216.813,272.760 217.436,273.200 217.908 C 273.640 218.380,274.000 219.044,274.000 219.383 C 274.000 219.722,274.135 220.002,274.300 220.003 C 274.465 220.005,274.947 221.130,275.370 222.503 C 275.794 223.877,276.267 225.270,276.421 225.600 C 276.977 226.789,277.600 229.074,277.600 229.928 C 277.600 230.408,277.780 230.800,278.000 230.800 C 278.220 230.800,278.400 231.599,278.400 232.576 C 278.400 233.553,278.580 234.464,278.800 234.600 C 279.020 234.736,279.200 236.511,279.200 238.544 C 279.200 240.725,279.382 242.422,279.645 242.685 C 279.927 242.967,279.990 243.767,279.816 244.865 C 279.664 245.819,279.451 248.175,279.342 250.100 C 279.233 252.025,278.976 253.600,278.772 253.600 C 278.567 253.600,278.400 254.309,278.400 255.176 C 278.400 256.043,278.220 256.864,278.000 257.000 C 277.780 257.136,277.600 257.766,277.600 258.400 C 277.600 259.034,277.420 259.664,277.200 259.800 C 276.980 259.936,276.800 260.476,276.800 261.000 C 276.800 261.524,276.620 262.064,276.400 262.200 C 276.180 262.336,276.000 262.776,276.000 263.178 C 276.000 263.580,275.731 264.424,275.402 265.054 C 275.074 265.684,274.804 266.515,274.802 266.900 C 274.801 267.285,274.620 267.600,274.400 267.600 C 274.180 267.600,274.000 267.960,274.000 268.400 C 274.000 268.840,273.820 269.200,273.600 269.200 C 273.380 269.200,273.200 269.478,273.200 269.817 C 273.200 270.156,272.840 270.820,272.400 271.292 C 271.960 271.764,271.600 272.387,271.600 272.675 C 271.600 272.964,271.420 273.200,271.200 273.200 C 270.980 273.200,270.800 273.443,270.800 273.741 C 270.800 274.038,270.260 274.846,269.600 275.537 C 268.940 276.228,268.400 276.894,268.400 277.018 C 268.400 277.343,258.519 287.200,258.193 287.200 C 258.044 287.200,257.417 287.740,256.800 288.400 C 256.183 289.060,255.431 289.600,255.128 289.600 C 254.825 289.600,254.317 289.960,254.000 290.400 C 253.683 290.840,253.103 291.200,252.712 291.200 C 252.320 291.200,252.000 291.366,252.000 291.568 C 252.000 291.771,251.460 292.055,250.800 292.200 C 250.140 292.345,249.600 292.629,249.600 292.832 C 249.600 293.034,249.240 293.200,248.800 293.200 C 248.360 293.200,247.999 293.335,247.997 293.500 C 247.993 293.859,246.056 294.800,245.320 294.800 C 245.034 294.800,244.800 294.980,244.800 295.200 C 244.800 295.420,244.451 295.600,244.024 295.600 C 243.597 295.600,243.136 295.780,243.000 296.000 C 242.864 296.220,242.403 296.400,241.976 296.400 C 241.549 296.400,241.200 296.580,241.200 296.800 C 241.200 297.020,240.660 297.200,240.000 297.200 C 239.340 297.200,238.800 297.380,238.800 297.600 C 238.800 297.820,238.260 298.000,237.600 298.000 C 236.940 298.000,236.400 298.180,236.400 298.400 C 236.400 298.620,235.871 298.800,235.224 298.800 C 234.577 298.800,233.936 298.980,233.800 299.200 C 233.664 299.420,232.854 299.600,232.000 299.600 C 231.146 299.600,230.336 299.780,230.200 300.000 C 230.064 300.220,229.153 300.400,228.176 300.400 C 227.199 300.400,226.400 300.580,226.400 300.800 C 226.400 301.037,224.933 301.200,222.800 301.200 C 220.667 301.200,219.200 301.363,219.200 301.600 C 219.200 301.865,202.400 302.000,169.600 302.000 L 120.000 302.000 120.000 200.000 L 120.000 98.000 168.800 98.000 C 201.067 98.000,217.600 98.136,217.600 98.400 M173.200 159.400 L 173.200 177.600 190.600 177.600 C 201.933 177.600,208.000 177.461,208.000 177.200 C 208.000 176.980,208.720 176.800,209.600 176.800 C 210.480 176.800,211.200 176.620,211.200 176.400 C 211.200 176.180,211.560 176.000,212.000 176.000 C 212.440 176.000,212.800 175.820,212.800 175.600 C 212.800 175.380,213.089 175.200,213.442 175.200 C 214.069 175.200,217.137 173.029,217.665 172.211 C 217.811 171.985,218.396 171.260,218.965 170.600 C 219.534 169.940,219.999 169.175,220.000 168.900 C 220.000 168.625,220.180 168.400,220.400 168.400 C 220.620 168.400,220.800 167.961,220.800 167.424 C 220.800 166.887,220.980 166.336,221.200 166.200 C 221.420 166.064,221.600 165.369,221.600 164.656 C 221.600 163.943,221.794 163.166,222.031 162.929 C 222.741 162.219,221.966 152.674,221.158 152.174 C 220.961 152.052,220.800 151.603,220.800 151.176 C 220.800 150.749,220.620 150.400,220.400 150.400 C 220.180 150.400,220.000 150.040,220.000 149.600 C 220.000 149.160,219.862 148.800,219.694 148.800 C 219.526 148.800,218.953 148.095,218.421 147.234 C 217.889 146.373,216.771 145.248,215.937 144.734 C 215.104 144.220,214.417 143.665,214.411 143.500 C 214.405 143.335,214.040 143.200,213.600 143.200 C 213.160 143.200,212.800 143.031,212.800 142.825 C 212.800 142.618,211.988 142.327,210.995 142.178 C 210.002 142.029,209.092 141.748,208.971 141.554 C 208.850 141.357,200.850 141.200,190.976 141.200 L 173.200 141.200 173.200 159.400 M173.200 237.600 L 173.200 256.800 191.800 256.800 C 203.933 256.800,210.400 256.661,210.400 256.400 C 210.400 256.180,211.019 256.000,211.776 256.000 C 212.533 256.000,213.264 255.820,213.400 255.600 C 213.536 255.380,213.997 255.200,214.424 255.200 C 214.851 255.200,215.200 255.020,215.200 254.800 C 215.200 254.580,215.560 254.400,216.000 254.400 C 216.440 254.400,216.800 254.220,216.800 254.000 C 216.800 253.780,217.058 253.600,217.374 253.600 C 218.121 253.600,222.400 249.321,222.400 248.574 C 222.400 248.258,222.580 248.000,222.800 248.000 C 223.020 248.000,223.200 247.640,223.200 247.200 C 223.200 246.760,223.340 246.400,223.511 246.400 C 225.674 246.400,225.745 232.977,223.605 228.600 C 222.235 225.798,218.481 221.600,217.346 221.600 C 217.046 221.600,216.800 221.420,216.800 221.200 C 216.800 220.980,216.440 220.800,216.000 220.800 C 215.560 220.800,215.200 220.620,215.200 220.400 C 215.200 220.180,214.840 220.000,214.400 220.000 C 213.960 220.000,213.600 219.820,213.600 219.600 C 213.600 219.380,212.981 219.200,212.224 219.200 C 211.467 219.200,210.736 219.020,210.600 218.800 C 210.441 218.543,203.729 218.400,191.776 218.400 L 173.200 218.400 173.200 237.600 " stroke="none" fill="#040404" fill-rule="evenodd"></path><path id="path1" d="" stroke="none" fill="#080404" fill-rule="evenodd"></path></g></svg>