<svg id="svg" version="1.1" xmlns="http://www.w3.org/2000/svg" xmlns:xlink="http://www.w3.org/1999/xlink" width="400" height="400" viewBox="0, 0, 400,400"><g id="svgg"><path id="path0" d="M179.600 4.000 C 179.600 4.237,178.133 4.400,176.000 4.400 C 173.867 4.400,172.400 4.563,172.400 4.800 C 172.400 5.020,171.500 5.200,170.400 5.200 C 168.898 5.200,168.400 5.348,168.400 5.794 C 168.400 6.370,172.178 6.331,174.000 5.737 C 175.817 5.144,190.096 4.423,200.000 4.423 C 213.159 4.424,223.346 5.146,233.000 6.760 C 239.231 7.802,240.460 8.043,241.421 8.408 C 241.988 8.624,243.163 8.800,244.031 8.800 C 244.900 8.800,245.945 9.008,246.352 9.263 C 247.151 9.762,248.400 9.487,248.400 8.813 C 248.400 8.586,247.860 8.400,247.200 8.400 C 246.540 8.400,246.000 8.220,246.000 8.000 C 246.000 7.778,244.933 7.600,243.600 7.600 C 242.267 7.600,241.200 7.422,241.200 7.200 C 241.200 6.980,240.300 6.800,239.200 6.800 C 238.100 6.800,237.200 6.620,237.200 6.400 C 237.200 6.178,236.133 6.000,234.800 6.000 C 233.467 6.000,232.400 5.822,232.400 5.600 C 232.400 5.378,231.333 5.200,230.000 5.200 C 228.667 5.200,227.600 5.022,227.600 4.800 C 227.600 4.560,226.000 4.400,223.600 4.400 C 221.200 4.400,219.600 4.240,219.600 4.000 C 219.600 3.739,212.667 3.600,199.600 3.600 C 186.533 3.600,179.600 3.739,179.600 4.000 M164.400 6.400 C 164.400 6.620,165.120 6.800,166.000 6.800 C 166.880 6.800,167.600 6.620,167.600 6.400 C 167.600 6.180,166.880 6.000,166.000 6.000 C 165.120 6.000,164.400 6.180,164.400 6.400 M159.600 7.452 C 159.600 7.980,159.880 8.059,161.065 7.867 C 163.407 7.487,163.674 6.800,161.480 6.800 C 160.009 6.800,159.600 6.942,159.600 7.452 M154.000 8.000 C 154.000 8.220,153.445 8.400,152.767 8.400 C 151.954 8.400,151.593 8.571,151.707 8.900 C 151.803 9.175,152.313 9.352,152.840 9.294 C 159.153 8.594,161.261 7.600,156.433 7.600 C 155.078 7.600,154.000 7.777,154.000 8.000 M147.600 9.600 C 147.600 9.820,147.060 10.000,146.400 10.000 C 145.740 10.000,145.200 10.186,145.200 10.413 C 145.200 11.085,146.388 11.339,147.327 10.867 C 147.807 10.626,148.726 10.377,149.369 10.314 C 151.259 10.130,151.146 9.200,149.233 9.200 C 148.335 9.200,147.600 9.380,147.600 9.600 M249.298 9.700 C 249.388 9.975,249.988 10.251,250.631 10.314 C 251.274 10.377,252.193 10.626,252.673 10.867 C 253.612 11.339,254.800 11.085,254.800 10.413 C 254.800 10.186,254.260 10.000,253.600 10.000 C 252.940 10.000,252.400 9.820,252.400 9.600 C 252.400 9.380,251.665 9.200,250.767 9.200 C 249.639 9.200,249.184 9.355,249.298 9.700 M142.000 11.200 C 142.000 11.420,141.640 11.600,141.200 11.600 C 140.760 11.600,140.400 11.769,140.400 11.976 C 140.400 12.597,141.201 12.897,141.718 12.470 C 141.983 12.250,142.726 12.010,143.369 11.935 C 145.129 11.732,145.182 10.800,143.433 10.800 C 142.645 10.800,142.000 10.980,142.000 11.200 M255.298 11.300 C 255.388 11.575,255.988 11.861,256.631 11.935 C 257.274 12.010,258.017 12.250,258.282 12.470 C 258.799 12.897,259.600 12.597,259.600 11.976 C 259.600 11.769,259.240 11.600,258.800 11.600 C 258.360 11.600,258.000 11.420,258.000 11.200 C 258.000 10.980,257.355 10.800,256.567 10.800 C 255.599 10.800,255.187 10.962,255.298 11.300 M137.200 12.800 C 137.200 13.020,136.840 13.200,136.400 13.200 C 135.960 13.200,135.600 13.369,135.600 13.576 C 135.600 14.196,136.400 14.497,136.918 14.073 C 137.183 13.855,137.836 13.614,138.369 13.538 C 139.852 13.326,139.905 12.400,138.433 12.400 C 137.755 12.400,137.200 12.580,137.200 12.800 M260.498 12.900 C 260.589 13.175,261.099 13.462,261.631 13.538 C 262.164 13.614,262.817 13.855,263.082 14.073 C 263.600 14.497,264.400 14.196,264.400 13.576 C 264.400 13.369,264.040 13.200,263.600 13.200 C 263.160 13.200,262.800 13.020,262.800 12.800 C 262.800 12.580,262.245 12.400,261.567 12.400 C 260.759 12.400,260.390 12.573,260.498 12.900 M132.400 14.400 C 132.400 14.620,132.040 14.800,131.600 14.800 C 131.160 14.800,130.800 14.980,130.800 15.200 C 130.800 15.420,130.260 15.600,129.600 15.600 C 128.940 15.600,128.400 15.780,128.400 16.000 C 128.400 16.220,128.040 16.400,127.600 16.400 C 126.737 16.400,126.528 16.985,127.235 17.422 C 127.474 17.569,127.870 17.490,128.115 17.245 C 128.360 17.000,128.879 16.800,129.268 16.800 C 129.657 16.800,130.589 16.455,131.339 16.034 C 132.089 15.613,133.115 15.208,133.620 15.134 C 135.066 14.923,135.076 14.000,133.633 14.000 C 132.955 14.000,132.400 14.180,132.400 14.400 M265.300 14.500 C 265.392 14.775,265.707 15.000,266.000 15.000 C 266.293 15.000,266.608 14.775,266.700 14.500 C 266.799 14.203,266.516 14.000,266.000 14.000 C 265.484 14.000,265.201 14.203,265.300 14.500 M267.600 15.171 C 267.600 15.630,269.886 16.800,270.781 16.800 C 271.144 16.800,271.640 17.000,271.885 17.245 C 272.130 17.490,272.526 17.569,272.765 17.422 C 273.472 16.985,273.263 16.400,272.400 16.400 C 271.960 16.400,271.600 16.220,271.600 16.000 C 271.600 15.780,271.060 15.600,270.400 15.600 C 269.740 15.600,269.200 15.420,269.200 15.200 C 269.200 14.980,268.840 14.800,268.400 14.800 C 267.960 14.800,267.600 14.967,267.600 15.171 M124.053 17.848 C 123.618 18.340,123.608 18.562,124.003 18.933 C 124.383 19.290,124.543 19.282,124.683 18.900 C 124.784 18.625,125.212 18.400,125.633 18.400 C 126.055 18.400,126.400 18.130,126.400 17.800 C 126.400 17.009,124.766 17.043,124.053 17.848 M273.600 17.800 C 273.600 18.130,273.945 18.400,274.367 18.400 C 274.788 18.400,275.216 18.625,275.317 18.900 C 275.458 19.286,275.615 19.292,276.004 18.926 C 276.408 18.546,276.384 18.327,275.883 17.826 C 275.083 17.026,273.600 17.009,273.600 17.800 M121.300 19.300 C 121.552 20.057,122.800 20.164,122.800 19.429 C 122.800 19.058,122.458 18.800,121.967 18.800 C 121.478 18.800,121.202 19.007,121.300 19.300 M277.200 19.429 C 277.200 19.802,277.472 20.006,277.867 19.929 C 278.870 19.735,279.008 18.800,278.033 18.800 C 277.542 18.800,277.200 19.058,277.200 19.429 M119.692 20.075 C 119.939 20.817,120.800 20.940,120.800 20.233 C 120.800 19.885,120.515 19.600,120.167 19.600 C 119.818 19.600,119.605 19.814,119.692 20.075 M279.200 20.233 C 279.200 20.940,280.061 20.817,280.308 20.075 C 280.395 19.814,280.182 19.600,279.833 19.600 C 279.485 19.600,279.200 19.885,279.200 20.233 M116.853 21.048 C 116.418 21.540,116.408 21.762,116.803 22.133 C 117.183 22.490,117.343 22.482,117.483 22.100 C 117.584 21.825,118.012 21.600,118.433 21.600 C 118.855 21.600,119.200 21.330,119.200 21.000 C 119.200 20.209,117.566 20.243,116.853 21.048 M280.800 21.000 C 280.800 21.330,281.145 21.600,281.567 21.600 C 281.988 21.600,282.416 21.825,282.517 22.100 C 282.658 22.486,282.815 22.492,283.204 22.126 C 283.608 21.746,283.584 21.527,283.083 21.026 C 282.283 20.226,280.800 20.209,280.800 21.000 M113.660 22.642 C 112.933 23.463,113.224 23.655,114.736 23.353 C 115.431 23.214,116.000 22.853,116.000 22.550 C 116.000 21.810,114.338 21.875,113.660 22.642 M284.000 22.600 C 284.000 22.930,284.345 23.200,284.767 23.200 C 285.188 23.200,285.616 23.425,285.717 23.700 C 285.858 24.086,286.015 24.092,286.404 23.726 C 286.808 23.346,286.784 23.127,286.283 22.626 C 285.483 21.826,284.000 21.809,284.000 22.600 M110.800 24.000 C 110.800 24.220,110.440 24.400,110.000 24.400 C 109.560 24.400,109.200 24.580,109.200 24.800 C 109.200 25.020,108.840 25.200,108.400 25.200 C 107.960 25.200,107.600 25.380,107.600 25.600 C 107.600 25.820,107.240 26.000,106.800 26.000 C 106.360 26.000,106.000 26.180,106.000 26.400 C 106.000 26.620,105.717 26.800,105.371 26.800 C 105.026 26.800,104.464 27.079,104.124 27.419 C 102.793 28.750,104.173 28.460,107.705 26.666 C 109.737 25.634,111.715 24.792,112.100 24.795 C 112.485 24.798,112.800 24.530,112.800 24.200 C 112.800 23.827,112.422 23.600,111.800 23.600 C 111.250 23.600,110.800 23.780,110.800 24.000 M287.200 24.200 C 287.200 24.530,287.472 24.800,287.805 24.800 C 288.138 24.800,288.723 24.960,289.105 25.155 C 293.336 27.318,296.030 28.503,296.240 28.293 C 296.602 27.931,295.381 26.800,294.629 26.800 C 294.283 26.800,294.000 26.620,294.000 26.400 C 294.000 26.180,293.640 26.000,293.200 26.000 C 292.760 26.000,292.400 25.820,292.400 25.600 C 292.400 25.380,292.040 25.200,291.600 25.200 C 291.160 25.200,290.800 25.020,290.800 24.800 C 290.800 24.580,290.440 24.400,290.000 24.400 C 289.560 24.400,289.200 24.220,289.200 24.000 C 289.200 23.780,288.750 23.600,288.200 23.600 C 287.578 23.600,287.200 23.827,287.200 24.200 M102.000 28.800 C 102.000 29.020,101.640 29.200,101.200 29.200 C 100.760 29.200,100.400 29.380,100.400 29.600 C 100.400 29.820,100.117 30.000,99.771 30.000 C 99.027 30.000,97.796 31.130,98.152 31.485 C 98.527 31.860,103.176 29.473,103.189 28.900 C 103.195 28.625,102.930 28.400,102.600 28.400 C 102.270 28.400,102.000 28.580,102.000 28.800 M296.811 28.900 C 296.824 29.473,301.473 31.860,301.848 31.485 C 302.204 31.130,300.973 30.000,300.229 30.000 C 299.883 30.000,299.600 29.820,299.600 29.600 C 299.600 29.380,299.240 29.200,298.800 29.200 C 298.360 29.200,298.000 29.020,298.000 28.800 C 298.000 28.580,297.730 28.400,297.400 28.400 C 297.070 28.400,296.805 28.625,296.811 28.900 M96.400 32.000 C 96.400 32.220,96.122 32.400,95.782 32.400 C 95.090 32.400,92.996 34.329,93.327 34.661 C 93.643 34.977,95.200 34.405,95.200 33.973 C 95.200 33.768,95.470 33.600,95.800 33.600 C 96.130 33.600,96.400 33.420,96.400 33.200 C 96.400 32.980,96.670 32.800,97.000 32.800 C 97.330 32.800,97.600 32.530,97.600 32.200 C 97.600 31.870,97.330 31.600,97.000 31.600 C 96.670 31.600,96.400 31.780,96.400 32.000 M302.400 32.102 C 302.400 32.379,302.906 32.829,303.525 33.103 C 304.144 33.376,305.036 33.960,305.508 34.400 C 305.980 34.840,306.554 35.200,306.783 35.200 C 307.012 35.200,307.200 35.368,307.200 35.573 C 307.200 36.005,308.757 36.577,309.073 36.261 C 309.380 35.954,307.335 34.000,306.706 34.000 C 306.415 34.000,305.917 33.640,305.600 33.200 C 305.283 32.760,304.703 32.400,304.312 32.400 C 303.920 32.400,303.600 32.220,303.600 32.000 C 303.600 31.780,303.330 31.600,303.000 31.600 C 302.670 31.600,302.400 31.826,302.400 32.102 M91.260 35.442 C 90.579 36.211,90.789 36.433,91.917 36.137 C 92.403 36.011,92.800 35.658,92.800 35.353 C 92.800 34.624,91.939 34.673,91.260 35.442 M309.600 36.711 C 309.600 37.074,310.444 37.822,312.400 39.193 C 313.170 39.732,314.038 40.405,314.329 40.687 C 314.854 41.197,316.400 41.409,316.400 40.971 C 316.400 40.562,315.269 39.600,314.789 39.600 C 314.532 39.600,313.817 39.060,313.200 38.400 C 312.583 37.740,311.791 37.200,311.440 37.200 C 311.088 37.200,310.800 37.020,310.800 36.800 C 310.800 36.580,310.530 36.400,310.200 36.400 C 309.870 36.400,309.600 36.540,309.600 36.711 M88.400 37.600 C 88.400 37.820,88.117 38.000,87.771 38.000 C 86.822 38.000,85.802 39.162,86.307 39.667 C 86.593 39.953,87.105 39.716,87.961 38.898 C 89.250 37.666,89.480 37.200,88.800 37.200 C 88.580 37.200,88.400 37.380,88.400 37.600 M84.180 40.115 C 83.336 41.089,83.192 41.976,83.920 41.719 C 84.791 41.411,86.000 40.376,86.000 39.938 C 86.000 39.430,84.660 39.561,84.180 40.115 M81.097 42.749 C 80.947 43.326,81.074 43.453,81.651 43.303 C 82.514 43.077,82.676 42.000,81.847 42.000 C 81.542 42.000,81.205 42.337,81.097 42.749 M317.600 42.553 C 317.600 43.072,319.170 43.764,319.530 43.403 C 319.772 43.161,318.530 42.000,318.029 42.000 C 317.793 42.000,317.600 42.249,317.600 42.553 M78.100 44.610 C 77.206 45.565,76.926 46.400,77.500 46.400 C 78.011 46.399,80.000 44.532,80.000 44.053 C 80.000 43.309,79.061 43.584,78.100 44.610 M320.000 44.053 C 320.000 44.511,321.510 46.000,321.974 46.000 C 322.112 46.000,323.169 46.900,324.322 48.000 C 325.475 49.100,326.552 50.000,326.714 50.000 C 326.877 50.000,328.109 51.035,329.451 52.300 C 330.794 53.565,333.253 55.770,334.916 57.200 C 336.579 58.630,337.954 59.924,337.970 60.076 C 337.987 60.227,339.215 61.584,340.700 63.090 C 344.190 66.630,349.698 72.696,350.159 73.507 C 350.726 74.505,352.499 76.400,352.866 76.400 C 353.803 76.400,352.946 74.906,350.800 72.800 C 349.480 71.504,348.400 70.249,348.400 70.009 C 348.400 69.770,346.420 67.606,344.000 65.200 C 341.580 62.794,339.600 60.550,339.600 60.213 C 339.600 59.876,339.324 59.600,338.986 59.600 C 338.648 59.600,336.585 57.800,334.400 55.600 C 332.215 53.400,330.232 51.600,329.992 51.600 C 329.752 51.600,328.496 50.520,327.200 49.200 C 325.904 47.880,324.640 46.800,324.391 46.800 C 324.141 46.800,323.246 46.080,322.400 45.200 C 320.869 43.606,320.000 43.191,320.000 44.053 M73.262 48.658 C 72.306 49.648,71.616 50.549,71.727 50.661 C 72.130 51.063,76.400 47.840,76.400 47.134 C 76.400 46.270,74.832 47.032,73.262 48.658 M66.064 55.062 C 62.524 58.669,61.870 60.122,65.119 57.161 C 66.182 56.192,67.895 54.716,68.925 53.880 C 70.898 52.281,71.264 51.579,70.100 51.631 C 69.715 51.648,67.899 53.192,66.064 55.062 M56.100 65.025 C 54.505 66.655,53.200 68.261,53.200 68.594 C 53.200 69.609,53.837 69.278,54.935 67.693 C 55.509 66.865,56.794 65.387,57.790 64.410 C 59.494 62.737,59.988 61.960,59.300 62.031 C 59.135 62.048,57.695 63.395,56.100 65.025 M49.300 72.624 C 47.028 74.952,46.209 76.400,47.163 76.400 C 47.362 76.400,48.127 75.653,48.863 74.740 C 49.598 73.827,50.695 72.498,51.300 71.787 C 51.905 71.076,52.400 70.383,52.400 70.247 C 52.400 69.644,51.633 70.232,49.300 72.624 M46.007 77.096 C 44.649 77.629,43.833 79.200,44.914 79.200 C 45.196 79.200,45.746 78.660,46.136 78.000 C 46.526 77.340,46.790 76.814,46.723 76.832 C 46.655 76.849,46.333 76.968,46.007 77.096 M353.846 77.525 C 353.591 77.938,355.341 80.000,355.947 80.000 C 356.689 80.000,356.465 79.229,355.418 78.182 C 354.352 77.116,354.151 77.032,353.846 77.525 M42.700 81.076 C 41.873 81.292,41.751 82.400,42.553 82.400 C 42.858 82.400,43.201 82.040,43.316 81.600 C 43.431 81.160,43.497 80.821,43.463 80.846 C 43.428 80.872,43.085 80.975,42.700 81.076 M356.698 81.520 C 357.213 82.880,358.800 83.825,358.800 82.771 C 358.800 82.228,358.000 81.431,357.120 81.098 C 356.601 80.901,356.501 81.001,356.698 81.520 M40.100 84.198 C 39.825 84.511,39.600 85.004,39.600 85.295 C 39.600 85.586,39.240 86.083,38.800 86.400 C 38.360 86.717,38.000 87.257,38.000 87.600 C 38.000 87.943,37.640 88.483,37.200 88.800 C 36.370 89.398,36.111 90.400,36.786 90.400 C 36.998 90.400,37.388 89.995,37.651 89.500 C 37.915 89.005,38.337 88.420,38.588 88.200 C 39.524 87.382,41.200 84.832,41.200 84.227 C 41.200 83.456,40.763 83.445,40.100 84.198 M358.800 84.199 C 358.800 84.689,361.207 88.463,361.989 89.200 C 362.106 89.310,362.456 89.895,362.768 90.500 C 363.080 91.105,363.485 91.600,363.668 91.600 C 363.850 91.600,364.000 91.870,364.000 92.200 C 364.000 92.530,364.270 92.800,364.600 92.800 C 364.930 92.800,365.200 92.530,365.200 92.200 C 365.200 91.870,365.020 91.600,364.800 91.600 C 364.580 91.600,364.400 91.280,364.400 90.888 C 364.400 90.497,364.040 89.917,363.600 89.600 C 363.160 89.283,362.800 88.775,362.800 88.472 C 362.800 88.169,362.260 87.417,361.600 86.800 C 360.940 86.183,360.400 85.468,360.400 85.211 C 360.400 84.731,359.438 83.600,359.029 83.600 C 358.903 83.600,358.800 83.870,358.800 84.199 M35.300 91.398 C 35.025 91.711,34.800 92.154,34.800 92.383 C 34.800 93.041,35.888 92.868,36.157 92.167 C 36.691 90.776,36.220 90.354,35.300 91.398 M33.300 94.210 C 32.805 94.739,32.400 95.408,32.400 95.697 C 32.400 95.987,32.040 96.483,31.600 96.800 C 31.160 97.117,30.800 97.697,30.800 98.088 C 30.800 98.480,30.620 98.800,30.400 98.800 C 30.180 98.800,30.000 99.160,30.000 99.600 C 30.000 100.040,29.820 100.400,29.600 100.400 C 29.380 100.400,29.200 100.760,29.200 101.200 C 29.200 101.640,29.020 102.000,28.800 102.000 C 28.580 102.000,28.400 102.270,28.400 102.600 C 28.400 103.675,29.391 103.232,29.968 101.900 C 30.277 101.185,31.041 99.848,31.665 98.928 C 32.289 98.008,32.800 97.144,32.800 97.007 C 32.800 96.870,33.250 96.095,33.800 95.286 C 35.314 93.058,35.004 92.390,33.300 94.210 M365.200 93.567 C 365.200 94.388,365.719 95.200,366.243 95.200 C 366.963 95.200,366.956 94.499,366.229 93.771 C 365.571 93.114,365.200 93.040,365.200 93.567 M366.957 96.233 C 367.091 96.581,367.200 97.031,367.200 97.233 C 367.200 97.435,367.470 97.600,367.800 97.600 C 368.558 97.600,368.572 96.915,367.829 96.171 C 367.073 95.416,366.655 95.445,366.957 96.233 M120.185 98.500 C 120.081 98.775,120.041 144.630,120.098 200.400 L 120.200 301.800 159.600 301.915 C 197.732 302.027,223.509 301.608,226.400 300.830 C 227.170 300.623,228.880 300.242,230.200 299.984 C 233.761 299.287,240.193 297.237,243.600 295.711 C 247.378 294.021,251.738 291.871,252.000 291.571 C 252.110 291.445,252.470 291.242,252.800 291.119 C 254.760 290.393,263.819 282.237,268.115 277.330 C 270.138 275.019,273.212 270.213,274.346 267.589 C 274.866 266.385,275.451 265.087,275.646 264.705 C 275.841 264.323,276.000 263.659,276.000 263.229 C 276.000 262.799,276.180 262.336,276.400 262.200 C 276.620 262.064,276.800 261.524,276.800 261.000 C 276.800 260.476,276.980 259.936,277.200 259.800 C 277.420 259.664,277.600 259.034,277.600 258.400 C 277.600 257.766,277.780 257.136,278.000 257.000 C 278.220 256.864,278.400 256.054,278.400 255.200 C 278.400 254.346,278.553 253.553,278.740 253.437 C 279.110 253.208,279.749 246.777,279.657 244.200 C 279.473 239.020,279.097 234.951,278.773 234.620 C 278.568 234.411,278.400 233.654,278.400 232.939 C 278.400 232.223,278.238 231.224,278.040 230.719 C 277.842 230.213,277.002 227.665,276.173 225.057 C 272.532 213.590,262.449 202.090,250.928 196.263 C 248.049 194.807,247.843 193.630,250.253 192.400 C 257.434 188.734,268.882 174.311,271.683 165.400 C 276.308 150.686,274.003 134.413,265.690 123.078 C 263.614 120.247,254.838 111.200,254.168 111.200 C 253.924 111.200,253.398 110.840,253.000 110.400 C 252.602 109.960,252.093 109.600,251.870 109.600 C 251.646 109.600,251.179 109.353,250.831 109.052 C 250.162 108.471,247.131 106.733,244.800 105.594 C 238.826 102.676,235.623 101.646,224.990 99.229 C 219.670 98.020,120.629 97.331,120.185 98.500 M368.393 98.300 C 368.389 98.465,368.884 99.630,369.493 100.889 C 370.540 103.055,371.600 103.915,371.600 102.600 C 371.600 102.270,371.420 102.000,371.200 102.000 C 370.980 102.000,370.800 101.640,370.800 101.200 C 370.800 100.760,370.620 100.400,370.400 100.400 C 370.180 100.400,370.000 100.117,370.000 99.771 C 370.000 98.845,368.415 97.394,368.393 98.300 M27.300 104.198 C 26.708 104.871,26.637 106.000,27.186 106.000 C 27.398 106.000,27.758 105.652,27.986 105.226 C 28.778 103.747,28.312 103.049,27.300 104.198 M371.600 104.200 C 371.600 104.530,371.780 104.800,372.000 104.800 C 372.220 104.800,372.400 104.530,372.400 104.200 C 372.400 103.870,372.220 103.600,372.000 103.600 C 371.780 103.600,371.600 103.870,371.600 104.200 M25.900 107.476 C 25.515 107.576,25.200 108.005,25.200 108.429 C 25.200 108.853,25.020 109.200,24.800 109.200 C 24.580 109.200,24.400 109.560,24.400 110.000 C 24.400 110.440,24.220 110.800,24.000 110.800 C 23.780 110.800,23.600 111.250,23.600 111.800 C 23.600 112.422,23.827 112.800,24.200 112.800 C 24.530 112.800,24.800 112.446,24.800 112.012 C 24.800 111.579,25.127 110.634,25.527 109.912 C 26.214 108.674,26.879 107.145,26.687 107.246 C 26.639 107.272,26.285 107.375,25.900 107.476 M373.568 108.125 C 373.978 109.234,374.800 109.471,374.800 108.480 C 374.800 108.040,374.461 107.605,374.030 107.492 C 373.390 107.325,373.312 107.432,373.568 108.125 M374.948 110.900 C 375.081 111.395,375.192 112.025,375.195 112.300 C 375.198 112.575,375.470 112.800,375.800 112.800 C 376.565 112.800,376.584 111.327,375.829 110.571 C 375.002 109.745,374.671 109.868,374.948 110.900 M22.500 113.798 C 21.806 114.587,21.870 116.000,22.600 116.000 C 22.930 116.000,23.202 115.775,23.205 115.500 C 23.208 115.225,23.319 114.595,23.452 114.100 C 23.723 113.089,23.255 112.941,22.500 113.798 M376.153 113.676 C 375.991 113.938,376.070 114.223,376.329 114.310 C 376.588 114.396,376.800 114.812,376.800 115.233 C 376.800 115.655,377.070 116.000,377.400 116.000 C 378.165 116.000,378.184 114.527,377.429 113.771 C 376.733 113.076,376.533 113.061,376.153 113.676 M20.900 116.998 C 20.206 117.787,20.270 119.200,21.000 119.200 C 21.330 119.200,21.600 118.855,21.600 118.433 C 21.600 118.012,21.812 117.596,22.071 117.510 C 22.330 117.423,22.409 117.138,22.247 116.876 C 21.868 116.263,21.520 116.294,20.900 116.998 M378.667 118.267 C 378.206 118.727,378.375 119.200,379.000 119.200 C 379.330 119.200,379.600 118.930,379.600 118.600 C 379.600 117.975,379.127 117.806,378.667 118.267 M19.600 120.167 C 19.600 120.515,19.885 120.800,20.233 120.800 C 20.582 120.800,20.795 120.586,20.708 120.325 C 20.461 119.583,19.600 119.460,19.600 120.167 M379.467 119.867 C 379.006 120.327,379.175 120.800,379.800 120.800 C 380.130 120.800,380.400 120.530,380.400 120.200 C 380.400 119.575,379.927 119.406,379.467 119.867 M18.800 121.967 C 18.800 122.458,19.058 122.800,19.429 122.800 C 19.802 122.800,20.006 122.528,19.929 122.133 C 19.735 121.130,18.800 120.992,18.800 121.967 M380.267 121.467 C 379.779 121.954,379.991 122.800,380.600 122.800 C 380.933 122.800,381.200 122.444,381.200 122.000 C 381.200 121.203,380.774 120.960,380.267 121.467 M17.700 124.198 C 17.006 124.987,17.070 126.400,17.800 126.400 C 18.130 126.400,18.400 126.055,18.400 125.633 C 18.400 125.212,18.612 124.796,18.871 124.710 C 19.130 124.623,19.209 124.338,19.047 124.076 C 18.668 123.463,18.320 123.494,17.700 124.198 M380.953 124.076 C 380.791 124.338,380.870 124.623,381.129 124.710 C 381.388 124.796,381.600 125.212,381.600 125.633 C 381.600 126.055,381.870 126.400,382.200 126.400 C 382.965 126.400,382.984 124.927,382.229 124.171 C 381.533 123.476,381.333 123.461,380.953 124.076 M16.400 127.600 C 16.400 128.116,16.603 128.399,16.900 128.300 C 17.175 128.208,17.400 127.893,17.400 127.600 C 17.400 127.307,17.175 126.992,16.900 126.900 C 16.603 126.801,16.400 127.084,16.400 127.600 M382.600 127.200 C 382.308 127.672,382.687 128.400,383.224 128.400 C 383.431 128.400,383.600 128.040,383.600 127.600 C 383.600 126.756,383.018 126.524,382.600 127.200 M15.600 130.000 C 15.600 130.440,15.420 130.800,15.200 130.800 C 14.980 130.800,14.800 131.160,14.800 131.600 C 14.800 132.040,14.620 132.400,14.400 132.400 C 14.180 132.400,14.000 132.955,14.000 133.633 C 14.000 135.076,14.923 135.066,15.134 133.620 C 15.208 133.115,15.616 132.083,16.042 131.325 C 16.788 129.997,16.763 129.200,15.976 129.200 C 15.769 129.200,15.600 129.560,15.600 130.000 M383.410 129.584 C 383.280 129.795,383.346 130.290,383.557 130.684 C 383.769 131.078,384.039 131.715,384.158 132.100 C 384.483 133.149,385.200 132.943,385.200 131.800 C 385.200 131.250,385.020 130.800,384.800 130.800 C 384.580 130.800,384.400 130.440,384.400 130.000 C 384.400 129.165,383.819 128.921,383.410 129.584 M385.000 133.600 C 384.708 134.072,385.087 134.800,385.624 134.800 C 385.831 134.800,386.000 134.440,386.000 134.000 C 386.000 133.156,385.418 132.924,385.000 133.600 M13.200 136.400 C 13.200 136.840,13.020 137.200,12.800 137.200 C 12.580 137.200,12.400 137.755,12.400 138.433 C 12.400 139.905,13.326 139.852,13.538 138.369 C 13.614 137.836,13.855 137.183,14.073 136.918 C 14.497 136.400,14.196 135.600,13.576 135.600 C 13.369 135.600,13.200 135.960,13.200 136.400 M385.789 136.018 C 385.647 136.247,385.709 136.652,385.927 136.918 C 386.145 137.183,386.386 137.836,386.462 138.369 C 386.674 139.852,387.600 139.905,387.600 138.433 C 387.600 137.755,387.420 137.200,387.200 137.200 C 386.980 137.200,386.800 136.840,386.800 136.400 C 386.800 135.547,386.217 135.326,385.789 136.018 M11.600 141.200 C 11.600 141.640,11.420 142.000,11.200 142.000 C 10.980 142.000,10.800 142.645,10.800 143.433 C 10.800 145.182,11.732 145.129,11.935 143.369 C 12.010 142.726,12.250 141.983,12.470 141.718 C 12.897 141.201,12.597 140.400,11.976 140.400 C 11.769 140.400,11.600 140.760,11.600 141.200 M387.378 140.835 C 387.231 141.074,387.310 141.470,387.555 141.715 C 387.800 141.960,388.000 142.718,388.000 143.400 C 388.000 144.082,388.165 144.811,388.366 145.020 C 388.568 145.229,388.793 145.836,388.866 146.369 C 389.071 147.853,390.000 147.906,390.000 146.433 C 390.000 145.755,389.820 145.200,389.600 145.200 C 389.380 145.200,389.200 144.480,389.200 143.600 C 389.200 142.720,389.020 142.000,388.800 142.000 C 388.580 142.000,388.400 141.640,388.400 141.200 C 388.400 140.337,387.815 140.128,387.378 140.835 M210.673 142.067 C 211.594 142.368,212.479 142.746,212.640 142.907 C 212.801 143.068,213.257 143.200,213.653 143.200 C 214.630 143.200,220.000 148.626,220.000 149.614 C 220.000 150.046,220.180 150.400,220.400 150.400 C 220.620 150.400,220.800 150.672,220.800 151.005 C 220.800 151.338,220.965 151.923,221.167 152.305 C 222.563 154.949,222.590 162.884,221.214 166.200 C 219.988 169.154,219.413 170.121,217.854 171.853 C 216.033 173.874,211.499 176.472,208.800 177.040 C 208.030 177.202,199.750 177.350,190.400 177.367 L 173.400 177.400 173.296 159.800 C 173.238 150.120,173.286 141.953,173.402 141.652 C 173.703 140.865,208.168 141.249,210.673 142.067 M10.000 146.400 C 10.000 147.236,10.170 147.610,10.500 147.500 C 10.775 147.408,11.000 146.913,11.000 146.400 C 11.000 145.887,10.775 145.392,10.500 145.300 C 10.170 145.190,10.000 145.564,10.000 146.400 M389.745 149.000 C 389.459 149.746,389.835 150.800,390.387 150.800 C 390.614 150.800,390.800 150.260,390.800 149.600 C 390.800 148.344,390.140 147.969,389.745 149.000 M9.200 150.000 C 9.200 150.516,9.403 150.799,9.700 150.700 C 9.975 150.608,10.200 150.293,10.200 150.000 C 10.200 149.707,9.975 149.392,9.700 149.300 C 9.403 149.201,9.200 149.484,9.200 150.000 M8.400 153.200 C 8.400 153.640,8.220 154.000,8.000 154.000 C 7.778 154.000,7.600 155.067,7.600 156.400 C 7.600 157.720,7.761 158.800,7.957 158.800 C 8.494 158.800,8.800 157.730,8.800 155.847 C 8.800 154.919,9.000 153.960,9.245 153.715 C 9.490 153.470,9.569 153.074,9.422 152.835 C 8.985 152.128,8.400 152.337,8.400 153.200 M390.600 152.800 C 390.308 153.272,390.687 154.000,391.224 154.000 C 391.431 154.000,391.600 153.640,391.600 153.200 C 391.600 152.356,391.018 152.124,390.600 152.800 M391.200 156.167 C 391.200 156.919,391.309 157.819,391.443 158.167 C 391.927 159.430,392.400 158.755,392.400 156.800 C 392.400 155.289,392.253 154.800,391.800 154.800 C 391.384 154.800,391.200 155.219,391.200 156.167 M6.800 161.200 C 6.800 162.080,6.980 162.800,7.200 162.800 C 7.420 162.800,7.602 162.485,7.605 162.100 C 7.608 161.715,7.719 160.995,7.852 160.500 C 8.029 159.838,7.922 159.600,7.447 159.600 C 6.959 159.600,6.800 159.993,6.800 161.200 M392.148 160.500 C 392.281 160.995,392.392 161.715,392.395 162.100 C 392.398 162.485,392.580 162.800,392.800 162.800 C 393.020 162.800,393.200 162.080,393.200 161.200 C 393.200 159.993,393.041 159.600,392.553 159.600 C 392.078 159.600,391.971 159.838,392.148 160.500 M6.000 166.000 C 6.000 166.880,6.180 167.600,6.400 167.600 C 6.620 167.600,6.800 166.880,6.800 166.000 C 6.800 165.120,6.620 164.400,6.400 164.400 C 6.180 164.400,6.000 165.120,6.000 166.000 M393.200 166.000 C 393.200 166.880,393.380 167.600,393.600 167.600 C 393.820 167.600,394.000 166.880,394.000 166.000 C 394.000 165.120,393.820 164.400,393.600 164.400 C 393.380 164.400,393.200 165.120,393.200 166.000 M5.200 170.400 C 5.200 171.500,5.020 172.400,4.800 172.400 C 4.563 172.400,4.400 173.867,4.400 176.000 C 4.400 178.133,4.563 179.600,4.800 179.600 C 5.020 179.600,5.200 178.979,5.200 178.220 C 5.200 177.461,5.367 175.976,5.572 174.920 C 6.366 170.819,6.452 168.400,5.803 168.400 C 5.346 168.400,5.200 168.884,5.200 170.400 M393.825 170.700 C 393.952 171.965,394.212 173.810,394.401 174.800 C 395.218 179.062,395.698 192.328,395.505 205.300 C 395.338 216.560,395.395 218.800,395.852 218.800 C 396.308 218.800,396.400 215.588,396.400 199.600 C 396.400 187.067,396.261 180.400,396.000 180.400 C 395.760 180.400,395.600 178.800,395.600 176.400 C 395.600 174.000,395.440 172.400,395.200 172.400 C 394.980 172.400,394.800 171.500,394.800 170.400 C 394.800 168.884,394.654 168.400,394.197 168.400 C 393.702 168.400,393.635 168.814,393.825 170.700 M3.600 199.633 C 3.600 212.917,3.724 218.025,4.042 217.919 C 4.722 217.693,4.779 181.200,4.100 181.200 C 3.707 181.200,3.600 185.153,3.600 199.633 M211.900 218.989 C 212.835 219.151,213.600 219.445,213.600 219.642 C 213.600 219.839,213.960 220.000,214.400 220.000 C 214.840 220.000,215.200 220.136,215.200 220.302 C 215.200 220.469,215.785 220.853,216.500 221.157 C 219.470 222.418,223.575 227.589,224.315 231.000 C 225.448 236.227,225.291 244.513,224.033 245.882 C 223.671 246.277,223.075 247.230,222.710 248.000 C 221.877 249.758,218.222 253.315,216.500 254.045 C 215.785 254.347,215.200 254.731,215.200 254.898 C 215.200 255.064,214.851 255.200,214.424 255.200 C 213.997 255.200,213.548 255.361,213.426 255.558 C 212.946 256.335,209.094 256.511,191.600 256.555 L 173.400 256.600 173.296 238.000 C 173.238 227.770,173.279 219.171,173.386 218.892 C 173.602 218.330,208.604 218.418,211.900 218.989 M394.661 222.300 C 394.525 223.785,394.297 226.305,394.153 227.900 C 393.969 229.949,394.026 230.800,394.346 230.800 C 394.624 230.800,394.800 230.025,394.800 228.800 C 394.800 227.700,394.980 226.800,395.200 226.800 C 395.437 226.800,395.600 225.333,395.600 223.200 C 395.600 218.976,395.016 218.416,394.661 222.300 M4.400 224.000 C 4.400 226.133,4.563 227.600,4.800 227.600 C 5.020 227.600,5.200 228.500,5.200 229.600 C 5.200 231.102,5.348 231.600,5.794 231.600 C 6.436 231.600,6.311 228.118,5.563 225.200 C 5.366 224.430,5.203 223.035,5.202 222.100 C 5.201 221.165,5.020 220.400,4.800 220.400 C 4.563 220.400,4.400 221.867,4.400 224.000 M6.000 234.400 C 6.000 235.979,6.137 236.400,6.650 236.400 C 7.165 236.400,7.248 236.140,7.050 235.150 C 6.913 234.463,6.800 233.563,6.800 233.150 C 6.800 232.738,6.620 232.400,6.400 232.400 C 6.180 232.400,6.000 233.300,6.000 234.400 M393.200 233.424 C 393.200 234.004,393.373 234.340,393.600 234.200 C 393.820 234.064,394.000 233.603,394.000 233.176 C 394.000 232.749,393.820 232.400,393.600 232.400 C 393.380 232.400,393.200 232.861,393.200 233.424 M6.800 238.800 C 6.800 240.007,6.959 240.400,7.447 240.400 C 7.922 240.400,8.029 240.162,7.852 239.500 C 7.719 239.005,7.608 238.285,7.605 237.900 C 7.602 237.515,7.420 237.200,7.200 237.200 C 6.980 237.200,6.800 237.920,6.800 238.800 M392.395 237.900 C 392.392 238.285,392.281 239.005,392.148 239.500 C 391.971 240.162,392.078 240.400,392.553 240.400 C 393.041 240.400,393.200 240.007,393.200 238.800 C 393.200 237.920,393.020 237.200,392.800 237.200 C 392.580 237.200,392.398 237.515,392.395 237.900 M7.600 243.200 C 7.600 244.711,7.747 245.200,8.200 245.200 C 8.825 245.200,9.047 243.108,8.557 241.833 C 8.073 240.570,7.600 241.245,7.600 243.200 M391.443 241.833 C 390.953 243.108,391.175 245.200,391.800 245.200 C 392.253 245.200,392.400 244.711,392.400 243.200 C 392.400 241.245,391.927 240.570,391.443 241.833 M8.400 246.800 C 8.400 247.316,8.603 247.599,8.900 247.500 C 9.175 247.408,9.400 247.093,9.400 246.800 C 9.400 246.507,9.175 246.192,8.900 246.100 C 8.603 246.001,8.400 246.284,8.400 246.800 M390.600 246.400 C 390.308 246.872,390.687 247.600,391.224 247.600 C 391.431 247.600,391.600 247.240,391.600 246.800 C 391.600 245.956,391.018 245.724,390.600 246.400 M9.200 250.400 C 9.200 251.236,9.370 251.610,9.700 251.500 C 9.975 251.408,10.200 250.913,10.200 250.400 C 10.200 249.887,9.975 249.392,9.700 249.300 C 9.370 249.190,9.200 249.564,9.200 250.400 M389.745 249.800 C 389.459 250.546,389.835 251.600,390.387 251.600 C 390.614 251.600,390.800 251.060,390.800 250.400 C 390.800 249.144,390.140 248.769,389.745 249.800 M10.000 253.200 C 10.000 253.716,10.203 253.999,10.500 253.900 C 10.775 253.808,11.000 253.493,11.000 253.200 C 11.000 252.907,10.775 252.592,10.500 252.500 C 10.203 252.401,10.000 252.684,10.000 253.200 M389.067 252.667 C 388.920 252.813,388.800 253.343,388.800 253.843 C 388.800 254.343,388.620 254.864,388.400 255.000 C 388.180 255.136,388.000 255.831,388.000 256.544 C 388.000 257.257,387.800 258.040,387.555 258.285 C 387.310 258.530,387.231 258.926,387.378 259.165 C 387.815 259.872,388.400 259.663,388.400 258.800 C 388.400 258.360,388.580 258.000,388.800 258.000 C 389.020 258.000,389.200 257.280,389.200 256.400 C 389.200 255.520,389.380 254.800,389.600 254.800 C 389.820 254.800,390.000 254.260,390.000 253.600 C 390.000 252.453,389.640 252.093,389.067 252.667 M10.800 256.367 C 10.800 257.265,10.980 258.000,11.200 258.000 C 11.420 258.000,11.600 258.360,11.600 258.800 C 11.600 259.240,11.769 259.600,11.976 259.600 C 12.598 259.600,12.897 258.798,12.467 258.281 C 12.246 258.015,12.006 257.181,11.933 256.429 C 11.735 254.394,10.800 254.342,10.800 256.367 M12.400 261.520 C 12.400 262.337,12.630 262.767,13.139 262.900 C 13.773 263.066,13.842 262.921,13.628 261.876 C 13.292 260.233,12.400 259.975,12.400 261.520 M386.667 260.667 C 386.520 260.813,386.400 261.317,386.400 261.787 C 386.400 262.256,386.200 262.840,385.955 263.085 C 385.710 263.330,385.631 263.726,385.778 263.965 C 386.215 264.672,386.800 264.463,386.800 263.600 C 386.800 263.160,386.980 262.800,387.200 262.800 C 387.420 262.800,387.600 262.260,387.600 261.600 C 387.600 260.453,387.240 260.093,386.667 260.667 M14.000 266.000 C 14.000 266.516,14.203 266.799,14.500 266.700 C 14.775 266.608,15.000 266.293,15.000 266.000 C 15.000 265.707,14.775 265.392,14.500 265.300 C 14.203 265.201,14.000 265.484,14.000 266.000 M385.000 265.600 C 384.708 266.072,385.087 266.800,385.624 266.800 C 385.831 266.800,386.000 266.440,386.000 266.000 C 386.000 265.156,385.418 264.924,385.000 265.600 M14.800 267.800 C 14.800 268.130,14.980 268.400,15.200 268.400 C 15.420 268.400,15.600 268.130,15.600 267.800 C 15.600 267.470,15.420 267.200,15.200 267.200 C 14.980 267.200,14.800 267.470,14.800 267.800 M384.158 267.900 C 384.039 268.285,383.775 268.913,383.571 269.295 C 383.367 269.677,383.200 270.316,383.200 270.715 C 383.200 271.114,383.000 271.640,382.755 271.885 C 382.510 272.130,382.431 272.526,382.578 272.765 C 383.015 273.472,383.600 273.263,383.600 272.400 C 383.600 271.960,383.780 271.600,384.000 271.600 C 384.220 271.600,384.400 271.060,384.400 270.400 C 384.400 269.740,384.580 269.200,384.800 269.200 C 385.020 269.200,385.200 268.750,385.200 268.200 C 385.200 267.057,384.483 266.851,384.158 267.900 M15.600 270.000 C 15.600 270.516,15.803 270.799,16.100 270.700 C 16.375 270.608,16.600 270.293,16.600 270.000 C 16.600 269.707,16.375 269.392,16.100 269.300 C 15.803 269.201,15.600 269.484,15.600 270.000 M17.200 274.233 C 17.200 274.940,18.061 274.817,18.308 274.075 C 18.395 273.814,18.182 273.600,17.833 273.600 C 17.485 273.600,17.200 273.885,17.200 274.233 M381.600 274.367 C 381.600 274.788,381.375 275.216,381.100 275.317 C 380.714 275.458,380.708 275.615,381.074 276.004 C 381.454 276.408,381.673 276.384,382.174 275.883 C 382.974 275.083,382.991 273.600,382.200 273.600 C 381.870 273.600,381.600 273.945,381.600 274.367 M18.000 275.833 C 18.000 276.182,18.214 276.395,18.475 276.308 C 19.217 276.061,19.340 275.200,18.633 275.200 C 18.285 275.200,18.000 275.485,18.000 275.833 M380.152 277.381 C 380.029 277.700,380.046 278.150,380.188 278.381 C 380.654 279.135,381.200 278.821,381.200 277.800 C 381.200 276.716,380.513 276.441,380.152 277.381 M18.800 278.033 C 18.800 279.008,19.735 278.870,19.929 277.867 C 20.006 277.472,19.802 277.200,19.429 277.200 C 19.058 277.200,18.800 277.542,18.800 278.033 M379.292 279.675 C 379.539 280.417,380.400 280.540,380.400 279.833 C 380.400 279.485,380.115 279.200,379.767 279.200 C 379.418 279.200,379.205 279.414,379.292 279.675 M20.400 281.433 C 20.400 281.782,20.614 281.995,20.875 281.908 C 21.617 281.661,21.740 280.800,21.033 280.800 C 20.685 280.800,20.400 281.085,20.400 281.433 M378.492 281.275 C 378.739 282.017,379.600 282.140,379.600 281.433 C 379.600 281.085,379.315 280.800,378.967 280.800 C 378.618 280.800,378.405 281.014,378.492 281.275 M21.200 283.033 C 21.200 283.382,21.414 283.595,21.675 283.508 C 22.417 283.261,22.540 282.400,21.833 282.400 C 21.485 282.400,21.200 282.685,21.200 283.033 M377.692 282.875 C 377.939 283.617,378.800 283.740,378.800 283.033 C 378.800 282.685,378.515 282.400,378.167 282.400 C 377.818 282.400,377.605 282.614,377.692 282.875 M22.000 284.633 C 22.000 285.340,22.861 285.217,23.108 284.475 C 23.195 284.214,22.982 284.000,22.633 284.000 C 22.285 284.000,22.000 284.285,22.000 284.633 M376.892 284.475 C 377.139 285.217,378.000 285.340,378.000 284.633 C 378.000 284.285,377.715 284.000,377.367 284.000 C 377.018 284.000,376.805 284.214,376.892 284.475 M22.800 286.233 C 22.800 286.582,23.014 286.795,23.275 286.708 C 24.017 286.461,24.140 285.600,23.433 285.600 C 23.085 285.600,22.800 285.885,22.800 286.233 M376.092 286.075 C 376.339 286.817,377.200 286.940,377.200 286.233 C 377.200 285.885,376.915 285.600,376.567 285.600 C 376.218 285.600,376.005 285.814,376.092 286.075 M23.600 288.029 C 23.600 288.850,24.669 290.265,25.022 289.912 C 25.123 289.810,25.092 289.159,24.953 288.464 C 24.673 287.065,23.600 286.719,23.600 288.029 M375.200 287.976 C 375.200 288.403,375.041 288.851,374.848 288.970 C 374.076 289.447,374.092 291.101,374.866 290.899 C 375.270 290.793,375.600 290.368,375.600 289.953 C 375.600 289.539,375.780 289.200,376.000 289.200 C 376.220 289.200,376.400 288.750,376.400 288.200 C 376.400 287.578,376.173 287.200,375.800 287.200 C 375.470 287.200,375.200 287.549,375.200 287.976 M25.200 291.520 C 25.200 291.960,25.539 292.395,25.970 292.508 C 26.610 292.675,26.688 292.568,26.432 291.875 C 26.022 290.766,25.200 290.529,25.200 291.520 M27.600 295.800 C 27.600 296.130,27.780 296.400,28.000 296.400 C 28.220 296.400,28.400 296.130,28.400 295.800 C 28.400 295.470,28.220 295.200,28.000 295.200 C 27.780 295.200,27.600 295.470,27.600 295.800 M371.600 295.800 C 371.600 296.130,371.780 296.400,372.000 296.400 C 372.220 296.400,372.400 296.130,372.400 295.800 C 372.400 295.470,372.220 295.200,372.000 295.200 C 371.780 295.200,371.600 295.470,371.600 295.800 M28.400 297.400 C 28.400 297.730,28.670 298.000,29.000 298.000 C 29.330 298.000,29.600 297.730,29.600 297.400 C 29.600 297.070,29.330 296.800,29.000 296.800 C 28.670 296.800,28.400 297.070,28.400 297.400 M369.434 299.211 C 368.792 300.525,368.378 301.712,368.515 301.848 C 368.870 302.204,370.000 300.973,370.000 300.229 C 370.000 299.883,370.180 299.600,370.400 299.600 C 370.620 299.600,370.800 299.240,370.800 298.800 C 370.800 298.360,370.980 298.000,371.200 298.000 C 371.420 298.000,371.600 297.730,371.600 297.400 C 371.600 296.067,370.533 296.959,369.434 299.211 M30.000 300.229 C 30.000 300.971,31.129 302.204,31.484 301.849 C 31.824 301.509,30.911 299.600,30.409 299.600 C 30.184 299.600,30.000 299.883,30.000 300.229 M367.063 303.283 C 366.936 303.768,366.906 304.239,366.997 304.330 C 367.239 304.572,368.400 303.330,368.400 302.829 C 368.400 302.023,367.294 302.398,367.063 303.283 M365.463 305.683 C 365.336 306.168,365.306 306.639,365.397 306.730 C 365.639 306.972,366.800 305.730,366.800 305.229 C 366.800 304.423,365.694 304.798,365.463 305.683 M34.800 307.595 C 34.800 308.234,35.978 309.355,36.305 309.028 C 36.631 308.702,35.920 307.507,35.271 307.290 C 35.012 307.204,34.800 307.341,34.800 307.595 M363.787 308.039 C 363.641 308.501,363.179 309.221,362.761 309.639 C 362.052 310.348,361.712 311.600,362.229 311.600 C 362.666 311.600,363.600 310.454,363.600 309.917 C 363.600 309.620,363.960 309.117,364.400 308.800 C 364.840 308.483,365.200 307.993,365.200 307.712 C 365.200 306.872,364.075 307.133,363.787 308.039 M38.800 313.400 C 38.800 313.767,38.994 314.002,39.230 313.923 C 39.467 313.845,39.660 313.609,39.660 313.400 C 39.660 313.191,39.467 312.956,39.230 312.877 C 38.994 312.798,38.800 313.033,38.800 313.400 M360.400 313.304 C 360.400 313.581,360.040 314.032,359.600 314.307 C 358.890 314.750,358.440 316.400,359.029 316.400 C 359.498 316.400,360.400 315.235,360.400 314.629 C 360.400 314.283,360.580 314.000,360.800 314.000 C 361.020 314.000,361.200 313.730,361.200 313.400 C 361.200 313.070,361.020 312.800,360.800 312.800 C 360.580 312.800,360.400 313.027,360.400 313.304 M40.400 315.753 C 40.400 316.058,40.737 316.395,41.149 316.503 C 41.726 316.653,41.853 316.526,41.703 315.949 C 41.477 315.086,40.400 314.924,40.400 315.753 M42.000 318.153 C 42.000 318.458,42.337 318.795,42.749 318.903 C 43.326 319.053,43.453 318.926,43.303 318.349 C 43.077 317.486,42.000 317.324,42.000 318.153 M356.697 318.349 C 356.547 318.926,356.674 319.053,357.251 318.903 C 357.663 318.795,358.000 318.458,358.000 318.153 C 358.000 317.324,356.923 317.486,356.697 318.349 M354.968 320.526 C 353.603 322.090,353.074 323.223,353.848 322.926 C 354.783 322.567,356.400 320.978,356.400 320.418 C 356.400 319.849,355.499 319.917,354.968 320.526 M351.528 324.700 C 350.967 325.305,350.348 326.096,350.154 326.458 C 349.192 328.249,335.200 342.777,332.300 344.996 C 330.708 346.214,330.417 346.800,331.403 346.800 C 332.075 346.800,347.600 331.448,347.600 330.783 C 347.600 330.551,348.860 329.119,350.400 327.600 C 351.940 326.081,353.200 324.560,353.200 324.219 C 353.200 323.310,352.680 323.460,351.528 324.700 M48.400 326.018 C 48.400 326.570,50.387 328.547,50.663 328.270 C 51.006 327.928,49.481 325.600,48.914 325.600 C 48.631 325.600,48.400 325.788,48.400 326.018 M53.200 331.406 C 53.200 332.111,59.145 338.188,59.494 337.840 C 59.622 337.711,58.741 336.570,57.535 335.303 C 56.329 334.036,55.020 332.505,54.625 331.900 C 53.835 330.687,53.200 330.468,53.200 331.406 M62.000 340.606 C 62.000 341.115,68.052 346.800,68.594 346.800 C 69.609 346.800,69.278 346.163,67.693 345.065 C 66.865 344.491,65.387 343.206,64.410 342.210 C 62.803 340.573,62.000 340.038,62.000 340.606 M70.000 347.818 C 70.000 347.938,70.461 348.497,71.024 349.061 C 72.326 350.363,72.856 349.937,71.599 348.598 C 70.723 347.667,70.000 347.314,70.000 347.818 M328.143 348.712 C 327.451 349.310,326.146 350.395,325.243 351.123 C 323.526 352.505,323.180 353.200,324.207 353.200 C 324.752 353.200,330.000 348.314,330.000 347.807 C 330.000 347.354,329.340 347.675,328.143 348.712 M73.200 351.000 C 73.200 351.330,73.470 351.600,73.800 351.600 C 74.130 351.600,74.400 351.330,74.400 351.000 C 74.400 350.670,74.130 350.400,73.800 350.400 C 73.470 350.400,73.200 350.670,73.200 351.000 M77.086 354.007 C 77.200 354.443,77.542 354.800,77.847 354.800 C 78.649 354.800,78.525 354.095,77.639 353.621 C 76.992 353.275,76.910 353.332,77.086 354.007 M321.989 353.884 C 320.600 354.844,320.000 355.474,320.000 355.971 C 320.000 357.091,322.315 355.440,322.907 353.899 C 323.237 353.039,323.212 353.038,321.989 353.884 M80.400 356.586 C 80.400 357.012,81.497 358.000,81.971 358.000 C 82.207 358.000,82.400 357.730,82.400 357.400 C 82.400 357.070,82.235 356.800,82.033 356.800 C 81.831 356.800,81.381 356.691,81.033 356.557 C 80.685 356.424,80.400 356.437,80.400 356.586 M318.300 356.676 C 317.473 356.892,317.351 358.000,318.153 358.000 C 318.458 358.000,318.801 357.640,318.916 357.200 C 319.031 356.760,319.097 356.421,319.063 356.446 C 319.028 356.472,318.685 356.575,318.300 356.676 M83.497 358.851 C 83.605 359.263,83.942 359.600,84.247 359.600 C 85.076 359.600,84.914 358.523,84.051 358.297 C 83.474 358.147,83.347 358.274,83.497 358.851 M315.200 359.200 C 315.200 359.420,315.470 359.600,315.800 359.600 C 316.130 359.600,316.400 359.420,316.400 359.200 C 316.400 358.980,316.130 358.800,315.800 358.800 C 315.470 358.800,315.200 358.980,315.200 359.200 M86.256 360.278 C 85.805 360.728,85.981 361.200,86.600 361.200 C 86.930 361.200,87.200 361.031,87.200 360.824 C 87.200 360.319,86.575 359.958,86.256 360.278 M312.039 361.161 C 311.621 361.579,310.901 362.041,310.439 362.187 C 309.533 362.475,309.272 363.600,310.112 363.600 C 310.393 363.600,310.883 363.240,311.200 362.800 C 311.517 362.360,312.020 362.000,312.317 362.000 C 312.854 362.000,314.000 361.066,314.000 360.629 C 314.000 360.112,312.748 360.452,312.039 361.161 M90.800 363.829 C 90.800 364.221,91.922 365.200,92.371 365.200 C 93.038 365.200,92.875 364.114,92.167 363.843 C 91.372 363.538,90.800 363.532,90.800 363.829 M307.680 364.080 C 307.085 364.675,307.061 365.200,307.629 365.200 C 308.078 365.200,309.200 364.221,309.200 363.829 C 309.200 363.418,308.172 363.588,307.680 364.080 M305.500 365.632 C 304.726 366.083,304.559 366.800,305.229 366.800 C 305.464 366.800,305.914 366.543,306.229 366.229 C 307.242 365.215,306.815 364.866,305.500 365.632 M303.100 367.076 C 302.273 367.292,302.151 368.400,302.953 368.400 C 303.258 368.400,303.601 368.040,303.716 367.600 C 303.831 367.160,303.897 366.821,303.863 366.846 C 303.828 366.872,303.485 366.975,303.100 367.076 M98.000 368.800 C 98.000 369.020,98.270 369.200,98.600 369.200 C 98.930 369.200,99.200 369.020,99.200 368.800 C 99.200 368.580,98.930 368.400,98.600 368.400 C 98.270 368.400,98.000 368.580,98.000 368.800 M300.800 368.800 C 300.800 369.020,301.070 369.200,301.400 369.200 C 301.730 369.200,302.000 369.020,302.000 368.800 C 302.000 368.580,301.730 368.400,301.400 368.400 C 301.070 368.400,300.800 368.580,300.800 368.800 M298.300 369.915 C 296.804 370.587,296.262 371.600,297.400 371.600 C 297.730 371.600,298.000 371.420,298.000 371.200 C 298.000 370.980,298.339 370.800,298.753 370.800 C 299.170 370.800,299.600 370.443,299.716 370.000 C 299.831 369.560,299.897 369.209,299.863 369.221 C 299.828 369.232,299.125 369.544,298.300 369.915 M102.000 371.000 C 102.000 371.330,102.270 371.600,102.600 371.600 C 102.930 371.600,103.200 371.330,103.200 371.000 C 103.200 370.670,102.930 370.400,102.600 370.400 C 102.270 370.400,102.000 370.670,102.000 371.000 M295.200 372.000 C 295.200 372.220,295.470 372.400,295.800 372.400 C 296.130 372.400,296.400 372.220,296.400 372.000 C 296.400 371.780,296.130 371.600,295.800 371.600 C 295.470 371.600,295.200 371.780,295.200 372.000 M107.492 374.030 C 107.605 374.461,108.040 374.800,108.480 374.800 C 109.471 374.800,109.234 373.978,108.125 373.568 C 107.432 373.312,107.325 373.390,107.492 374.030 M291.700 373.612 C 290.607 374.052,290.514 374.800,291.553 374.800 C 291.970 374.800,292.400 374.443,292.516 374.000 C 292.631 373.560,292.697 373.211,292.663 373.225 C 292.628 373.239,292.195 373.413,291.700 373.612 M110.000 375.200 C 110.000 375.420,110.270 375.600,110.600 375.600 C 110.930 375.600,111.200 375.420,111.200 375.200 C 111.200 374.980,110.930 374.800,110.600 374.800 C 110.270 374.800,110.000 374.980,110.000 375.200 M111.867 375.467 C 111.406 375.927,111.575 376.400,112.200 376.400 C 112.530 376.400,112.800 376.130,112.800 375.800 C 112.800 375.175,112.327 375.006,111.867 375.467 M287.200 375.767 C 287.200 376.115,287.485 376.400,287.833 376.400 C 288.540 376.400,288.417 375.539,287.675 375.292 C 287.414 375.205,287.200 375.418,287.200 375.767 M113.467 376.267 C 113.006 376.727,113.175 377.200,113.800 377.200 C 114.130 377.200,114.400 376.930,114.400 376.600 C 114.400 375.975,113.927 375.806,113.467 376.267 M285.600 376.400 C 285.600 376.620,285.240 376.800,284.800 376.800 C 284.356 376.800,284.000 377.067,284.000 377.400 C 284.000 377.740,284.359 378.000,284.829 378.000 C 285.815 378.000,286.955 376.974,286.602 376.403 C 286.281 375.883,285.600 375.881,285.600 376.400 M115.067 377.067 C 114.606 377.527,114.775 378.000,115.400 378.000 C 115.730 378.000,116.000 377.730,116.000 377.400 C 116.000 376.775,115.527 376.606,115.067 377.067 M282.400 378.167 C 282.400 378.515,282.685 378.800,283.033 378.800 C 283.740 378.800,283.617 377.939,282.875 377.692 C 282.614 377.605,282.400 377.818,282.400 378.167 M118.267 378.667 C 117.806 379.127,117.975 379.600,118.600 379.600 C 118.930 379.600,119.200 379.330,119.200 379.000 C 119.200 378.375,118.727 378.206,118.267 378.667 M280.800 378.967 C 280.800 379.315,281.085 379.600,281.433 379.600 C 282.140 379.600,282.017 378.739,281.275 378.492 C 281.014 378.405,280.800 378.618,280.800 378.967 M279.200 379.767 C 279.200 380.115,279.485 380.400,279.833 380.400 C 280.540 380.400,280.417 379.539,279.675 379.292 C 279.414 379.205,279.200 379.418,279.200 379.767 M121.467 380.267 C 120.960 380.774,121.203 381.200,122.000 381.200 C 122.444 381.200,122.800 380.933,122.800 380.600 C 122.800 379.991,121.954 379.779,121.467 380.267 M277.080 380.253 C 276.518 380.815,276.824 381.200,277.833 381.200 C 278.482 381.200,278.805 381.014,278.700 380.700 C 278.508 380.122,277.492 379.841,277.080 380.253 M123.867 381.067 C 123.406 381.527,123.575 382.000,124.200 382.000 C 124.530 382.000,124.800 381.730,124.800 381.400 C 124.800 380.775,124.327 380.606,123.867 381.067 M275.200 381.367 C 275.200 381.715,275.485 382.000,275.833 382.000 C 276.540 382.000,276.417 381.139,275.675 380.892 C 275.414 380.805,275.200 381.018,275.200 381.367 M125.467 381.867 C 125.006 382.327,125.175 382.800,125.800 382.800 C 126.130 382.800,126.400 382.530,126.400 382.200 C 126.400 381.575,125.927 381.406,125.467 381.867 M273.413 381.979 C 273.270 382.210,272.803 382.400,272.376 382.400 C 271.949 382.400,271.600 382.568,271.600 382.773 C 271.600 382.979,271.119 383.204,270.531 383.273 C 268.974 383.458,268.836 384.400,270.367 384.400 C 271.045 384.400,271.600 384.220,271.600 384.000 C 271.600 383.780,271.960 383.600,272.400 383.600 C 272.840 383.600,273.200 383.420,273.200 383.200 C 273.200 382.980,273.575 382.800,274.033 382.800 C 274.499 382.800,274.797 382.590,274.708 382.325 C 274.490 381.671,273.729 381.468,273.413 381.979 M127.075 382.658 C 126.553 383.180,126.802 383.600,127.633 383.600 C 128.099 383.600,128.397 383.390,128.308 383.125 C 128.113 382.540,127.446 382.288,127.075 382.658 M129.475 383.458 C 128.953 383.980,129.202 384.400,130.033 384.400 C 130.499 384.400,130.797 384.190,130.708 383.925 C 130.513 383.340,129.846 383.088,129.475 383.458 M131.600 384.800 C 131.600 385.020,131.870 385.200,132.200 385.200 C 132.530 385.200,132.800 385.020,132.800 384.800 C 132.800 384.580,132.530 384.400,132.200 384.400 C 131.870 384.400,131.600 384.580,131.600 384.800 M267.200 384.800 C 267.200 385.020,267.470 385.200,267.800 385.200 C 268.130 385.200,268.400 385.020,268.400 384.800 C 268.400 384.580,268.130 384.400,267.800 384.400 C 267.470 384.400,267.200 384.580,267.200 384.800 M133.475 385.058 C 132.953 385.580,133.202 386.000,134.033 386.000 C 134.499 386.000,134.797 385.790,134.708 385.525 C 134.513 384.940,133.846 384.688,133.475 385.058 M265.475 385.058 C 264.953 385.580,265.202 386.000,266.033 386.000 C 266.499 386.000,266.797 385.790,266.708 385.525 C 266.513 384.940,265.846 384.688,265.475 385.058 M135.867 385.867 C 135.360 386.374,135.603 386.800,136.400 386.800 C 136.840 386.800,137.200 386.980,137.200 387.200 C 137.200 387.420,137.755 387.600,138.433 387.600 C 139.906 387.600,139.853 386.671,138.369 386.466 C 137.836 386.393,137.229 386.168,137.020 385.966 C 136.569 385.532,136.231 385.503,135.867 385.867 M262.985 385.961 C 262.773 386.165,262.164 386.393,261.631 386.466 C 260.147 386.671,260.094 387.600,261.567 387.600 C 262.245 387.600,262.800 387.420,262.800 387.200 C 262.800 386.980,263.175 386.800,263.633 386.800 C 264.099 386.800,264.397 386.590,264.308 386.325 C 264.095 385.684,263.455 385.508,262.985 385.961 M140.680 387.453 C 140.118 388.015,140.424 388.400,141.433 388.400 C 142.082 388.400,142.405 388.214,142.300 387.900 C 142.108 387.322,141.092 387.041,140.680 387.453 M258.185 387.566 C 257.973 387.774,257.184 388.001,256.431 388.071 C 254.394 388.263,254.341 389.200,256.367 389.200 C 257.265 389.200,258.000 389.020,258.000 388.800 C 258.000 388.580,258.375 388.400,258.833 388.400 C 259.299 388.400,259.597 388.190,259.508 387.925 C 259.294 387.281,258.654 387.108,258.185 387.566 M143.067 388.267 C 142.493 388.840,142.853 389.200,144.000 389.200 C 144.660 389.200,145.200 389.380,145.200 389.600 C 145.200 389.820,145.755 390.000,146.433 390.000 C 147.906 390.000,147.853 389.071,146.369 388.866 C 145.836 388.793,145.229 388.568,145.020 388.366 C 144.577 387.939,143.452 387.882,143.067 388.267 M252.675 389.058 C 252.153 389.580,252.402 390.000,253.233 390.000 C 253.699 390.000,253.997 389.790,253.908 389.525 C 253.713 388.940,253.046 388.688,252.675 389.058 M148.400 390.173 C 148.400 390.607,148.780 390.800,149.633 390.800 C 151.164 390.800,151.026 389.858,149.469 389.673 C 148.711 389.584,148.400 389.729,148.400 390.173 M249.475 389.858 C 248.953 390.380,249.202 390.800,250.033 390.800 C 250.499 390.800,250.797 390.590,250.708 390.325 C 250.513 389.740,249.846 389.488,249.475 389.858 M155.600 391.776 C 155.600 392.239,156.020 392.400,157.233 392.400 C 159.317 392.400,159.179 391.454,157.069 391.276 C 155.952 391.181,155.600 391.301,155.600 391.776 M241.700 391.456 C 240.657 391.895,241.263 392.400,242.833 392.400 C 243.961 392.400,244.416 392.245,244.302 391.900 C 244.129 391.372,242.543 391.101,241.700 391.456 M160.679 392.254 C 160.094 392.840,160.444 393.200,161.600 393.200 C 162.260 393.200,162.800 393.020,162.800 392.800 C 162.800 392.580,162.635 392.400,162.433 392.400 C 162.231 392.400,161.816 392.304,161.512 392.188 C 161.207 392.071,160.833 392.101,160.679 392.254 M237.200 392.800 C 237.200 393.020,237.740 393.200,238.400 393.200 C 239.060 393.200,239.600 393.020,239.600 392.800 C 239.600 392.580,239.060 392.400,238.400 392.400 C 237.740 392.400,237.200 392.580,237.200 392.800 M164.400 393.600 C 164.400 393.820,165.120 394.000,166.000 394.000 C 166.880 394.000,167.600 393.820,167.600 393.600 C 167.600 393.380,166.880 393.200,166.000 393.200 C 165.120 393.200,164.400 393.380,164.400 393.600 M232.400 393.600 C 232.400 393.820,232.749 394.000,233.176 394.000 C 233.603 394.000,234.064 393.820,234.200 393.600 C 234.340 393.373,234.004 393.200,233.424 393.200 C 232.861 393.200,232.400 393.380,232.400 393.600 M169.200 394.341 C 169.200 394.625,169.961 394.800,171.200 394.800 C 172.300 394.800,173.200 394.980,173.200 395.200 C 173.200 395.433,174.533 395.600,176.400 395.600 C 178.267 395.600,179.600 395.767,179.600 396.000 C 179.600 396.220,179.973 396.400,180.429 396.400 C 182.699 396.400,180.967 394.998,178.396 394.754 C 176.968 394.618,174.315 394.366,172.500 394.194 C 170.101 393.967,169.200 394.007,169.200 394.341 M226.800 394.400 C 226.800 394.620,227.700 394.800,228.800 394.800 C 229.900 394.800,230.800 394.620,230.800 394.400 C 230.800 394.180,229.900 394.000,228.800 394.000 C 227.700 394.000,226.800 394.180,226.800 394.400 M221.900 394.696 C 218.448 394.912,219.133 395.600,222.800 395.600 C 225.378 395.600,226.000 395.483,226.000 395.000 C 226.000 394.622,225.667 394.428,225.100 394.476 C 224.605 394.517,223.165 394.616,221.900 394.696 M182.167 395.567 C 181.457 396.276,184.166 396.400,200.400 396.400 C 214.853 396.400,218.800 396.293,218.800 395.900 C 218.800 395.424,182.639 395.095,182.167 395.567 " stroke="none" fill="#fbfbfb" fill-rule="evenodd"></path><path id="path1" d="M181.200 5.019 C 178.010 5.295,173.911 5.712,172.090 5.944 C 170.270 6.177,168.515 6.265,168.190 6.141 C 167.866 6.016,167.600 6.114,167.600 6.357 C 167.600 6.620,166.812 6.800,165.661 6.800 C 164.595 6.800,163.142 7.090,162.432 7.444 C 161.667 7.826,160.679 7.996,160.007 7.861 C 159.259 7.712,158.803 7.816,158.668 8.167 C 158.473 8.675,155.052 9.246,152.131 9.257 C 151.406 9.259,150.768 9.505,150.644 9.831 C 150.513 10.172,149.869 10.400,149.036 10.400 C 148.272 10.400,147.525 10.598,147.375 10.840 C 147.223 11.086,146.610 11.182,145.988 11.058 C 145.222 10.904,144.802 11.017,144.649 11.417 C 144.522 11.747,143.908 12.000,143.236 12.000 C 142.582 12.000,141.936 12.181,141.799 12.401 C 141.663 12.622,141.136 12.699,140.630 12.572 C 140.004 12.415,139.631 12.543,139.467 12.970 C 139.334 13.317,138.780 13.600,138.236 13.600 C 137.692 13.600,137.136 13.781,136.999 14.001 C 136.863 14.222,136.336 14.299,135.830 14.172 C 135.204 14.015,134.831 14.143,134.667 14.570 C 134.534 14.917,134.065 15.200,133.625 15.200 C 133.185 15.200,132.183 15.560,131.400 16.000 C 130.617 16.440,129.632 16.800,129.211 16.800 C 128.791 16.800,128.331 16.987,128.190 17.216 C 128.048 17.445,127.588 17.523,127.166 17.389 C 126.634 17.220,126.400 17.337,126.400 17.773 C 126.400 18.133,126.060 18.400,125.600 18.400 C 125.160 18.400,124.800 18.583,124.800 18.808 C 124.800 19.043,124.377 19.109,123.800 18.964 C 123.024 18.770,122.800 18.867,122.800 19.400 C 122.800 19.933,122.576 20.030,121.800 19.836 C 121.048 19.647,120.800 19.742,120.800 20.219 C 120.800 20.672,120.571 20.781,120.000 20.600 C 119.432 20.420,119.200 20.528,119.200 20.973 C 119.200 21.333,118.860 21.600,118.400 21.600 C 117.960 21.600,117.600 21.792,117.600 22.027 C 117.600 22.272,117.259 22.346,116.800 22.200 C 116.246 22.024,116.000 22.128,116.000 22.538 C 116.000 22.917,115.424 23.227,114.400 23.400 C 113.416 23.566,112.800 23.888,112.800 24.235 C 112.800 24.546,112.461 24.800,112.046 24.800 C 111.631 24.800,109.730 25.610,107.822 26.600 C 105.913 27.590,104.093 28.400,103.776 28.400 C 103.459 28.400,103.195 28.625,103.189 28.900 C 103.178 29.407,99.017 31.621,98.100 31.607 C 97.825 31.603,97.600 31.870,97.600 32.200 C 97.600 32.530,97.330 32.800,97.000 32.800 C 96.670 32.800,96.400 32.980,96.400 33.200 C 96.400 33.420,96.207 33.600,95.971 33.600 C 95.736 33.600,95.273 33.870,94.943 34.200 C 94.613 34.530,93.996 34.800,93.571 34.800 C 93.147 34.800,92.800 35.056,92.800 35.368 C 92.800 35.684,92.224 36.063,91.506 36.221 C 90.771 36.382,89.604 37.162,88.806 38.027 C 88.033 38.864,87.134 39.606,86.810 39.675 C 86.485 39.744,85.904 40.183,85.519 40.651 C 84.839 41.478,82.974 42.289,83.423 41.563 C 83.546 41.363,83.460 41.200,83.231 41.200 C 83.002 41.200,82.707 41.633,82.574 42.162 C 82.441 42.691,81.987 43.215,81.566 43.325 C 81.144 43.435,80.900 43.362,81.023 43.163 C 81.146 42.963,81.069 42.800,80.851 42.800 C 80.632 42.800,80.326 43.205,80.170 43.700 C 79.767 44.976,77.950 46.438,77.103 46.169 C 76.601 46.010,76.400 46.163,76.400 46.707 C 76.400 47.836,72.790 50.800,71.414 50.800 C 71.072 50.800,70.800 51.145,70.800 51.580 C 70.800 52.026,69.998 53.011,68.925 53.880 C 67.895 54.716,66.211 56.165,65.184 57.100 C 64.157 58.035,63.105 58.800,62.845 58.800 C 62.200 58.800,59.600 61.447,59.600 62.103 C 59.600 62.395,58.785 63.433,57.790 64.410 C 56.794 65.387,55.509 66.865,54.935 67.693 C 54.360 68.523,53.556 69.200,53.146 69.200 C 52.725 69.200,52.400 69.482,52.400 69.847 C 52.400 70.203,51.905 71.076,51.300 71.787 C 50.695 72.498,49.598 73.827,48.863 74.740 C 48.127 75.653,47.182 76.400,46.763 76.400 C 46.343 76.400,46.000 76.591,46.000 76.824 C 46.000 77.057,46.206 77.120,46.458 76.964 C 46.709 76.809,46.580 77.248,46.171 77.941 C 45.762 78.633,45.224 79.200,44.975 79.200 C 44.460 79.200,42.800 80.551,42.800 80.971 C 42.800 81.123,42.963 81.146,43.163 81.023 C 43.362 80.900,43.435 81.144,43.325 81.566 C 43.215 81.987,42.691 82.441,42.162 82.574 C 41.468 82.748,41.200 83.093,41.200 83.811 C 41.200 84.896,39.786 87.050,37.158 89.971 C 36.805 90.363,36.396 91.160,36.250 91.742 C 36.104 92.324,35.758 92.800,35.480 92.800 C 35.202 92.800,34.765 93.295,34.508 93.900 C 34.005 95.086,32.331 97.983,31.216 99.600 C 30.836 100.150,30.273 101.185,29.965 101.900 C 29.657 102.615,29.179 103.200,28.902 103.200 C 28.626 103.200,28.400 103.566,28.400 104.013 C 28.400 104.461,27.860 105.355,27.200 106.000 C 26.031 107.143,25.600 107.894,26.395 107.403 C 26.876 107.106,26.532 108.099,25.527 109.912 C 25.127 110.634,24.800 111.579,24.800 112.012 C 24.800 112.445,24.546 112.800,24.235 112.800 C 23.888 112.800,23.566 113.416,23.400 114.400 C 23.227 115.424,22.917 116.000,22.538 116.000 C 22.128 116.000,22.024 116.246,22.200 116.800 C 22.346 117.259,22.272 117.600,22.027 117.600 C 21.792 117.600,21.600 117.960,21.600 118.400 C 21.600 118.860,21.333 119.200,20.973 119.200 C 20.528 119.200,20.420 119.432,20.600 120.000 C 20.781 120.571,20.672 120.800,20.219 120.800 C 19.742 120.800,19.647 121.048,19.836 121.800 C 20.030 122.576,19.933 122.800,19.400 122.800 C 18.867 122.800,18.770 123.024,18.964 123.800 C 19.109 124.377,19.043 124.800,18.808 124.800 C 18.583 124.800,18.400 125.160,18.400 125.600 C 18.400 126.060,18.133 126.400,17.773 126.400 C 17.336 126.400,17.220 126.634,17.391 127.170 C 17.549 127.669,17.395 128.075,16.956 128.321 C 16.540 128.553,16.374 128.955,16.528 129.357 C 16.666 129.717,16.424 130.645,15.990 131.418 C 15.555 132.192,15.200 133.185,15.200 133.625 C 15.200 134.065,14.917 134.534,14.570 134.667 C 14.143 134.831,14.015 135.204,14.172 135.830 C 14.299 136.336,14.222 136.863,14.001 136.999 C 13.781 137.136,13.600 137.692,13.600 138.236 C 13.600 138.780,13.317 139.334,12.970 139.467 C 12.543 139.631,12.415 140.004,12.572 140.630 C 12.699 141.136,12.622 141.663,12.401 141.799 C 12.181 141.936,12.000 142.582,12.000 143.236 C 12.000 143.921,11.747 144.522,11.403 144.654 C 10.986 144.814,10.883 145.191,11.062 145.904 C 11.245 146.633,11.114 147.073,10.606 147.445 C 10.080 147.830,9.956 148.282,10.134 149.170 C 10.309 150.045,10.198 150.473,9.727 150.737 C 9.252 151.003,9.145 151.427,9.327 152.334 C 9.463 153.013,9.400 153.677,9.187 153.808 C 8.974 153.940,8.800 154.924,8.800 155.995 C 8.800 157.066,8.575 158.181,8.300 158.471 C 8.025 158.762,7.756 159.810,7.702 160.799 C 7.648 161.789,7.423 162.659,7.202 162.733 C 6.981 162.806,6.800 163.932,6.800 165.233 C 6.800 166.535,6.665 167.600,6.500 167.601 C 6.335 167.601,6.152 168.881,6.092 170.444 C 6.033 172.008,5.812 174.032,5.602 174.944 C 5.392 175.855,5.215 177.275,5.210 178.100 C 5.204 178.925,5.049 179.600,4.865 179.600 C 4.680 179.600,4.517 188.780,4.501 200.000 C 4.484 212.006,4.622 220.400,4.836 220.400 C 5.036 220.400,5.201 221.165,5.202 222.100 C 5.203 223.035,5.375 224.430,5.584 225.200 C 5.793 225.970,6.017 227.860,6.082 229.400 C 6.147 230.940,6.334 232.300,6.498 232.422 C 6.662 232.545,6.842 233.625,6.898 234.822 C 6.954 236.020,7.137 237.102,7.304 237.226 C 7.471 237.350,7.651 238.250,7.704 239.226 C 7.757 240.202,8.045 241.258,8.344 241.572 C 8.709 241.956,8.827 242.774,8.705 244.053 C 8.574 245.408,8.675 246.020,9.054 246.165 C 9.421 246.306,9.508 246.761,9.333 247.635 C 9.140 248.600,9.245 248.994,9.777 249.291 C 10.310 249.590,10.416 249.989,10.227 250.994 C 10.044 251.972,10.139 252.368,10.600 252.545 C 11.026 252.708,11.145 253.082,10.980 253.737 C 10.814 254.397,10.935 254.766,11.370 254.933 C 11.776 255.089,12.000 255.669,12.000 256.564 C 12.000 257.328,12.187 258.069,12.416 258.210 C 12.645 258.352,12.719 258.825,12.580 259.263 C 12.427 259.746,12.560 260.244,12.917 260.529 C 13.539 261.026,14.130 263.328,13.542 262.964 C 13.354 262.848,13.200 262.943,13.200 263.176 C 13.200 263.409,13.380 263.600,13.600 263.600 C 13.820 263.600,14.000 263.941,14.000 264.357 C 14.000 264.774,14.282 265.223,14.628 265.355 C 15.045 265.515,15.170 265.865,15.001 266.398 C 14.854 266.859,14.928 267.200,15.173 267.200 C 15.408 267.200,15.600 267.631,15.600 268.157 C 15.600 268.684,15.860 269.214,16.178 269.336 C 16.598 269.497,16.693 269.949,16.526 270.979 C 16.376 271.905,16.453 272.400,16.748 272.400 C 16.996 272.400,17.200 272.670,17.200 273.000 C 17.200 273.330,17.482 273.600,17.827 273.600 C 18.272 273.600,18.380 273.832,18.200 274.400 C 18.019 274.971,18.128 275.200,18.581 275.200 C 19.058 275.200,19.153 275.448,18.964 276.200 C 18.771 276.971,18.868 277.200,19.388 277.200 C 19.930 277.200,20.012 277.437,19.800 278.400 C 19.634 279.155,19.697 279.600,19.968 279.600 C 20.206 279.600,20.400 279.870,20.400 280.200 C 20.400 280.530,20.682 280.800,21.027 280.800 C 21.472 280.800,21.580 281.032,21.400 281.600 C 21.217 282.177,21.328 282.400,21.800 282.400 C 22.272 282.400,22.383 282.623,22.200 283.200 C 22.017 283.777,22.128 284.000,22.600 284.000 C 23.072 284.000,23.183 284.223,23.000 284.800 C 22.817 285.377,22.928 285.600,23.400 285.600 C 23.872 285.600,23.983 285.823,23.800 286.400 C 23.623 286.958,23.728 287.200,24.149 287.200 C 24.555 287.200,24.838 287.778,25.017 288.973 C 25.163 289.948,25.509 290.833,25.786 290.939 C 26.063 291.045,26.387 291.508,26.507 291.967 C 26.627 292.426,26.562 292.700,26.363 292.577 C 26.163 292.454,26.000 292.543,26.000 292.776 C 26.000 293.009,26.180 293.200,26.400 293.200 C 26.620 293.200,26.800 293.548,26.800 293.973 C 26.800 294.398,27.160 294.860,27.600 295.000 C 28.040 295.140,28.400 295.602,28.400 296.027 C 28.400 296.472,28.674 296.800,29.047 296.800 C 29.507 296.800,29.630 297.042,29.474 297.640 C 29.320 298.227,29.606 298.824,30.427 299.626 C 31.072 300.257,31.600 301.189,31.600 301.698 C 31.600 302.207,31.960 302.883,32.400 303.200 C 32.840 303.517,33.200 304.057,33.200 304.400 C 33.200 304.743,33.560 305.283,34.000 305.600 C 34.440 305.917,34.800 306.364,34.800 306.592 C 34.800 306.821,35.160 307.232,35.600 307.507 C 36.040 307.782,36.400 308.416,36.400 308.915 C 36.400 309.415,36.760 310.083,37.200 310.400 C 37.640 310.717,38.000 311.268,38.000 311.624 C 38.000 311.980,38.436 312.470,38.969 312.713 C 39.667 313.031,39.878 313.379,39.727 313.959 C 39.567 314.571,39.757 314.824,40.520 315.016 C 41.073 315.154,41.615 315.613,41.725 316.034 C 41.835 316.456,41.762 316.700,41.563 316.577 C 41.363 316.454,41.200 316.540,41.200 316.769 C 41.200 316.998,41.633 317.293,42.162 317.426 C 42.691 317.559,43.215 318.013,43.325 318.434 C 43.435 318.856,43.362 319.100,43.163 318.977 C 42.283 318.433,42.933 319.390,44.400 320.800 C 45.280 321.646,46.000 322.549,46.000 322.808 C 46.000 323.403,48.326 325.600,48.956 325.600 C 49.215 325.600,49.769 326.185,50.185 326.900 C 50.602 327.615,51.271 328.491,51.672 328.847 C 52.072 329.203,52.400 329.788,52.400 330.147 C 52.400 330.517,52.723 330.800,53.146 330.800 C 53.556 330.800,54.360 331.477,54.935 332.307 C 55.509 333.135,56.794 334.613,57.790 335.590 C 58.785 336.567,59.600 337.607,59.600 337.901 C 59.600 338.595,61.405 340.400,62.099 340.400 C 62.393 340.400,63.433 341.215,64.410 342.210 C 65.387 343.206,66.865 344.491,67.693 345.065 C 68.523 345.640,69.200 346.444,69.200 346.854 C 69.200 347.312,69.485 347.600,69.936 347.600 C 70.340 347.600,71.245 348.230,71.945 349.000 C 72.646 349.770,73.485 350.400,73.810 350.400 C 74.134 350.400,74.400 350.651,74.400 350.958 C 74.400 351.264,74.922 352.074,75.560 352.758 C 76.694 353.971,77.518 354.438,76.975 353.560 C 76.784 353.251,76.956 353.255,77.552 353.574 C 78.018 353.824,78.400 354.174,78.400 354.353 C 78.400 355.079,79.879 356.310,81.063 356.570 C 81.948 356.764,82.398 357.139,82.570 357.824 C 82.705 358.361,83.002 358.800,83.231 358.800 C 83.460 358.800,83.546 358.637,83.423 358.437 C 83.300 358.238,83.544 358.165,83.966 358.275 C 84.387 358.385,84.846 358.927,84.984 359.480 C 85.176 360.243,85.429 360.433,86.041 360.273 C 86.621 360.122,86.969 360.333,87.287 361.031 C 87.530 361.564,88.020 362.000,88.376 362.000 C 88.732 362.000,89.283 362.360,89.600 362.800 C 89.917 363.240,90.482 363.600,90.856 363.600 C 91.965 363.600,92.800 364.048,92.800 364.643 C 92.800 364.949,93.030 365.200,93.312 365.200 C 93.593 365.200,94.083 365.560,94.400 366.000 C 94.717 366.440,95.257 366.800,95.600 366.800 C 95.943 366.800,96.483 367.160,96.800 367.600 C 97.117 368.040,97.775 368.400,98.261 368.400 C 98.795 368.400,99.247 368.718,99.400 369.200 C 99.540 369.640,100.002 370.000,100.427 370.000 C 100.852 370.000,101.200 370.183,101.200 370.408 C 101.200 370.643,101.623 370.709,102.200 370.564 C 102.956 370.374,103.200 370.470,103.200 370.957 C 103.200 371.310,103.430 371.600,103.712 371.600 C 103.993 371.600,104.483 371.960,104.800 372.400 C 105.117 372.840,105.697 373.200,106.088 373.200 C 106.480 373.200,106.800 373.380,106.800 373.600 C 106.800 373.820,106.991 374.000,107.224 374.000 C 107.457 374.000,107.546 373.837,107.423 373.637 C 107.300 373.438,107.574 373.373,108.033 373.493 C 108.492 373.613,108.962 373.956,109.077 374.256 C 109.192 374.555,109.716 374.800,110.243 374.800 C 110.769 374.800,111.200 374.992,111.200 375.227 C 111.200 375.472,111.541 375.546,112.000 375.400 C 112.577 375.217,112.800 375.328,112.800 375.800 C 112.800 376.272,113.023 376.383,113.600 376.200 C 114.177 376.017,114.400 376.128,114.400 376.600 C 114.400 377.072,114.623 377.183,115.200 377.000 C 115.768 376.820,116.000 376.928,116.000 377.373 C 116.000 377.718,116.270 378.000,116.600 378.000 C 116.930 378.000,117.200 378.200,117.200 378.443 C 117.200 378.717,117.584 378.790,118.200 378.636 C 118.938 378.451,119.200 378.544,119.200 378.992 C 119.200 379.327,119.470 379.600,119.800 379.600 C 120.130 379.600,120.400 379.794,120.400 380.032 C 120.400 380.303,120.845 380.366,121.600 380.200 C 122.563 379.988,122.800 380.070,122.800 380.612 C 122.800 381.132,123.029 381.229,123.800 381.036 C 124.552 380.847,124.800 380.942,124.800 381.419 C 124.800 381.872,125.029 381.981,125.600 381.800 C 126.177 381.617,126.400 381.728,126.400 382.200 C 126.400 382.672,126.623 382.783,127.202 382.599 C 127.744 382.427,128.086 382.558,128.256 383.002 C 128.434 383.465,128.791 383.588,129.463 383.420 C 130.114 383.257,130.492 383.374,130.652 383.790 C 130.780 384.126,131.316 384.400,131.843 384.400 C 132.369 384.400,132.800 384.592,132.800 384.827 C 132.800 385.072,133.141 385.146,133.602 384.999 C 134.144 384.827,134.486 384.958,134.656 385.402 C 134.830 385.856,135.193 385.988,135.830 385.828 C 136.336 385.701,136.863 385.778,136.999 385.999 C 137.136 386.219,137.692 386.400,138.236 386.400 C 138.780 386.400,139.332 386.679,139.463 387.021 C 139.637 387.473,140.014 387.573,140.851 387.389 C 141.685 387.206,142.066 387.305,142.237 387.751 C 142.402 388.183,142.803 388.299,143.588 388.142 C 144.210 388.018,144.823 388.114,144.975 388.360 C 145.125 388.602,145.692 388.800,146.236 388.800 C 146.780 388.800,147.323 389.056,147.444 389.370 C 147.599 389.774,148.058 389.875,149.024 389.719 C 150.053 389.552,150.447 389.657,150.636 390.149 C 150.787 390.543,151.343 390.800,152.043 390.800 C 152.679 390.800,153.200 390.994,153.200 391.232 C 153.200 391.525,154.032 391.575,155.795 391.386 C 157.967 391.153,158.430 391.212,158.634 391.744 C 158.814 392.214,159.353 392.359,160.709 392.300 C 161.860 392.249,162.601 392.402,162.703 392.710 C 162.808 393.023,163.721 393.200,165.233 393.200 C 166.535 393.200,167.600 393.355,167.600 393.545 C 167.600 393.736,169.265 394.009,171.300 394.152 C 178.388 394.653,180.603 394.894,181.000 395.208 C 181.527 395.623,219.337 395.572,219.613 395.156 C 219.730 394.979,221.395 394.782,223.312 394.717 C 225.229 394.653,226.798 394.465,226.799 394.300 C 226.799 394.135,228.060 394.000,229.600 394.000 C 231.200 394.000,232.400 393.829,232.400 393.600 C 232.400 393.380,232.861 393.200,233.424 393.200 C 234.004 393.200,234.340 393.373,234.200 393.600 C 234.064 393.820,234.143 394.000,234.376 394.000 C 234.609 394.000,234.800 393.820,234.800 393.600 C 234.800 393.380,235.340 393.200,236.000 393.200 C 236.660 393.200,237.200 393.020,237.200 392.800 C 237.200 392.580,238.023 392.400,239.029 392.400 C 240.159 392.400,241.098 392.160,241.487 391.770 C 241.972 391.285,242.561 391.202,244.058 391.408 C 245.360 391.587,246.000 391.531,246.000 391.238 C 246.000 390.996,246.697 390.800,247.557 390.800 C 248.564 390.800,249.195 390.590,249.342 390.207 C 249.508 389.775,249.913 389.683,250.835 389.867 C 251.782 390.056,252.194 389.953,252.472 389.458 C 252.722 389.011,253.143 388.871,253.767 389.027 C 254.396 389.185,254.769 389.058,254.933 388.630 C 255.089 388.224,255.669 388.000,256.564 388.000 C 257.328 388.000,258.064 387.819,258.201 387.599 C 258.337 387.378,258.864 387.301,259.370 387.428 C 259.996 387.585,260.369 387.457,260.533 387.030 C 260.666 386.683,261.220 386.400,261.764 386.400 C 262.308 386.400,262.864 386.219,263.001 385.999 C 263.137 385.778,263.664 385.701,264.170 385.828 C 264.807 385.988,265.170 385.856,265.344 385.402 C 265.514 384.958,265.856 384.827,266.398 384.999 C 266.859 385.146,267.200 385.072,267.200 384.827 C 267.200 384.592,267.631 384.400,268.157 384.400 C 268.684 384.400,269.218 384.130,269.345 383.800 C 269.471 383.470,270.031 383.200,270.587 383.200 C 271.144 383.200,271.600 383.020,271.600 382.800 C 271.600 382.580,271.949 382.400,272.376 382.400 C 272.803 382.400,273.269 382.213,273.410 381.984 C 273.552 381.755,274.012 381.677,274.434 381.811 C 274.975 381.983,275.200 381.862,275.200 381.400 C 275.200 380.942,275.425 380.818,275.953 380.985 C 276.441 381.140,276.794 380.994,276.956 380.569 C 277.136 380.100,277.489 379.986,278.204 380.165 C 278.952 380.353,279.200 380.257,279.200 379.781 C 279.200 379.328,279.429 379.219,280.000 379.400 C 280.577 379.583,280.800 379.472,280.800 379.000 C 280.800 378.528,281.023 378.417,281.600 378.600 C 282.177 378.783,282.400 378.672,282.400 378.200 C 282.400 377.728,282.623 377.617,283.200 377.800 C 283.768 377.980,284.000 377.872,284.000 377.427 C 284.000 377.067,284.340 376.800,284.800 376.800 C 285.240 376.800,285.600 376.608,285.600 376.373 C 285.600 376.128,285.941 376.054,286.400 376.200 C 286.971 376.381,287.200 376.272,287.200 375.819 C 287.200 375.342,287.448 375.247,288.200 375.436 C 288.816 375.590,289.200 375.517,289.200 375.243 C 289.200 375.000,289.541 374.800,289.957 374.800 C 290.374 374.800,290.808 374.555,290.923 374.256 C 291.038 373.956,291.508 373.613,291.967 373.493 C 292.426 373.373,292.700 373.438,292.577 373.637 C 292.454 373.837,292.543 374.000,292.776 374.000 C 293.009 374.000,293.200 373.820,293.200 373.600 C 293.200 373.380,293.548 373.200,293.973 373.200 C 294.398 373.200,294.860 372.840,295.000 372.400 C 295.140 371.960,295.602 371.600,296.027 371.600 C 296.452 371.600,296.800 371.351,296.800 371.047 C 296.800 370.742,297.115 370.385,297.500 370.253 C 297.885 370.121,298.614 369.833,299.120 369.612 C 299.716 369.352,299.954 369.350,299.797 369.605 C 299.663 369.822,299.731 370.000,299.949 370.000 C 300.168 370.000,300.460 369.640,300.600 369.200 C 300.740 368.760,301.202 368.400,301.627 368.400 C 302.052 368.400,302.400 368.151,302.400 367.847 C 302.400 367.542,302.760 367.199,303.201 367.084 C 303.641 366.969,303.900 367.038,303.777 367.237 C 303.654 367.437,303.731 367.600,303.949 367.600 C 304.168 367.600,304.464 367.229,304.608 366.776 C 304.752 366.322,305.349 365.740,305.935 365.482 C 306.521 365.224,307.235 364.695,307.523 364.306 C 307.810 363.918,308.395 363.600,308.823 363.600 C 309.250 363.600,309.600 363.342,309.600 363.027 C 309.600 362.712,309.978 362.334,310.439 362.187 C 310.901 362.041,311.621 361.579,312.039 361.161 C 312.458 360.742,313.238 360.400,313.773 360.400 C 314.395 360.400,314.838 360.111,315.000 359.600 C 315.162 359.091,315.605 358.800,316.219 358.800 C 316.905 358.800,317.255 358.522,317.426 357.838 C 317.559 357.309,318.013 356.785,318.434 356.675 C 318.856 356.565,319.100 356.638,318.977 356.837 C 318.854 357.037,318.931 357.200,319.149 357.200 C 319.368 357.200,319.672 356.803,319.826 356.319 C 320.155 355.281,320.584 354.818,322.185 353.773 C 322.836 353.348,323.230 353.225,323.061 353.500 C 322.889 353.779,322.940 354.000,323.176 354.000 C 323.409 354.000,323.600 353.650,323.600 353.223 C 323.600 352.794,324.336 351.851,325.239 351.123 C 326.141 350.395,327.470 349.305,328.192 348.700 C 328.915 348.095,329.797 347.600,330.153 347.600 C 330.512 347.600,330.800 347.276,330.800 346.872 C 330.800 346.471,331.475 345.627,332.300 344.996 C 335.200 342.777,349.192 328.249,350.154 326.458 C 350.845 325.171,352.561 323.600,353.275 323.600 C 353.674 323.600,354.000 323.409,354.000 323.176 C 354.000 322.940,353.779 322.889,353.500 323.061 C 353.225 323.230,353.348 322.836,353.773 322.185 C 354.818 320.584,355.281 320.155,356.319 319.826 C 356.803 319.672,357.200 319.368,357.200 319.149 C 357.200 318.931,357.037 318.854,356.837 318.977 C 356.638 319.100,356.565 318.856,356.675 318.434 C 356.785 318.013,357.309 317.559,357.838 317.426 C 358.584 317.239,358.800 316.918,358.800 315.996 C 358.800 315.240,359.091 314.625,359.600 314.307 C 360.040 314.032,360.400 313.593,360.400 313.331 C 360.400 313.068,360.760 312.740,361.200 312.600 C 361.711 312.438,362.000 311.995,362.000 311.373 C 362.000 310.838,362.342 310.058,362.761 309.639 C 363.179 309.221,363.641 308.501,363.787 308.039 C 363.934 307.578,364.297 307.200,364.595 307.200 C 364.893 307.200,365.255 306.660,365.400 306.000 C 365.545 305.340,365.905 304.800,366.200 304.800 C 366.495 304.800,366.855 304.260,367.000 303.600 C 367.145 302.940,367.519 302.400,367.832 302.400 C 368.144 302.400,368.397 302.175,368.393 301.900 C 368.379 300.983,370.593 296.822,371.100 296.811 C 371.375 296.805,371.600 296.452,371.600 296.027 C 371.600 295.602,371.960 295.140,372.400 295.000 C 372.840 294.860,373.200 294.398,373.200 293.973 C 373.200 293.548,373.380 293.200,373.600 293.200 C 373.820 293.200,374.000 292.840,374.000 292.400 C 374.000 291.960,374.180 291.600,374.400 291.600 C 374.620 291.600,374.800 291.409,374.800 291.176 C 374.800 290.943,374.646 290.848,374.458 290.964 C 374.270 291.081,374.201 290.729,374.306 290.182 C 374.410 289.635,374.654 289.090,374.848 288.970 C 375.041 288.851,375.200 288.403,375.200 287.976 C 375.200 287.538,375.473 287.200,375.827 287.200 C 376.272 287.200,376.380 286.968,376.200 286.400 C 376.017 285.823,376.128 285.600,376.600 285.600 C 377.072 285.600,377.183 285.377,377.000 284.800 C 376.817 284.223,376.928 284.000,377.400 284.000 C 377.872 284.000,377.983 283.777,377.800 283.200 C 377.617 282.623,377.728 282.400,378.200 282.400 C 378.672 282.400,378.783 282.177,378.600 281.600 C 378.417 281.023,378.528 280.800,379.000 280.800 C 379.472 280.800,379.583 280.577,379.400 280.000 C 379.219 279.429,379.328 279.200,379.781 279.200 C 380.257 279.200,380.353 278.952,380.165 278.204 C 379.986 277.489,380.100 277.136,380.569 276.956 C 380.994 276.794,381.140 276.441,380.985 275.953 C 380.853 275.537,380.937 275.200,381.173 275.200 C 381.408 275.200,381.600 274.840,381.600 274.400 C 381.600 273.940,381.867 273.600,382.227 273.600 C 382.663 273.600,382.780 273.366,382.611 272.834 C 382.477 272.412,382.555 271.952,382.784 271.810 C 383.013 271.669,383.200 271.124,383.200 270.600 C 383.200 270.076,383.380 269.536,383.600 269.400 C 383.820 269.264,384.000 268.798,384.000 268.364 C 384.000 267.930,384.275 267.469,384.612 267.340 C 384.999 267.192,385.136 266.828,384.984 266.351 C 384.829 265.860,384.975 265.508,385.402 265.344 C 385.856 265.170,385.988 264.807,385.828 264.170 C 385.701 263.664,385.778 263.137,385.999 263.001 C 386.219 262.864,386.400 262.308,386.400 261.764 C 386.400 261.220,386.683 260.666,387.030 260.533 C 387.457 260.369,387.585 259.996,387.428 259.370 C 387.301 258.864,387.378 258.337,387.599 258.201 C 387.819 258.064,388.000 257.344,388.000 256.600 C 388.000 255.856,388.180 255.136,388.400 255.000 C 388.620 254.864,388.800 254.308,388.800 253.764 C 388.800 253.220,389.074 252.670,389.409 252.541 C 389.860 252.368,389.955 251.965,389.773 250.994 C 389.584 249.989,389.690 249.590,390.223 249.291 C 390.755 248.994,390.860 248.600,390.667 247.635 C 390.492 246.761,390.579 246.306,390.946 246.165 C 391.325 246.020,391.426 245.408,391.295 244.053 C 391.173 242.774,391.291 241.956,391.656 241.572 C 391.955 241.258,392.244 240.190,392.298 239.201 C 392.352 238.211,392.577 237.341,392.798 237.267 C 393.019 237.194,393.200 236.608,393.200 235.967 C 393.200 235.325,393.380 234.800,393.600 234.800 C 393.820 234.800,394.000 234.609,394.000 234.376 C 394.000 234.143,393.820 234.064,393.600 234.200 C 393.373 234.340,393.200 234.004,393.200 233.424 C 393.200 232.861,393.355 232.400,393.545 232.400 C 393.736 232.400,394.009 230.735,394.152 228.700 C 394.623 222.039,394.889 219.600,395.147 219.600 C 396.124 219.598,395.459 180.434,394.389 175.000 C 394.173 173.900,393.952 171.785,393.898 170.301 C 393.844 168.816,393.665 167.601,393.500 167.601 C 393.335 167.600,393.200 166.535,393.200 165.233 C 393.200 163.932,393.019 162.806,392.798 162.733 C 392.577 162.659,392.352 161.789,392.298 160.799 C 392.244 159.810,391.955 158.742,391.656 158.428 C 391.291 158.044,391.173 157.226,391.295 155.947 C 391.426 154.592,391.325 153.980,390.946 153.835 C 390.579 153.694,390.492 153.239,390.667 152.365 C 390.860 151.400,390.755 151.006,390.223 150.709 C 389.690 150.410,389.584 150.011,389.773 149.006 C 389.955 148.035,389.860 147.632,389.409 147.459 C 389.074 147.330,388.800 146.780,388.800 146.236 C 388.800 145.692,388.620 145.136,388.400 145.000 C 388.180 144.864,388.000 144.144,388.000 143.400 C 388.000 142.656,387.819 141.936,387.599 141.799 C 387.378 141.663,387.301 141.136,387.428 140.630 C 387.585 140.004,387.457 139.631,387.030 139.467 C 386.683 139.334,386.400 138.780,386.400 138.236 C 386.400 137.692,386.219 137.136,385.999 136.999 C 385.778 136.863,385.701 136.336,385.828 135.830 C 385.988 135.193,385.856 134.830,385.402 134.656 C 384.975 134.492,384.829 134.140,384.984 133.649 C 385.136 133.172,384.999 132.808,384.612 132.660 C 384.275 132.531,384.000 132.070,384.000 131.636 C 384.000 131.202,383.819 130.736,383.599 130.599 C 383.378 130.463,383.301 129.936,383.428 129.430 C 383.588 128.793,383.456 128.430,383.002 128.256 C 382.558 128.086,382.427 127.744,382.599 127.202 C 382.780 126.632,382.672 126.400,382.227 126.400 C 381.867 126.400,381.600 126.060,381.600 125.600 C 381.600 125.160,381.417 124.800,381.192 124.800 C 380.957 124.800,380.891 124.377,381.036 123.800 C 381.230 123.024,381.133 122.800,380.600 122.800 C 380.067 122.800,379.970 122.576,380.164 121.800 C 380.353 121.048,380.258 120.800,379.781 120.800 C 379.328 120.800,379.219 120.571,379.400 120.000 C 379.581 119.429,379.472 119.200,379.019 119.200 C 378.542 119.200,378.447 118.952,378.636 118.200 C 378.790 117.584,378.717 117.200,378.443 117.200 C 378.200 117.200,378.000 116.930,378.000 116.600 C 378.000 116.270,377.730 116.000,377.400 116.000 C 377.067 116.000,376.800 115.644,376.800 115.200 C 376.800 114.760,376.608 114.400,376.373 114.400 C 376.128 114.400,376.054 114.059,376.200 113.600 C 376.377 113.042,376.272 112.800,375.851 112.800 C 375.445 112.800,375.162 112.222,374.983 111.027 C 374.837 110.052,374.491 109.167,374.214 109.061 C 373.937 108.955,373.613 108.492,373.493 108.033 C 373.373 107.574,373.438 107.300,373.637 107.423 C 373.837 107.546,374.000 107.457,374.000 107.224 C 374.000 106.991,373.820 106.800,373.600 106.800 C 373.380 106.800,373.200 106.452,373.200 106.027 C 373.200 105.602,372.840 105.140,372.400 105.000 C 371.960 104.860,371.600 104.398,371.600 103.973 C 371.600 103.548,371.375 103.195,371.100 103.189 C 370.593 103.178,368.379 99.017,368.393 98.100 C 368.397 97.825,368.144 97.600,367.832 97.600 C 367.519 97.600,367.145 97.060,367.000 96.400 C 366.855 95.740,366.476 95.200,366.158 95.200 C 365.836 95.200,365.474 94.669,365.340 94.000 C 365.208 93.340,364.853 92.800,364.550 92.800 C 364.248 92.800,364.000 92.530,364.000 92.200 C 364.000 91.870,363.850 91.600,363.668 91.600 C 363.485 91.600,363.080 91.105,362.768 90.500 C 362.456 89.895,362.106 89.310,361.989 89.200 C 361.061 88.325,358.800 84.638,358.800 83.999 C 358.800 83.560,358.607 83.200,358.371 83.200 C 358.136 83.200,357.721 82.975,357.449 82.700 C 356.800 82.043,356.283 80.680,356.805 81.003 C 357.022 81.137,357.200 81.069,357.200 80.851 C 357.200 80.632,356.795 80.326,356.300 80.170 C 355.023 79.767,353.660 78.057,353.896 77.156 C 354.040 76.605,353.881 76.400,353.313 76.400 C 352.578 76.400,350.957 74.913,350.159 73.507 C 349.698 72.696,344.190 66.630,340.700 63.090 C 339.215 61.584,337.987 60.227,337.970 60.076 C 337.954 59.924,336.579 58.630,334.916 57.200 C 333.253 55.770,330.794 53.565,329.451 52.300 C 328.109 51.035,326.877 50.000,326.714 50.000 C 326.552 50.000,325.475 49.100,324.322 48.000 C 323.169 46.900,322.112 46.000,321.974 46.000 C 321.526 46.000,320.000 44.519,320.000 44.085 C 320.000 43.853,319.477 43.549,318.837 43.408 C 318.050 43.235,317.596 42.838,317.430 42.176 C 317.240 41.421,316.921 41.200,316.021 41.200 C 315.381 41.200,314.619 40.969,314.329 40.687 C 314.038 40.405,313.170 39.739,312.400 39.208 C 311.630 38.678,310.630 37.857,310.177 37.384 C 309.725 36.912,308.870 36.404,308.277 36.255 C 307.685 36.106,307.200 35.808,307.200 35.592 C 307.200 35.377,307.012 35.200,306.783 35.200 C 306.554 35.200,305.980 34.840,305.508 34.400 C 305.036 33.960,304.144 33.376,303.525 33.103 C 302.906 32.829,302.400 32.379,302.400 32.102 C 302.400 31.826,302.175 31.603,301.900 31.607 C 300.983 31.621,296.822 29.407,296.811 28.900 C 296.805 28.625,296.539 28.400,296.220 28.400 C 295.736 28.400,293.666 27.455,289.105 25.151 C 288.723 24.958,288.138 24.800,287.805 24.800 C 287.472 24.800,287.200 24.518,287.200 24.173 C 287.200 23.728,286.968 23.620,286.400 23.800 C 285.941 23.946,285.600 23.872,285.600 23.627 C 285.600 23.392,285.240 23.200,284.800 23.200 C 284.340 23.200,284.000 22.933,284.000 22.573 C 284.000 22.128,283.768 22.020,283.200 22.200 C 282.741 22.346,282.400 22.272,282.400 22.027 C 282.400 21.792,282.040 21.600,281.600 21.600 C 281.140 21.600,280.800 21.333,280.800 20.973 C 280.800 20.528,280.568 20.420,280.000 20.600 C 279.429 20.781,279.200 20.672,279.200 20.219 C 279.200 19.742,278.952 19.647,278.200 19.836 C 277.424 20.030,277.200 19.933,277.200 19.400 C 277.200 18.867,276.976 18.770,276.200 18.964 C 275.623 19.109,275.200 19.043,275.200 18.808 C 275.200 18.583,274.840 18.400,274.400 18.400 C 273.940 18.400,273.600 18.133,273.600 17.773 C 273.600 17.337,273.366 17.220,272.834 17.389 C 272.412 17.523,271.952 17.445,271.810 17.216 C 271.669 16.987,271.231 16.800,270.838 16.800 C 269.856 16.800,267.600 15.635,267.600 15.127 C 267.600 14.884,267.183 14.818,266.591 14.966 C 265.870 15.147,265.512 15.037,265.337 14.580 C 265.169 14.143,264.800 14.014,264.170 14.172 C 263.664 14.299,263.137 14.222,263.001 14.001 C 262.864 13.781,262.308 13.600,261.764 13.600 C 261.220 13.600,260.666 13.317,260.533 12.970 C 260.369 12.543,259.996 12.415,259.370 12.572 C 258.864 12.699,258.337 12.622,258.201 12.401 C 258.064 12.181,257.418 12.000,256.764 12.000 C 256.092 12.000,255.478 11.747,255.351 11.417 C 255.198 11.017,254.778 10.904,254.012 11.058 C 253.390 11.182,252.777 11.086,252.625 10.840 C 252.475 10.598,251.728 10.400,250.964 10.400 C 250.089 10.400,249.488 10.175,249.341 9.791 C 249.168 9.341,248.765 9.245,247.799 9.427 C 247.025 9.572,246.382 9.494,246.222 9.236 C 246.074 8.996,245.165 8.800,244.202 8.800 C 243.240 8.800,241.988 8.624,241.421 8.408 C 240.460 8.043,239.231 7.802,233.000 6.760 C 219.538 4.508,196.149 3.722,181.200 5.019 M212.390 98.397 C 218.214 98.603,223.884 98.978,224.990 99.229 C 235.623 101.646,238.826 102.676,244.800 105.594 C 247.131 106.733,250.162 108.471,250.831 109.052 C 251.179 109.353,251.646 109.600,251.870 109.600 C 252.093 109.600,252.602 109.960,253.000 110.400 C 253.398 110.840,253.924 111.200,254.168 111.200 C 254.838 111.200,263.614 120.247,265.690 123.078 C 274.003 134.413,276.308 150.686,271.683 165.400 C 268.882 174.311,257.434 188.734,250.253 192.400 C 247.843 193.630,248.049 194.807,250.928 196.263 C 262.449 202.090,272.532 213.590,276.173 225.057 C 277.002 227.665,277.842 230.213,278.040 230.719 C 278.238 231.224,278.400 232.223,278.400 232.939 C 278.400 233.654,278.568 234.411,278.773 234.620 C 279.097 234.951,279.473 239.020,279.657 244.200 C 279.749 246.777,279.110 253.208,278.740 253.437 C 278.553 253.553,278.400 254.346,278.400 255.200 C 278.400 256.054,278.220 256.864,278.000 257.000 C 277.780 257.136,277.600 257.766,277.600 258.400 C 277.600 259.034,277.420 259.664,277.200 259.800 C 276.980 259.936,276.800 260.476,276.800 261.000 C 276.800 261.524,276.620 262.064,276.400 262.200 C 276.180 262.336,276.000 262.799,276.000 263.229 C 276.000 263.659,275.841 264.323,275.646 264.705 C 275.451 265.087,274.866 266.385,274.346 267.589 C 273.212 270.213,270.138 275.019,268.115 277.330 C 263.819 282.237,254.760 290.393,252.800 291.119 C 252.470 291.242,252.110 291.445,252.000 291.571 C 251.738 291.871,247.378 294.021,243.600 295.711 C 240.193 297.237,233.761 299.287,230.200 299.984 C 228.880 300.242,227.170 300.623,226.400 300.830 C 223.509 301.608,197.732 302.027,159.600 301.915 L 120.200 301.800 120.098 200.400 C 120.041 144.630,120.081 98.775,120.185 98.500 C 120.419 97.883,195.539 97.799,212.390 98.397 M173.402 141.652 C 173.286 141.953,173.238 150.120,173.296 159.800 L 173.400 177.400 190.400 177.367 C 199.750 177.350,208.030 177.202,208.800 177.040 C 211.499 176.472,216.033 173.874,217.854 171.853 C 219.413 170.121,219.988 169.154,221.214 166.200 C 222.590 162.884,222.563 154.949,221.167 152.305 C 220.965 151.923,220.800 151.338,220.800 151.005 C 220.800 150.672,220.620 150.400,220.400 150.400 C 220.180 150.400,220.000 150.046,220.000 149.614 C 220.000 148.626,214.630 143.200,213.653 143.200 C 213.257 143.200,212.801 143.068,212.640 142.907 C 211.188 141.455,173.934 140.263,173.402 141.652 M173.386 218.892 C 173.279 219.171,173.238 227.770,173.296 238.000 L 173.400 256.600 191.600 256.555 C 209.094 256.511,212.946 256.335,213.426 255.558 C 213.548 255.361,213.997 255.200,214.424 255.200 C 214.851 255.200,215.200 255.064,215.200 254.898 C 215.200 254.731,215.785 254.347,216.500 254.045 C 218.222 253.315,221.877 249.758,222.710 248.000 C 223.075 247.230,223.671 246.277,224.033 245.882 C 225.291 244.513,225.448 236.227,224.315 231.000 C 223.575 227.589,219.470 222.418,216.500 221.157 C 215.785 220.853,215.200 220.469,215.200 220.302 C 215.200 220.136,214.840 220.000,214.400 220.000 C 213.960 220.000,213.600 219.839,213.600 219.642 C 213.600 218.588,173.788 217.845,173.386 218.892 " stroke="none" fill="#040404" fill-rule="evenodd"></path></g></svg>