<svg id="svg" xmlns="http://www.w3.org/2000/svg" xmlns:xlink="http://www.w3.org/1999/xlink" width="400" height="382.60869565217394" viewBox="0, 0, 400,382.60869565217394" version="1.1"><g id="svgg"><path id="path0" d="M63.975 52.632 C 55.486 53.922,55.421 53.949,51.600 57.742 C 50.190 59.142,48.116 61.178,46.990 62.268 C 45.803 63.418,44.413 65.306,43.677 66.770 C 42.906 68.304,41.696 69.925,40.584 70.913 C 36.695 74.369,36.938 65.542,36.938 203.445 L 36.938 320.574 38.024 325.137 C 38.622 327.646,39.341 330.058,39.623 330.496 C 39.905 330.934,40.435 332.067,40.801 333.014 C 41.166 333.962,42.265 335.598,43.242 336.651 C 44.219 337.703,45.755 339.653,46.656 340.983 C 48.233 343.312,55.815 347.943,58.051 347.943 C 58.989 347.943,63.698 350.247,64.688 351.191 C 65.840 352.290,66.979 352.744,71.005 353.708 C 74.667 354.585,332.385 354.907,340.122 354.045 C 344.494 353.557,345.388 353.174,347.091 351.055 C 347.780 350.197,349.158 349.035,350.153 348.473 C 358.571 343.715,360.139 341.697,362.018 333.206 L 363.035 328.612 363.167 249.569 C 363.322 156.425,363.511 161.185,359.549 158.321 C 357.550 156.877,357.278 156.512,355.309 152.637 C 353.661 149.394,352.410 148.317,349.904 147.985 C 348.839 147.844,345.249 147.009,341.926 146.131 C 336.890 144.799,335.058 144.495,330.909 144.303 C 324.055 143.986,320.120 142.514,316.885 139.056 C 314.357 136.353,314.144 135.786,313.842 130.959 C 313.417 124.167,312.399 118.507,310.668 113.301 L 309.076 108.517 306.108 106.924 C 303.140 105.331,297.620 101.349,297.106 100.430 C 296.669 99.649,292.450 97.932,289.952 97.519 C 288.618 97.298,271.697 97.037,249.569 96.895 L 211.483 96.651 208.995 95.461 C 207.627 94.806,205.979 93.759,205.334 93.133 C 204.689 92.507,203.176 91.267,201.971 90.377 C 199.667 88.675,197.951 86.607,196.648 83.962 C 196.051 82.750,195.421 82.165,193.989 81.495 C 191.673 80.410,189.535 78.142,188.232 75.387 C 187.416 73.663,186.928 73.142,185.464 72.430 C 183.134 71.298,180.195 68.520,179.354 66.655 C 178.836 65.507,178.241 64.961,176.741 64.259 C 174.271 63.102,171.746 60.585,170.642 58.178 C 169.872 56.501,169.516 56.181,167.283 55.160 C 159.632 51.662,158.093 51.566,108.971 51.519 L 71.531 51.483 63.975 52.632 M153.684 68.824 C 155.946 69.866,157.449 71.221,158.587 73.242 C 159.160 74.259,160.204 75.174,161.966 76.203 C 164.788 77.851,166.093 79.208,167.471 81.927 C 167.978 82.928,168.927 84.152,169.580 84.648 C 172.452 86.829,174.179 88.597,174.905 90.096 C 175.824 91.993,177.411 93.549,180.213 95.299 C 181.330 95.996,182.698 97.188,183.253 97.948 C 185.041 100.398,186.564 101.841,188.253 102.684 C 189.926 103.520,191.582 105.199,193.817 108.325 C 195.023 110.013,195.133 110.069,199.246 111.109 C 209.602 113.725,210.573 113.784,244.593 113.860 C 278.556 113.936,280.362 114.055,284.545 116.507 C 285.423 117.021,287.481 117.831,289.119 118.307 C 295.421 120.138,297.173 122.994,297.204 131.483 C 297.229 138.230,296.634 139.998,293.238 143.285 L 291.327 145.134 287.194 144.508 C 283.446 143.939,275.390 143.892,200.383 143.998 L 117.703 144.115 115.789 145.338 C 114.737 146.010,112.756 146.928,111.388 147.376 C 106.784 148.886,100.291 152.284,99.864 153.408 C 96.781 161.516,96.849 159.483,96.845 243.746 L 96.842 318.497 96.024 321.757 C 94.169 329.156,88.163 332.632,77.236 332.632 C 64.174 332.632,59.852 330.504,57.412 322.871 C 56.941 321.397,56.208 319.614,55.782 318.908 C 55.041 317.679,55.028 317.397,55.463 312.163 C 55.799 308.114,55.910 279.376,55.891 201.101 C 55.874 132.487,56.000 94.296,56.251 92.057 C 56.463 90.163,56.640 87.317,56.644 85.734 C 56.656 80.535,58.893 74.275,61.615 71.823 C 66.136 67.749,65.623 67.789,112.344 67.872 L 151.770 67.943 153.684 68.824 M336.428 163.859 C 341.427 165.432,342.652 167.708,342.177 174.545 C 341.972 177.505,341.830 211.259,341.845 253.559 L 341.871 327.404 340.792 328.926 C 340.198 329.762,338.831 330.943,337.752 331.549 L 335.791 332.650 230.451 332.636 C 109.522 332.620,118.302 332.865,114.513 329.398 C 112.378 327.444,112.107 326.582,112.374 322.587 C 112.505 320.638,112.638 285.341,112.669 244.150 L 112.727 169.258 113.911 167.787 C 116.640 164.396,119.070 163.819,132.057 163.479 C 148.596 163.046,334.945 163.393,336.428 163.859 " stroke="none" fill="#222222" fill-rule="evenodd"></path></g></svg>