<svg id="svg" version="1.1" xmlns="http://www.w3.org/2000/svg" xmlns:xlink="http://www.w3.org/1999/xlink" width="400" height="400" viewBox="0, 0, 400,400"><g id="svgg"><path id="path0" d="M171.928 104.100 C 171.584 104.375,171.205 104.960,171.087 105.400 C 170.969 105.840,169.767 109.350,168.416 113.200 C 167.065 117.050,165.437 121.730,164.799 123.600 C 164.160 125.470,162.353 130.690,160.783 135.200 C 159.213 139.710,156.780 146.730,155.376 150.800 C 153.973 154.870,151.910 160.810,150.792 164.000 C 149.674 167.190,148.236 171.330,147.598 173.200 C 146.409 176.680,142.684 187.427,137.614 202.000 C 136.045 206.510,134.240 211.730,133.601 213.600 C 132.963 215.470,131.339 220.150,129.992 224.000 C 128.645 227.850,127.212 231.990,126.806 233.200 C 126.080 235.366,121.090 249.759,118.762 256.400 C 118.107 258.270,116.940 261.690,116.170 264.000 C 115.400 266.310,114.604 268.560,114.401 269.000 C 114.199 269.440,113.588 271.150,113.043 272.800 C 112.498 274.450,110.673 279.760,108.987 284.600 C 106.236 292.501,105.200 295.590,105.200 295.897 C 105.200 295.954,116.347 296.000,129.972 296.000 L 154.743 296.000 159.839 280.500 C 162.642 271.975,165.107 264.775,165.317 264.500 C 165.616 264.107,173.028 264.000,200.000 264.000 L 234.303 264.000 234.737 265.100 C 235.157 266.163,244.065 293.277,244.593 295.100 L 244.854 296.000 269.827 296.000 C 283.562 296.000,294.800 295.939,294.800 295.864 C 294.800 295.789,294.241 294.124,293.558 292.164 C 289.874 281.594,286.196 270.911,284.964 267.200 C 284.197 264.890,283.403 262.640,283.200 262.200 C 282.997 261.760,282.199 259.510,281.428 257.200 C 280.096 253.209,277.480 245.612,270.620 225.800 C 268.944 220.960,266.942 215.110,266.171 212.800 C 265.400 210.490,264.603 208.240,264.400 207.800 C 264.197 207.360,263.403 205.110,262.636 202.800 C 261.869 200.490,259.867 194.640,258.187 189.800 C 256.506 184.960,254.800 180.010,254.394 178.800 C 253.989 177.590,252.557 173.450,251.212 169.600 C 249.868 165.750,248.138 160.710,247.369 158.400 C 246.599 156.090,245.806 153.840,245.606 153.400 C 245.406 152.960,244.081 149.180,242.661 145.000 C 241.241 140.820,238.523 132.900,236.621 127.400 C 234.719 121.900,232.535 115.510,231.766 113.200 C 230.998 110.890,230.208 108.640,230.011 108.200 C 229.814 107.760,229.417 106.680,229.129 105.800 C 228.840 104.920,228.423 104.068,228.202 103.906 C 227.444 103.352,172.626 103.541,171.928 104.100 M205.792 177.400 C 208.607 185.980,213.495 200.796,216.655 210.324 C 219.815 219.852,222.400 227.817,222.400 228.024 C 222.400 228.480,177.738 228.547,177.457 228.092 C 177.323 227.875,196.155 170.569,199.429 161.229 C 199.891 159.912,200.878 162.420,205.792 177.400 " stroke="none" fill="#fbfbfb" fill-rule="evenodd"></path><path id="path1" d="M178.300 0.275 C 176.375 0.361,174.800 0.604,174.800 0.816 C 174.800 1.027,173.461 1.200,171.824 1.200 C 170.187 1.200,168.736 1.380,168.600 1.600 C 168.464 1.820,167.463 2.000,166.376 2.000 C 165.289 2.000,164.400 2.180,164.400 2.400 C 164.400 2.620,163.410 2.800,162.200 2.800 C 160.990 2.800,160.000 2.980,160.000 3.200 C 160.000 3.420,159.201 3.600,158.224 3.600 C 157.247 3.600,156.336 3.780,156.200 4.000 C 156.064 4.220,155.243 4.400,154.376 4.400 C 153.509 4.400,152.800 4.580,152.800 4.800 C 152.800 5.020,152.080 5.200,151.200 5.200 C 150.320 5.200,149.600 5.380,149.600 5.600 C 149.600 5.820,148.880 6.000,148.000 6.000 C 147.120 6.000,146.400 6.180,146.400 6.400 C 146.400 6.620,145.860 6.800,145.200 6.800 C 144.540 6.800,144.000 6.980,144.000 7.200 C 144.000 7.420,143.370 7.600,142.600 7.600 C 141.830 7.600,141.200 7.780,141.200 8.000 C 141.200 8.220,140.690 8.400,140.067 8.400 C 139.443 8.400,138.801 8.533,138.638 8.695 C 138.476 8.857,138.131 9.002,137.872 9.016 C 137.210 9.053,135.154 9.599,134.200 9.991 C 133.760 10.171,132.770 10.536,132.000 10.800 C 130.307 11.382,128.840 11.971,127.905 12.447 C 127.523 12.641,126.848 12.800,126.405 12.800 C 125.962 12.800,125.600 12.980,125.600 13.200 C 125.600 13.420,125.240 13.600,124.800 13.600 C 124.360 13.600,124.000 13.780,124.000 14.000 C 124.000 14.220,123.561 14.400,123.024 14.400 C 122.487 14.400,121.936 14.580,121.800 14.800 C 121.664 15.020,121.203 15.200,120.776 15.200 C 120.349 15.200,120.000 15.380,120.000 15.600 C 120.000 15.820,119.640 16.000,119.200 16.000 C 118.760 16.000,118.400 16.180,118.400 16.400 C 118.400 16.620,118.040 16.800,117.600 16.800 C 117.160 16.800,116.800 16.980,116.800 17.200 C 116.800 17.420,116.361 17.600,115.824 17.600 C 115.287 17.600,114.736 17.780,114.600 18.000 C 114.464 18.220,114.003 18.400,113.576 18.400 C 113.149 18.400,112.800 18.580,112.800 18.800 C 112.800 19.020,112.440 19.200,112.000 19.200 C 111.560 19.200,111.200 19.346,111.200 19.525 C 111.200 19.704,110.570 20.098,109.800 20.400 C 109.030 20.702,108.400 21.096,108.400 21.275 C 108.400 21.454,108.117 21.600,107.771 21.600 C 107.426 21.600,106.871 21.872,106.539 22.204 C 106.207 22.536,105.770 22.705,105.568 22.580 C 105.365 22.455,105.200 22.543,105.200 22.776 C 105.200 23.009,104.880 23.200,104.488 23.200 C 104.097 23.200,103.517 23.560,103.200 24.000 C 102.883 24.440,102.372 24.800,102.066 24.800 C 101.415 24.800,97.463 26.859,97.267 27.300 C 97.193 27.465,96.956 27.600,96.739 27.600 C 96.522 27.600,95.559 28.140,94.600 28.800 C 93.641 29.460,92.703 30.000,92.516 30.000 C 92.329 30.000,91.917 30.360,91.600 30.800 C 91.283 31.240,90.769 31.600,90.459 31.600 C 90.148 31.600,89.603 31.916,89.247 32.303 C 88.891 32.689,88.105 33.260,87.500 33.570 C 86.895 33.881,86.400 34.285,86.400 34.468 C 86.400 34.650,86.128 34.800,85.796 34.800 C 85.464 34.800,84.628 35.340,83.937 36.000 C 83.246 36.660,82.478 37.200,82.229 37.200 C 81.980 37.200,81.517 37.560,81.200 38.000 C 80.883 38.440,80.375 38.800,80.072 38.800 C 79.769 38.800,79.017 39.340,78.400 40.000 C 77.783 40.660,77.071 41.200,76.816 41.200 C 76.561 41.200,76.464 41.380,76.600 41.600 C 76.736 41.820,76.586 42.000,76.266 42.000 C 75.946 42.000,75.105 42.518,74.396 43.151 C 72.345 44.983,72.000 45.247,72.000 44.983 C 72.000 44.847,71.325 45.430,70.500 46.280 C 69.675 47.130,68.370 48.267,67.600 48.806 C 66.182 49.799,59.187 56.748,57.900 58.441 C 57.515 58.948,57.200 59.234,57.200 59.076 C 57.200 58.628,49.911 66.034,48.810 67.600 C 48.269 68.370,47.130 69.675,46.280 70.500 C 45.430 71.325,44.847 72.000,44.983 72.000 C 45.240 72.000,44.963 72.361,43.100 74.451 C 42.495 75.129,42.000 75.824,42.000 75.994 C 42.000 76.164,41.280 77.045,40.400 77.952 C 39.520 78.859,38.800 79.831,38.800 80.112 C 38.800 80.393,38.440 80.883,38.000 81.200 C 37.560 81.517,37.200 82.025,37.200 82.328 C 37.200 82.631,36.660 83.383,36.000 84.000 C 35.340 84.617,34.800 85.409,34.800 85.760 C 34.800 86.112,34.650 86.400,34.468 86.400 C 34.285 86.400,33.881 86.895,33.570 87.500 C 33.260 88.105,32.689 88.891,32.303 89.247 C 31.916 89.603,31.600 90.122,31.600 90.400 C 31.600 90.678,31.285 91.198,30.900 91.554 C 30.104 92.291,28.859 94.258,28.529 95.300 C 28.407 95.685,28.148 96.000,27.953 96.000 C 27.759 96.000,27.600 96.255,27.600 96.567 C 27.600 96.878,27.443 97.193,27.251 97.267 C 26.843 97.422,24.800 101.371,24.800 102.003 C 24.800 102.240,24.440 102.820,24.000 103.292 C 23.560 103.764,23.200 104.387,23.200 104.675 C 23.200 104.964,23.020 105.200,22.800 105.200 C 22.580 105.200,22.400 105.560,22.400 106.000 C 22.400 106.440,22.220 106.800,22.000 106.800 C 21.780 106.800,21.600 107.160,21.600 107.600 C 21.600 108.040,21.454 108.400,21.275 108.400 C 21.096 108.400,20.702 109.030,20.400 109.800 C 20.098 110.570,19.704 111.200,19.525 111.200 C 19.346 111.200,19.200 111.560,19.200 112.000 C 19.200 112.440,19.020 112.800,18.800 112.800 C 18.580 112.800,18.400 113.149,18.400 113.576 C 18.400 114.003,18.220 114.464,18.000 114.600 C 17.780 114.736,17.600 115.197,17.600 115.624 C 17.600 116.051,17.420 116.400,17.200 116.400 C 16.980 116.400,16.800 116.850,16.800 117.400 C 16.800 117.950,16.620 118.400,16.400 118.400 C 16.180 118.400,16.000 118.760,16.000 119.200 C 16.000 119.640,15.820 120.000,15.600 120.000 C 15.380 120.000,15.200 120.349,15.200 120.776 C 15.200 121.203,15.020 121.664,14.800 121.800 C 14.580 121.936,14.400 122.487,14.400 123.024 C 14.400 123.561,14.220 124.000,14.000 124.000 C 13.780 124.000,13.600 124.360,13.600 124.800 C 13.600 125.240,13.420 125.600,13.200 125.600 C 12.980 125.600,12.800 125.962,12.800 126.405 C 12.800 126.848,12.641 127.523,12.447 127.905 C 12.252 128.287,11.871 129.140,11.600 129.800 C 11.329 130.460,10.948 131.313,10.753 131.695 C 10.559 132.077,10.400 132.664,10.400 133.000 C 10.400 133.336,10.237 133.923,10.037 134.305 C 9.440 135.447,8.400 139.222,8.400 140.246 C 8.400 140.771,8.220 141.200,8.000 141.200 C 7.780 141.200,7.600 141.830,7.600 142.600 C 7.600 143.370,7.420 144.000,7.200 144.000 C 6.980 144.000,6.800 144.529,6.800 145.176 C 6.800 145.823,6.620 146.464,6.400 146.600 C 6.180 146.736,6.000 147.467,6.000 148.224 C 6.000 148.981,5.820 149.600,5.600 149.600 C 5.380 149.600,5.200 150.320,5.200 151.200 C 5.200 152.080,5.020 152.800,4.800 152.800 C 4.580 152.800,4.400 153.509,4.400 154.376 C 4.400 155.243,4.220 156.064,4.000 156.200 C 3.780 156.336,3.600 157.247,3.600 158.224 C 3.600 159.201,3.420 160.000,3.200 160.000 C 2.980 160.000,2.800 160.900,2.800 162.000 C 2.800 163.100,2.620 164.000,2.400 164.000 C 2.174 164.000,2.000 165.133,2.000 166.600 C 2.000 168.067,1.826 169.200,1.600 169.200 C 1.376 169.200,1.200 170.307,1.200 171.720 C 1.200 173.203,0.994 174.446,0.700 174.740 C -0.029 175.469,-0.029 224.131,0.700 224.860 C 1.002 225.162,1.200 226.437,1.200 228.080 C 1.200 229.627,1.373 230.800,1.600 230.800 C 1.826 230.800,2.000 231.933,2.000 233.400 C 2.000 234.867,2.174 236.000,2.400 236.000 C 2.620 236.000,2.800 236.900,2.800 238.000 C 2.800 239.100,2.980 240.000,3.200 240.000 C 3.420 240.000,3.600 240.799,3.600 241.776 C 3.600 242.753,3.780 243.664,4.000 243.800 C 4.220 243.936,4.400 244.757,4.400 245.624 C 4.400 246.491,4.580 247.200,4.800 247.200 C 5.020 247.200,5.200 247.920,5.200 248.800 C 5.200 249.680,5.380 250.400,5.600 250.400 C 5.820 250.400,6.000 251.019,6.000 251.776 C 6.000 252.533,6.180 253.264,6.400 253.400 C 6.620 253.536,6.800 254.177,6.800 254.824 C 6.800 255.471,6.980 256.000,7.200 256.000 C 7.420 256.000,7.600 256.630,7.600 257.400 C 7.600 258.170,7.780 258.800,8.000 258.800 C 8.220 258.800,8.400 259.229,8.400 259.754 C 8.400 260.645,9.285 263.982,10.003 265.800 C 10.177 266.240,10.536 267.230,10.800 268.000 C 11.382 269.693,11.971 271.160,12.447 272.095 C 12.641 272.477,12.800 273.152,12.800 273.595 C 12.800 274.038,12.980 274.400,13.200 274.400 C 13.420 274.400,13.600 274.760,13.600 275.200 C 13.600 275.640,13.780 276.000,14.000 276.000 C 14.220 276.000,14.400 276.439,14.400 276.976 C 14.400 277.513,14.580 278.064,14.800 278.200 C 15.020 278.336,15.200 278.797,15.200 279.224 C 15.200 279.651,15.380 280.000,15.600 280.000 C 15.820 280.000,16.000 280.360,16.000 280.800 C 16.000 281.240,16.180 281.600,16.400 281.600 C 16.620 281.600,16.800 281.960,16.800 282.400 C 16.800 282.840,16.980 283.200,17.200 283.200 C 17.420 283.200,17.600 283.639,17.600 284.176 C 17.600 284.713,17.780 285.264,18.000 285.400 C 18.220 285.536,18.400 285.997,18.400 286.424 C 18.400 286.851,18.535 287.201,18.700 287.201 C 18.865 287.202,19.450 288.192,20.000 289.400 C 20.550 290.608,21.135 291.598,21.300 291.599 C 21.465 291.599,21.600 291.883,21.600 292.229 C 21.600 292.574,21.872 293.129,22.204 293.461 C 22.536 293.793,22.705 294.230,22.580 294.432 C 22.455 294.635,22.543 294.800,22.776 294.800 C 23.009 294.800,23.200 295.036,23.200 295.325 C 23.200 295.613,23.560 296.236,24.000 296.708 C 24.440 297.180,24.800 297.775,24.800 298.029 C 24.800 298.611,26.895 302.553,27.300 302.733 C 27.465 302.807,27.600 303.122,27.600 303.433 C 27.600 303.745,27.759 304.000,27.953 304.000 C 28.148 304.000,28.413 304.315,28.542 304.700 C 28.984 306.011,30.287 307.979,30.544 307.723 C 30.685 307.582,30.800 307.767,30.800 308.133 C 30.800 308.500,30.980 308.800,31.200 308.800 C 31.420 308.800,31.600 309.120,31.600 309.512 C 31.600 309.903,31.960 310.483,32.400 310.800 C 32.840 311.117,33.200 311.562,33.200 311.788 C 33.201 312.015,33.647 312.718,34.192 313.352 C 34.737 313.986,35.069 314.689,34.930 314.914 C 34.784 315.149,34.873 315.202,35.138 315.038 C 35.399 314.877,35.600 314.985,35.600 315.288 C 35.600 315.583,35.960 316.083,36.400 316.400 C 36.840 316.717,37.200 317.257,37.200 317.600 C 37.200 317.943,37.560 318.483,38.000 318.800 C 38.440 319.117,38.800 319.625,38.800 319.928 C 38.800 320.231,39.296 320.956,39.901 321.540 C 40.507 322.123,41.535 323.320,42.187 324.200 C 42.838 325.080,43.603 326.038,43.886 326.329 C 44.168 326.619,44.400 327.012,44.400 327.202 C 44.400 327.392,45.303 328.504,46.407 329.673 C 49.880 333.355,50.400 333.943,50.400 334.190 C 50.400 334.322,52.065 336.049,54.100 338.028 C 58.506 342.311,57.530 341.336,62.287 346.207 C 64.439 348.410,66.830 350.658,67.600 351.201 C 68.370 351.745,69.770 352.957,70.711 353.895 C 71.651 354.833,72.577 355.600,72.768 355.600 C 72.959 355.600,73.693 356.140,74.400 356.800 C 75.107 357.460,75.946 358.000,76.266 358.000 C 76.586 358.000,76.736 358.180,76.600 358.400 C 76.464 358.620,76.561 358.800,76.816 358.800 C 77.071 358.800,77.783 359.340,78.400 360.000 C 79.017 360.660,79.769 361.200,80.072 361.200 C 80.375 361.200,80.883 361.560,81.200 362.000 C 81.517 362.440,81.980 362.800,82.229 362.800 C 82.478 362.800,83.246 363.340,83.937 364.000 C 84.628 364.660,85.425 365.200,85.708 365.200 C 85.991 365.200,86.483 365.560,86.800 366.000 C 87.117 366.440,87.657 366.800,88.000 366.800 C 88.343 366.800,88.883 367.160,89.200 367.600 C 89.517 368.040,90.057 368.400,90.400 368.400 C 90.743 368.400,91.283 368.760,91.600 369.200 C 91.917 369.640,92.329 370.000,92.516 370.000 C 92.703 370.000,93.641 370.540,94.600 371.200 C 95.559 371.860,96.537 372.400,96.772 372.400 C 97.007 372.400,97.200 372.610,97.200 372.867 C 97.200 373.123,97.305 373.229,97.433 373.101 C 97.560 372.973,98.312 373.307,99.103 373.844 C 99.894 374.381,100.999 374.935,101.557 375.075 C 102.116 375.215,102.928 375.661,103.362 376.065 C 103.796 376.469,104.387 376.800,104.675 376.800 C 104.964 376.800,105.200 376.980,105.200 377.200 C 105.200 377.420,105.560 377.600,106.000 377.600 C 106.440 377.600,106.800 377.780,106.800 378.000 C 106.800 378.220,107.124 378.400,107.520 378.400 C 107.916 378.400,108.411 378.568,108.620 378.773 C 109.250 379.392,113.640 381.600,114.241 381.600 C 114.548 381.600,114.800 381.780,114.800 382.000 C 114.800 382.220,115.250 382.400,115.800 382.400 C 116.350 382.400,116.800 382.580,116.800 382.800 C 116.800 383.020,117.034 383.200,117.320 383.200 C 118.056 383.200,119.993 384.141,119.997 384.500 C 119.999 384.665,120.349 384.800,120.776 384.800 C 121.203 384.800,121.664 384.980,121.800 385.200 C 121.936 385.420,122.487 385.600,123.024 385.600 C 123.561 385.600,124.000 385.780,124.000 386.000 C 124.000 386.220,124.360 386.400,124.800 386.400 C 125.240 386.400,125.600 386.580,125.600 386.800 C 125.600 387.020,125.962 387.200,126.405 387.200 C 126.848 387.200,127.523 387.359,127.905 387.553 C 128.840 388.029,130.307 388.618,132.000 389.200 C 132.770 389.464,133.760 389.823,134.200 389.997 C 136.018 390.715,139.355 391.600,140.246 391.600 C 140.771 391.600,141.200 391.780,141.200 392.000 C 141.200 392.220,141.830 392.400,142.600 392.400 C 143.370 392.400,144.000 392.580,144.000 392.800 C 144.000 393.020,144.529 393.200,145.176 393.200 C 145.823 393.200,146.464 393.380,146.600 393.600 C 146.736 393.820,147.467 394.000,148.224 394.000 C 148.981 394.000,149.600 394.180,149.600 394.400 C 149.600 394.620,150.320 394.800,151.200 394.800 C 152.080 394.800,152.800 394.980,152.800 395.200 C 152.800 395.420,153.509 395.600,154.376 395.600 C 155.243 395.600,156.064 395.780,156.200 396.000 C 156.336 396.220,157.247 396.400,158.224 396.400 C 159.201 396.400,160.000 396.580,160.000 396.800 C 160.000 397.020,160.979 397.200,162.176 397.200 C 163.373 397.200,164.464 397.380,164.600 397.600 C 164.736 397.820,165.726 398.000,166.800 398.000 C 167.874 398.000,168.864 398.180,169.000 398.400 C 169.136 398.620,170.482 398.800,171.990 398.800 C 173.829 398.800,174.788 398.965,174.900 399.300 C 175.144 400.032,224.856 400.032,225.100 399.300 C 225.212 398.964,226.176 398.800,228.033 398.800 C 229.611 398.800,230.800 398.628,230.800 398.400 C 230.800 398.178,231.856 398.000,233.167 398.000 C 234.468 398.000,235.593 397.830,235.667 397.622 C 235.740 397.414,236.745 397.202,237.900 397.151 C 239.055 397.099,240.000 396.909,240.000 396.729 C 240.000 396.548,240.799 396.400,241.776 396.400 C 242.753 396.400,243.664 396.220,243.800 396.000 C 243.936 395.780,244.757 395.600,245.624 395.600 C 246.491 395.600,247.200 395.420,247.200 395.200 C 247.200 394.980,247.920 394.800,248.800 394.800 C 249.680 394.800,250.400 394.620,250.400 394.400 C 250.400 394.180,251.120 394.000,252.000 394.000 C 252.880 394.000,253.600 393.820,253.600 393.600 C 253.600 393.380,254.140 393.200,254.800 393.200 C 255.460 393.200,256.000 393.020,256.000 392.800 C 256.000 392.580,256.630 392.400,257.400 392.400 C 258.170 392.400,258.800 392.220,258.800 392.000 C 258.800 391.780,259.229 391.600,259.754 391.600 C 260.778 391.600,264.553 390.560,265.695 389.963 C 266.077 389.763,266.664 389.600,267.000 389.600 C 267.336 389.600,267.968 389.420,268.405 389.200 C 268.842 388.980,269.558 388.620,269.995 388.400 C 270.432 388.180,271.152 388.000,271.595 388.000 C 272.038 388.000,272.400 387.820,272.400 387.600 C 272.400 387.380,272.850 387.200,273.400 387.200 C 273.950 387.200,274.400 387.020,274.400 386.800 C 274.400 386.580,274.760 386.400,275.200 386.400 C 275.640 386.400,276.000 386.220,276.000 386.000 C 276.000 385.780,276.540 385.600,277.200 385.600 C 277.860 385.600,278.400 385.420,278.400 385.200 C 278.400 384.980,278.760 384.800,279.200 384.800 C 279.640 384.800,280.000 384.620,280.000 384.400 C 280.000 384.180,280.360 384.000,280.800 384.000 C 281.240 384.000,281.600 383.820,281.600 383.600 C 281.600 383.380,281.849 383.200,282.154 383.200 C 282.459 383.200,283.211 382.939,283.826 382.620 C 284.440 382.302,285.091 382.132,285.271 382.244 C 285.452 382.356,285.600 382.257,285.600 382.024 C 285.600 381.791,285.960 381.600,286.400 381.600 C 286.840 381.600,287.200 381.420,287.200 381.200 C 287.200 380.980,287.560 380.800,288.000 380.800 C 288.440 380.800,288.800 380.620,288.800 380.400 C 288.800 380.180,289.160 380.000,289.600 380.000 C 290.040 380.000,290.400 379.820,290.400 379.600 C 290.400 379.380,290.670 379.200,291.000 379.200 C 291.330 379.200,291.600 379.020,291.600 378.800 C 291.600 378.580,291.960 378.400,292.400 378.400 C 292.840 378.400,293.200 378.220,293.200 378.000 C 293.200 377.780,293.560 377.600,294.000 377.600 C 294.440 377.600,294.800 377.420,294.800 377.200 C 294.800 376.980,295.171 376.800,295.624 376.800 C 296.077 376.800,296.336 376.620,296.200 376.400 C 296.064 376.180,296.233 376.000,296.576 376.000 C 296.919 376.000,297.200 375.820,297.200 375.600 C 297.200 375.380,297.476 375.200,297.813 375.200 C 298.581 375.200,302.553 373.221,302.733 372.749 C 302.807 372.557,303.129 372.400,303.450 372.400 C 303.771 372.400,304.420 372.040,304.892 371.600 C 305.364 371.160,305.987 370.800,306.275 370.800 C 306.564 370.800,306.800 370.620,306.800 370.400 C 306.800 370.180,307.030 370.000,307.312 370.000 C 307.593 370.000,308.083 369.640,308.400 369.200 C 308.717 368.760,309.257 368.400,309.600 368.400 C 309.943 368.400,310.483 368.040,310.800 367.600 C 311.117 367.160,311.657 366.800,312.000 366.800 C 312.343 366.800,312.883 366.440,313.200 366.000 C 313.517 365.560,314.057 365.200,314.400 365.200 C 314.743 365.200,315.283 364.840,315.600 364.400 C 315.917 363.960,316.507 363.600,316.912 363.600 C 317.316 363.600,317.536 363.420,317.400 363.200 C 317.264 362.980,317.394 362.800,317.688 362.800 C 317.983 362.800,318.483 362.440,318.800 362.000 C 319.117 361.560,319.707 361.200,320.112 361.200 C 320.516 361.200,320.736 361.020,320.600 360.800 C 320.464 360.580,320.594 360.400,320.888 360.400 C 321.183 360.400,321.683 360.040,322.000 359.600 C 322.317 359.160,322.769 358.800,323.005 358.800 C 323.241 358.800,324.101 358.170,324.918 357.400 C 325.734 356.630,326.563 356.000,326.760 356.000 C 326.958 356.000,328.038 355.100,329.161 354.000 C 330.285 352.900,331.364 352.000,331.560 352.000 C 331.756 352.000,334.050 349.851,336.658 347.224 C 339.266 344.598,341.635 342.213,341.921 341.924 C 342.208 341.636,344.593 339.276,347.221 336.681 C 349.850 334.086,352.000 331.791,352.000 331.583 C 352.000 331.375,352.900 330.285,354.000 329.161 C 355.100 328.038,356.000 326.958,356.000 326.760 C 356.000 326.563,356.630 325.734,357.400 324.918 C 358.170 324.101,358.800 323.241,358.800 323.005 C 358.800 322.769,359.160 322.317,359.600 322.000 C 360.040 321.683,360.400 321.183,360.400 320.888 C 360.400 320.594,360.580 320.464,360.800 320.600 C 361.020 320.736,361.200 320.565,361.200 320.220 C 361.200 319.875,361.740 319.028,362.400 318.337 C 363.060 317.646,363.600 316.878,363.600 316.629 C 363.600 316.380,363.960 315.917,364.400 315.600 C 364.840 315.283,365.200 314.743,365.200 314.400 C 365.200 314.057,365.560 313.517,366.000 313.200 C 366.440 312.883,366.800 312.343,366.800 312.000 C 366.800 311.657,367.160 311.117,367.600 310.800 C 368.040 310.483,368.400 309.943,368.400 309.600 C 368.400 309.257,368.760 308.717,369.200 308.400 C 369.640 308.083,370.000 307.593,370.000 307.312 C 370.000 307.030,370.141 306.800,370.312 306.800 C 370.484 306.800,370.838 306.305,371.098 305.700 C 371.607 304.516,372.447 303.123,372.848 302.800 C 373.236 302.486,375.200 298.476,375.200 297.997 C 375.200 297.760,375.560 297.180,376.000 296.708 C 376.440 296.236,376.800 295.613,376.800 295.325 C 376.800 295.036,376.980 294.800,377.200 294.800 C 377.420 294.800,377.600 294.440,377.600 294.000 C 377.600 293.560,377.780 293.200,378.000 293.200 C 378.220 293.200,378.400 292.840,378.400 292.400 C 378.400 291.960,378.546 291.600,378.725 291.600 C 378.904 291.600,379.298 290.970,379.600 290.200 C 379.902 289.430,380.296 288.800,380.475 288.800 C 380.654 288.800,380.800 288.440,380.800 288.000 C 380.800 287.560,380.980 287.200,381.200 287.200 C 381.420 287.200,381.600 286.851,381.600 286.424 C 381.600 285.997,381.780 285.536,382.000 285.400 C 382.220 285.264,382.400 284.713,382.400 284.176 C 382.400 283.639,382.580 283.200,382.800 283.200 C 383.020 283.200,383.200 282.840,383.200 282.400 C 383.200 281.960,383.380 281.600,383.600 281.600 C 383.820 281.600,384.000 281.240,384.000 280.800 C 384.000 280.360,384.180 280.000,384.400 280.000 C 384.620 280.000,384.800 279.550,384.800 279.000 C 384.800 278.450,384.980 278.000,385.200 278.000 C 385.420 278.000,385.600 277.550,385.600 277.000 C 385.600 276.450,385.780 276.000,386.000 276.000 C 386.220 276.000,386.400 275.640,386.400 275.200 C 386.400 274.760,386.580 274.400,386.800 274.400 C 387.020 274.400,387.200 273.950,387.200 273.400 C 387.200 272.850,387.380 272.400,387.600 272.400 C 387.820 272.400,388.000 271.860,388.000 271.200 C 388.000 270.540,388.180 270.000,388.400 270.000 C 388.620 270.000,388.800 269.651,388.800 269.224 C 388.800 268.797,388.980 268.336,389.200 268.200 C 389.420 268.064,389.600 267.549,389.600 267.056 C 389.600 266.563,389.816 265.944,390.080 265.680 C 390.344 265.416,390.438 265.200,390.290 265.200 C 390.141 265.200,390.211 264.705,390.445 264.100 C 390.985 262.706,391.238 261.734,391.488 260.100 C 391.598 259.385,391.848 258.800,392.044 258.800 C 392.240 258.800,392.400 258.170,392.400 257.400 C 392.400 256.630,392.560 256.000,392.756 256.000 C 392.952 256.000,393.227 255.325,393.368 254.500 C 393.990 250.849,394.107 250.400,394.444 250.400 C 394.640 250.400,394.800 249.680,394.800 248.800 C 394.800 247.920,394.980 247.200,395.200 247.200 C 395.420 247.200,395.600 246.379,395.600 245.376 C 395.600 244.373,395.747 243.644,395.926 243.755 C 396.106 243.865,396.296 243.111,396.348 242.078 C 396.400 241.045,396.613 240.140,396.821 240.067 C 397.030 239.993,397.200 239.048,397.200 237.967 C 397.200 236.885,397.380 236.000,397.600 236.000 C 397.822 236.000,398.000 234.941,398.000 233.624 C 398.000 232.317,398.180 231.136,398.400 231.000 C 398.620 230.864,398.800 229.518,398.800 228.010 C 398.800 226.171,398.965 225.212,399.300 225.100 C 400.032 224.856,400.032 175.144,399.300 174.900 C 398.965 174.788,398.800 173.829,398.800 171.990 C 398.800 170.482,398.620 169.136,398.400 169.000 C 398.180 168.864,398.000 167.773,398.000 166.576 C 398.000 165.379,397.820 164.400,397.600 164.400 C 397.380 164.400,397.200 163.410,397.200 162.200 C 397.200 160.990,397.020 160.000,396.800 160.000 C 396.580 160.000,396.400 159.201,396.400 158.224 C 396.400 157.247,396.220 156.336,396.000 156.200 C 395.780 156.064,395.600 155.243,395.600 154.376 C 395.600 153.509,395.420 152.800,395.200 152.800 C 394.980 152.800,394.800 152.080,394.800 151.200 C 394.800 150.320,394.620 149.600,394.400 149.600 C 394.180 149.600,394.000 148.981,394.000 148.224 C 394.000 147.467,393.820 146.736,393.600 146.600 C 393.380 146.464,393.200 145.823,393.200 145.176 C 393.200 144.529,393.020 144.000,392.800 144.000 C 392.580 144.000,392.400 143.370,392.400 142.600 C 392.400 141.830,392.220 141.200,392.000 141.200 C 391.780 141.200,391.600 140.771,391.600 140.246 C 391.600 139.355,390.715 136.018,389.997 134.200 C 389.823 133.760,389.461 132.770,389.193 132.000 C 388.925 131.230,388.367 129.837,387.953 128.904 C 387.539 127.972,387.200 126.847,387.200 126.404 C 387.200 125.962,387.020 125.600,386.800 125.600 C 386.580 125.600,386.400 125.240,386.400 124.800 C 386.400 124.360,386.220 124.000,386.000 124.000 C 385.780 124.000,385.600 123.561,385.600 123.024 C 385.600 122.487,385.420 121.936,385.200 121.800 C 384.980 121.664,384.800 121.203,384.800 120.776 C 384.800 120.349,384.620 120.000,384.400 120.000 C 384.180 120.000,384.000 119.640,384.000 119.200 C 384.000 118.760,383.820 118.400,383.600 118.400 C 383.380 118.400,383.200 118.040,383.200 117.600 C 383.200 117.160,383.020 116.800,382.800 116.800 C 382.580 116.800,382.400 116.350,382.400 115.800 C 382.400 115.250,382.220 114.800,382.000 114.800 C 381.780 114.800,381.600 114.609,381.600 114.375 C 381.600 113.757,379.098 108.624,378.720 108.467 C 378.544 108.393,378.400 107.988,378.400 107.567 C 378.400 107.145,378.220 106.800,378.000 106.800 C 377.780 106.800,377.600 106.440,377.600 106.000 C 377.600 105.560,377.420 105.200,377.200 105.200 C 376.980 105.200,376.800 104.880,376.800 104.488 C 376.800 104.097,376.440 103.517,376.000 103.200 C 375.560 102.883,375.200 102.372,375.200 102.066 C 375.200 101.415,373.141 97.463,372.700 97.267 C 372.535 97.193,372.400 96.956,372.400 96.739 C 372.400 96.522,371.860 95.559,371.200 94.600 C 370.540 93.641,370.000 92.703,370.000 92.516 C 370.000 92.329,369.640 91.917,369.200 91.600 C 368.760 91.283,368.400 90.743,368.400 90.400 C 368.400 90.057,368.040 89.517,367.600 89.200 C 367.160 88.883,366.800 88.385,366.800 88.094 C 366.800 87.802,366.347 87.110,365.792 86.556 C 365.238 86.002,364.906 85.352,365.054 85.112 C 365.215 84.851,365.138 84.791,364.862 84.962 C 364.588 85.131,364.400 84.993,364.400 84.624 C 364.400 84.281,364.220 84.000,364.000 84.000 C 363.780 84.000,363.600 83.757,363.600 83.459 C 363.600 83.162,363.060 82.354,362.400 81.663 C 361.740 80.972,361.200 80.208,361.200 79.964 C 361.200 79.720,360.660 79.017,360.000 78.400 C 359.340 77.783,358.800 77.071,358.800 76.816 C 358.800 76.561,358.620 76.464,358.400 76.600 C 358.180 76.736,358.000 76.586,358.000 76.266 C 358.000 75.946,357.460 75.107,356.800 74.400 C 356.140 73.693,355.600 72.959,355.600 72.768 C 355.600 72.577,354.833 71.651,353.895 70.711 C 352.957 69.770,351.743 68.370,351.198 67.600 C 350.182 66.165,342.800 58.614,342.800 59.009 C 342.800 59.130,342.374 58.817,341.854 58.314 C 341.333 57.811,340.959 57.339,341.023 57.264 C 341.212 57.041,333.915 49.876,332.405 48.802 C 331.638 48.257,330.135 46.953,329.065 45.905 C 327.995 44.857,326.900 44.000,326.632 44.000 C 326.364 44.000,325.753 43.550,325.275 43.000 C 324.797 42.450,324.123 42.000,323.779 42.000 C 323.435 42.000,323.264 41.820,323.400 41.600 C 323.536 41.380,323.439 41.200,323.184 41.200 C 322.929 41.200,322.217 40.660,321.600 40.000 C 320.983 39.340,320.280 38.800,320.036 38.800 C 319.792 38.800,319.028 38.260,318.337 37.600 C 317.646 36.940,316.878 36.400,316.629 36.400 C 316.380 36.400,315.917 36.040,315.600 35.600 C 315.283 35.160,314.703 34.800,314.312 34.800 C 313.920 34.800,313.600 34.650,313.600 34.468 C 313.600 34.285,313.105 33.881,312.500 33.570 C 311.895 33.260,311.109 32.689,310.753 32.303 C 310.397 31.916,309.878 31.600,309.600 31.600 C 309.322 31.600,308.802 31.285,308.446 30.900 C 307.709 30.104,305.742 28.859,304.700 28.529 C 304.315 28.407,304.000 28.148,304.000 27.953 C 304.000 27.759,303.730 27.600,303.400 27.600 C 303.070 27.600,302.800 27.390,302.800 27.133 C 302.800 26.877,302.695 26.771,302.567 26.899 C 302.440 27.027,301.688 26.693,300.897 26.156 C 300.106 25.619,299.001 25.065,298.443 24.925 C 297.884 24.785,297.072 24.339,296.638 23.935 C 296.204 23.531,295.613 23.200,295.325 23.200 C 295.036 23.200,294.800 23.020,294.800 22.800 C 294.800 22.580,294.440 22.400,294.000 22.400 C 293.560 22.400,293.200 22.220,293.200 22.000 C 293.200 21.780,292.840 21.600,292.400 21.600 C 291.960 21.600,291.599 21.465,291.599 21.300 C 291.598 21.135,290.608 20.550,289.400 20.000 C 288.192 19.450,287.202 18.865,287.201 18.700 C 287.201 18.535,286.851 18.400,286.424 18.400 C 285.997 18.400,285.536 18.220,285.400 18.000 C 285.264 17.780,284.713 17.600,284.176 17.600 C 283.639 17.600,283.200 17.420,283.200 17.200 C 283.200 16.980,282.840 16.800,282.400 16.800 C 281.960 16.800,281.600 16.620,281.600 16.400 C 281.600 16.180,281.240 16.000,280.800 16.000 C 280.360 16.000,280.000 15.820,280.000 15.600 C 280.000 15.380,279.539 15.200,278.976 15.200 C 278.396 15.200,278.060 15.027,278.200 14.800 C 278.344 14.567,277.937 14.400,277.224 14.400 C 276.551 14.400,276.000 14.220,276.000 14.000 C 276.000 13.780,275.640 13.600,275.200 13.600 C 274.760 13.600,274.400 13.420,274.400 13.200 C 274.400 12.980,273.860 12.800,273.200 12.800 C 272.540 12.800,272.000 12.620,272.000 12.400 C 272.000 12.180,271.728 12.000,271.395 12.000 C 271.062 12.000,270.432 11.820,269.995 11.600 C 269.558 11.380,268.842 11.020,268.405 10.800 C 267.968 10.580,267.336 10.400,267.000 10.400 C 266.664 10.400,266.077 10.237,265.695 10.037 C 264.553 9.440,260.778 8.400,259.754 8.400 C 259.229 8.400,258.800 8.220,258.800 8.000 C 258.800 7.780,258.170 7.600,257.400 7.600 C 256.630 7.600,256.000 7.420,256.000 7.200 C 256.000 6.980,255.471 6.800,254.824 6.800 C 254.177 6.800,253.536 6.620,253.400 6.400 C 253.264 6.180,252.533 6.000,251.776 6.000 C 251.019 6.000,250.400 5.820,250.400 5.600 C 250.400 5.380,249.680 5.200,248.800 5.200 C 247.920 5.200,247.200 5.020,247.200 4.800 C 247.200 4.580,246.491 4.400,245.624 4.400 C 244.757 4.400,243.936 4.220,243.800 4.000 C 243.664 3.780,242.753 3.600,241.776 3.600 C 240.799 3.600,240.000 3.420,240.000 3.200 C 240.000 2.980,239.100 2.800,238.000 2.800 C 236.900 2.800,236.000 2.620,236.000 2.400 C 236.000 2.174,234.867 2.000,233.400 2.000 C 231.933 2.000,230.800 1.826,230.800 1.600 C 230.800 1.372,229.611 1.200,228.033 1.200 C 226.198 1.200,225.211 1.034,225.103 0.708 C 224.941 0.222,187.291 -0.126,178.300 0.275 M228.202 103.906 C 228.423 104.068,228.840 104.920,229.129 105.800 C 229.417 106.680,229.814 107.760,230.011 108.200 C 230.208 108.640,230.998 110.890,231.766 113.200 C 232.535 115.510,234.719 121.900,236.621 127.400 C 238.523 132.900,241.241 140.820,242.661 145.000 C 244.081 149.180,245.406 152.960,245.606 153.400 C 245.806 153.840,246.599 156.090,247.369 158.400 C 248.138 160.710,249.868 165.750,251.212 169.600 C 252.557 173.450,253.989 177.590,254.394 178.800 C 254.800 180.010,256.506 184.960,258.187 189.800 C 259.867 194.640,261.869 200.490,262.636 202.800 C 263.403 205.110,264.197 207.360,264.400 207.800 C 264.603 208.240,265.400 210.490,266.171 212.800 C 266.942 215.110,268.944 220.960,270.620 225.800 C 277.480 245.612,280.096 253.209,281.428 257.200 C 282.199 259.510,282.997 261.760,283.200 262.200 C 283.403 262.640,284.197 264.890,284.964 267.200 C 286.196 270.911,289.874 281.594,293.558 292.164 C 294.241 294.124,294.800 295.789,294.800 295.864 C 294.800 295.939,283.562 296.000,269.827 296.000 L 244.854 296.000 244.593 295.100 C 244.065 293.277,235.157 266.163,234.737 265.100 L 234.303 264.000 200.000 264.000 C 173.028 264.000,165.616 264.107,165.317 264.500 C 165.107 264.775,162.642 271.975,159.839 280.500 L 154.743 296.000 129.972 296.000 C 116.347 296.000,105.200 295.954,105.200 295.897 C 105.200 295.590,106.236 292.501,108.987 284.600 C 110.673 279.760,112.498 274.450,113.043 272.800 C 113.588 271.150,114.199 269.440,114.401 269.000 C 114.604 268.560,115.400 266.310,116.170 264.000 C 116.940 261.690,118.107 258.270,118.762 256.400 C 121.090 249.759,126.080 235.366,126.806 233.200 C 127.212 231.990,128.645 227.850,129.992 224.000 C 131.339 220.150,132.963 215.470,133.601 213.600 C 134.240 211.730,136.045 206.510,137.614 202.000 C 142.684 187.427,146.409 176.680,147.598 173.200 C 148.236 171.330,149.674 167.190,150.792 164.000 C 151.910 160.810,153.973 154.870,155.376 150.800 C 156.780 146.730,159.213 139.710,160.783 135.200 C 162.353 130.690,164.160 125.470,164.799 123.600 C 165.437 121.730,167.065 117.050,168.416 113.200 C 169.767 109.350,170.969 105.840,171.087 105.400 C 171.580 103.566,171.031 103.600,200.176 103.606 C 215.369 103.609,227.981 103.744,228.202 103.906 M199.429 161.229 C 196.155 170.569,177.323 227.875,177.457 228.092 C 177.738 228.547,222.400 228.480,222.400 228.024 C 222.400 227.817,219.815 219.852,216.655 210.324 C 213.495 200.796,208.607 185.980,205.792 177.400 C 200.878 162.420,199.891 159.912,199.429 161.229 " stroke="none" fill="#f0a843" fill-rule="evenodd"></path></g></svg>